<svg width="1912" height="898" viewBox="0 0 1912 898" fill="none" xmlns="http://www.w3.org/2000/svg">
<rect width="1912" height="898" fill="#E5E5E5"/>
<rect x="0.5" y="0.5" width="1911" height="897" fill="white" stroke="black"/>
<rect x="545" y="285" width="775" height="398" fill="#423ABA"/>
<rect x="614" y="373" width="642" height="45" fill="white"/>
<rect x="614" y="467" width="642" height="45" fill="white"/>
<g filter="url(#filter0_d)">
<rect x="614" y="555" width="642" height="65" fill="white"/>
</g>
<path d="M885.271 574.863V597.363H898.42V600H882.02V574.863H885.271ZM904.854 587.361C904.854 594.146 907.918 597.539 914.047 597.539C920.047 597.539 923.047 594.146 923.047 587.361C923.047 580.67 920.047 577.324 914.047 577.324C907.918 577.324 904.854 580.67 904.854 587.361ZM901.426 587.467C901.426 578.947 905.633 574.688 914.047 574.688C922.332 574.688 926.475 578.947 926.475 587.467C926.475 595.939 922.332 600.176 914.047 600.176C905.633 600.176 901.426 595.939 901.426 587.467ZM950.574 599.016C948.547 599.789 946.361 600.176 944.018 600.176C934.912 600.176 930.359 595.811 930.359 587.08C930.359 578.818 934.754 574.688 943.543 574.688C946.062 574.688 948.406 575.039 950.574 575.742V578.555C948.406 577.734 946.18 577.324 943.895 577.324C937.039 577.324 933.611 580.576 933.611 587.08C933.611 594.053 936.986 597.539 943.736 597.539C944.814 597.539 946.01 597.398 947.322 597.117V588.574H950.574V599.016ZM959.732 574.863V600H956.48V574.863H959.732ZM966.254 600V574.863H969.506L984.887 595.113V574.863H987.963V600H984.711L969.33 579.574V600H966.254Z" fill="#423ABA"/>
<path d="M615.875 361.531V351.242H618.043V361.531C618.043 364.75 619.645 366.359 622.848 366.359C626.051 366.359 627.652 364.75 627.652 361.531V351.242H629.82V361.531C629.82 365.922 627.496 368.117 622.848 368.117C618.199 368.117 615.875 365.922 615.875 361.531ZM633.453 367.414V365.422C635.211 366.047 637.109 366.359 639.148 366.359C642.031 366.359 643.473 365.305 643.473 363.195C643.473 361.398 642.41 360.5 640.285 360.5H638.129C634.621 360.5 632.867 358.977 632.867 355.93C632.867 352.727 635.113 351.125 639.605 351.125C641.559 351.125 643.375 351.359 645.055 351.828V353.82C643.375 353.195 641.559 352.883 639.605 352.883C636.559 352.883 635.035 353.898 635.035 355.93C635.035 357.727 636.066 358.625 638.129 358.625H640.285C643.855 358.625 645.641 360.148 645.641 363.195C645.641 366.477 643.477 368.117 639.148 368.117C637.109 368.117 635.211 367.883 633.453 367.414ZM659.762 351.242V353H650.973V358.625H659.352V360.383H650.973V366.242H659.938V368H648.805V351.242H659.762ZM663.219 368V351.242H670.367C673.555 351.242 675.148 352.582 675.148 355.262C675.148 357.441 673.59 359.055 670.473 360.102L676.227 368H673.367L668.035 360.465V359.047C671.238 358.539 672.84 357.309 672.84 355.355C672.84 353.809 671.949 353.035 670.168 353.035H665.387V368H663.219ZM678.523 368V351.242H680.691L690.945 364.742V351.242H692.996V368H690.828L680.574 354.383V368H678.523ZM697.543 368H695.293L702.406 351.242H704.809L711.957 368H709.555L707.387 362.727H701.844L702.441 360.969H706.66L703.531 353.375L697.543 368ZM714.242 368V351.242H716.996L723.148 365.223L729.184 351.242H731.82V368H729.887V354.254L723.934 368H722.223L716.176 354.254V368H714.242ZM746.762 351.242V353H737.973V358.625H746.352V360.383H737.973V366.242H746.938V368H735.805V351.242H746.762ZM752.152 355.695V357.863H749.984V355.695H752.152ZM752.152 365.832V368H749.984V365.832H752.152Z" fill="white"/>
<path d="M615.992 462V445.242H622.789C626.211 445.242 627.922 446.738 627.922 449.73C627.922 452.988 625.582 454.977 620.902 455.695L620.457 453.867C623.895 453.359 625.613 452.012 625.613 449.824C625.613 447.965 624.605 447.035 622.59 447.035H618.16V462H615.992ZM631.355 462H629.105L636.219 445.242H638.621L645.77 462H643.367L641.199 456.727H635.656L636.254 454.969H640.473L637.344 447.375L631.355 462ZM647.82 461.414V459.422C649.578 460.047 651.477 460.359 653.516 460.359C656.398 460.359 657.84 459.305 657.84 457.195C657.84 455.398 656.777 454.5 654.652 454.5H652.496C648.988 454.5 647.234 452.977 647.234 449.93C647.234 446.727 649.48 445.125 653.973 445.125C655.926 445.125 657.742 445.359 659.422 445.828V447.82C657.742 447.195 655.926 446.883 653.973 446.883C650.926 446.883 649.402 447.898 649.402 449.93C649.402 451.727 650.434 452.625 652.496 452.625H654.652C658.223 452.625 660.008 454.148 660.008 457.195C660.008 460.477 657.844 462.117 653.516 462.117C651.477 462.117 649.578 461.883 647.82 461.414ZM662.938 461.414V459.422C664.695 460.047 666.594 460.359 668.633 460.359C671.516 460.359 672.957 459.305 672.957 457.195C672.957 455.398 671.895 454.5 669.77 454.5H667.613C664.105 454.5 662.352 452.977 662.352 449.93C662.352 446.727 664.598 445.125 669.09 445.125C671.043 445.125 672.859 445.359 674.539 445.828V447.82C672.859 447.195 671.043 446.883 669.09 446.883C666.043 446.883 664.52 447.898 664.52 449.93C664.52 451.727 665.551 452.625 667.613 452.625H669.77C673.34 452.625 675.125 454.148 675.125 457.195C675.125 460.477 672.961 462.117 668.633 462.117C666.594 462.117 664.695 461.883 662.938 461.414ZM676.883 445.242H678.98L681.336 459.82L686.07 445.242H688.238L693.312 459.82L695.973 445.242H697.977L694.824 462H691.871L687.137 447.961L682.555 462H679.637L676.883 445.242ZM702.254 453.574C702.254 458.098 704.297 460.359 708.383 460.359C712.383 460.359 714.383 458.098 714.383 453.574C714.383 449.113 712.383 446.883 708.383 446.883C704.297 446.883 702.254 449.113 702.254 453.574ZM699.969 453.645C699.969 447.965 702.773 445.125 708.383 445.125C713.906 445.125 716.668 447.965 716.668 453.645C716.668 459.293 713.906 462.117 708.383 462.117C702.773 462.117 699.969 459.293 699.969 453.645ZM720.078 462V445.242H727.227C730.414 445.242 732.008 446.582 732.008 449.262C732.008 451.441 730.449 453.055 727.332 454.102L733.086 462H730.227L724.895 454.465V453.047C728.098 452.539 729.699 451.309 729.699 449.355C729.699 447.809 728.809 447.035 727.027 447.035H722.246V462H720.078ZM741.477 460.242C745.578 460.242 747.629 457.883 747.629 453.164C747.629 449.055 745.578 447 741.477 447H737.551V460.242H741.477ZM735.383 462V445.242H741.477C747.023 445.242 749.797 447.883 749.797 453.164C749.797 459.055 747.023 462 741.477 462H735.383ZM754.895 449.695V451.863H752.727V449.695H754.895ZM754.895 459.832V462H752.727V459.832H754.895Z" fill="white"/>
<rect y="838" width="1912" height="60" fill="#423ABA"/>
<path d="M44.543 877H42.293L49.4062 860.242H51.8086L58.957 877H56.5547L54.3867 871.727H48.8438L49.4414 869.969H53.6602L50.5312 862.375L44.543 877ZM63.4102 860.242V875.242H72.1758V877H61.2422V860.242H63.4102ZM76.9336 860.242V875.242H85.6992V877H74.7656V860.242H76.9336ZM94.1484 877V860.242H101.297C104.484 860.242 106.078 861.582 106.078 864.262C106.078 866.441 104.52 868.055 101.402 869.102L107.156 877H104.297L98.9648 869.465V868.047C102.168 867.539 103.77 866.309 103.77 864.355C103.77 862.809 102.879 862.035 101.098 862.035H96.3164V877H94.1484ZM111.973 860.242V877H109.805V860.242H111.973ZM128.977 876.344C127.625 876.859 126.168 877.117 124.605 877.117C118.535 877.117 115.5 874.207 115.5 868.387C115.5 862.879 118.43 860.125 124.289 860.125C125.969 860.125 127.531 860.359 128.977 860.828V862.703C127.531 862.156 126.047 861.883 124.523 861.883C119.953 861.883 117.668 864.051 117.668 868.387C117.668 873.035 119.918 875.359 124.418 875.359C125.137 875.359 125.934 875.266 126.809 875.078V869.383H128.977V876.344ZM132.562 877V860.242H134.73V867.625H144.633V860.242H146.801V877H144.633V869.383H134.73V877H132.562ZM162.105 860.242V862H156.832V877H154.664V862H149.391V860.242H162.105ZM164.461 876.414V874.422C166.219 875.047 168.117 875.359 170.156 875.359C173.039 875.359 174.48 874.305 174.48 872.195C174.48 870.398 173.418 869.5 171.293 869.5H169.137C165.629 869.5 163.875 867.977 163.875 864.93C163.875 861.727 166.121 860.125 170.613 860.125C172.566 860.125 174.383 860.359 176.062 860.828V862.82C174.383 862.195 172.566 861.883 170.613 861.883C167.566 861.883 166.043 862.898 166.043 864.93C166.043 866.727 167.074 867.625 169.137 867.625H171.293C174.863 867.625 176.648 869.148 176.648 872.195C176.648 875.477 174.484 877.117 170.156 877.117C168.117 877.117 166.219 876.883 164.461 876.414ZM185.672 877V860.242H192.82C196.008 860.242 197.602 861.582 197.602 864.262C197.602 866.441 196.043 868.055 192.926 869.102L198.68 877H195.82L190.488 869.465V868.047C193.691 867.539 195.293 866.309 195.293 864.355C195.293 862.809 194.402 862.035 192.621 862.035H187.84V877H185.672ZM211.934 860.242V862H203.145V867.625H211.523V869.383H203.145V875.242H212.109V877H200.977V860.242H211.934ZM215.156 876.414V874.422C216.914 875.047 218.812 875.359 220.852 875.359C223.734 875.359 225.176 874.305 225.176 872.195C225.176 870.398 224.113 869.5 221.988 869.5H219.832C216.324 869.5 214.57 867.977 214.57 864.93C214.57 861.727 216.816 860.125 221.309 860.125C223.262 860.125 225.078 860.359 226.758 860.828V862.82C225.078 862.195 223.262 861.883 221.309 861.883C218.262 861.883 216.738 862.898 216.738 864.93C216.738 866.727 217.77 867.625 219.832 867.625H221.988C225.559 867.625 227.344 869.148 227.344 872.195C227.344 875.477 225.18 877.117 220.852 877.117C218.812 877.117 216.914 876.883 215.156 876.414ZM241.465 860.242V862H232.676V867.625H241.055V869.383H232.676V875.242H241.641V877H230.508V860.242H241.465ZM244.922 877V860.242H252.07C255.258 860.242 256.852 861.582 256.852 864.262C256.852 866.441 255.293 868.055 252.176 869.102L257.93 877H255.07L249.738 869.465V868.047C252.941 867.539 254.543 866.309 254.543 864.355C254.543 862.809 253.652 862.035 251.871 862.035H247.09V877H244.922ZM275.191 860.242L268.078 877H265.676L258.527 860.242H260.812L266.953 874.75L272.941 860.242H275.191ZM288.434 860.242V862H279.645V867.625H288.023V869.383H279.645V875.242H288.609V877H277.477V860.242H288.434ZM297.984 875.242C302.086 875.242 304.137 872.883 304.137 868.164C304.137 864.055 302.086 862 297.984 862H294.059V875.242H297.984ZM291.891 877V860.242H297.984C303.531 860.242 306.305 862.883 306.305 868.164C306.305 874.055 303.531 877 297.984 877H291.891ZM316.324 868.574C316.324 873.566 318.758 876.062 323.625 876.062C328.719 876.062 331.266 873.566 331.266 868.574C331.266 863.645 328.797 861.18 323.859 861.18C318.836 861.18 316.324 863.645 316.324 868.574ZM315.094 868.527C315.094 862.926 318.016 860.125 323.859 860.125C329.617 860.125 332.496 862.926 332.496 868.527C332.496 874.254 329.617 877.117 323.859 877.117C318.016 877.117 315.094 874.254 315.094 868.527ZM327.199 873.062C326.223 873.461 325.09 873.66 323.801 873.66C320.551 873.66 318.926 871.93 318.926 868.469C318.926 865.219 320.551 863.594 323.801 863.594C325.09 863.594 326.223 863.793 327.199 864.191V865.34C326.223 864.887 325.145 864.66 323.965 864.66C321.426 864.66 320.156 865.93 320.156 868.469C320.156 871.219 321.426 872.594 323.965 872.594C325.145 872.594 326.223 872.367 327.199 871.914V873.062Z" fill="white"/>
<path d="M1342.09 875.242C1346.19 875.242 1348.24 872.883 1348.24 868.164C1348.24 864.055 1346.19 862 1342.09 862H1338.16V875.242H1342.09ZM1335.99 877V860.242H1342.09C1347.63 860.242 1350.41 862.883 1350.41 868.164C1350.41 874.055 1347.63 877 1342.09 877H1335.99ZM1356.09 860.242V877H1353.92V860.242H1356.09ZM1360.2 876.414V874.422C1361.96 875.047 1363.86 875.359 1365.9 875.359C1368.78 875.359 1370.22 874.305 1370.22 872.195C1370.22 870.398 1369.16 869.5 1367.04 869.5H1364.88C1361.37 869.5 1359.62 867.977 1359.62 864.93C1359.62 861.727 1361.86 860.125 1366.36 860.125C1368.31 860.125 1370.12 860.359 1371.8 860.828V862.82C1370.12 862.195 1368.31 861.883 1366.36 861.883C1363.31 861.883 1361.79 862.898 1361.79 864.93C1361.79 866.727 1362.82 867.625 1364.88 867.625H1367.04C1370.61 867.625 1372.39 869.148 1372.39 872.195C1372.39 875.477 1370.23 877.117 1365.9 877.117C1363.86 877.117 1361.96 876.883 1360.2 876.414ZM1388.21 876.414C1386.77 876.883 1385.2 877.117 1383.52 877.117C1377.66 877.117 1374.73 874.207 1374.73 868.387C1374.73 862.879 1377.66 860.125 1383.52 860.125C1385.2 860.125 1386.77 860.359 1388.21 860.828V862.703C1386.77 862.156 1385.28 861.883 1383.76 861.883C1379.19 861.883 1376.9 864.051 1376.9 868.387C1376.9 873.035 1379.19 875.359 1383.76 875.359C1385.28 875.359 1386.77 875.086 1388.21 874.539V876.414ZM1393.96 860.242V875.242H1402.73V877H1391.8V860.242H1393.96ZM1405.87 877H1403.62L1410.73 860.242H1413.14L1420.29 877H1417.88L1415.71 871.727H1410.17L1410.77 869.969H1414.99L1411.86 862.375L1405.87 877ZM1425.09 860.242V877H1422.92V860.242H1425.09ZM1429.44 877V860.242H1432.19L1438.34 874.223L1444.38 860.242H1447.02V877H1445.08V863.254L1439.13 877H1437.42L1431.37 863.254V877H1429.44ZM1461.96 860.242V862H1453.17V867.625H1461.55V869.383H1453.17V875.242H1462.13V877H1451V860.242H1461.96ZM1465.41 877V860.242H1472.56C1475.75 860.242 1477.34 861.582 1477.34 864.262C1477.34 866.441 1475.79 868.055 1472.67 869.102L1478.42 877H1475.56L1470.23 869.465V868.047C1473.43 867.539 1475.04 866.309 1475.04 864.355C1475.04 862.809 1474.14 862.035 1472.36 862.035H1467.58V877H1465.41Z" fill="white"/>
<path d="M1556.3 861.242V863H1551.03V878H1548.86V863H1543.59V861.242H1556.3ZM1569.85 861.242V863H1561.06V868.625H1569.44V870.383H1561.06V876.242H1570.02V878H1558.89V861.242H1569.85ZM1573.3 878V861.242H1580.45C1583.64 861.242 1585.23 862.582 1585.23 865.262C1585.23 867.441 1583.68 869.055 1580.56 870.102L1586.31 878H1583.45L1578.12 870.465V869.047C1581.32 868.539 1582.93 867.309 1582.93 865.355C1582.93 863.809 1582.04 863.035 1580.25 863.035H1575.47V878H1573.3ZM1588.61 878V861.242H1591.36L1597.52 875.223L1603.55 861.242H1606.19V878H1604.25V864.254L1598.3 878H1596.59L1590.54 864.254V878H1588.61ZM1609.94 877.414V875.422C1611.7 876.047 1613.59 876.359 1615.63 876.359C1618.52 876.359 1619.96 875.305 1619.96 873.195C1619.96 871.398 1618.89 870.5 1616.77 870.5H1614.61C1611.11 870.5 1609.35 868.977 1609.35 865.93C1609.35 862.727 1611.6 861.125 1616.09 861.125C1618.04 861.125 1619.86 861.359 1621.54 861.828V863.82C1619.86 863.195 1618.04 862.883 1616.09 862.883C1613.04 862.883 1611.52 863.898 1611.52 865.93C1611.52 867.727 1612.55 868.625 1614.61 868.625H1616.77C1620.34 868.625 1622.12 870.148 1622.12 873.195C1622.12 876.477 1619.96 878.117 1615.63 878.117C1613.59 878.117 1611.7 877.883 1609.94 877.414ZM1630.33 865.754C1630.33 862.746 1632.32 861.242 1636.3 861.242C1637.75 861.242 1639.16 861.438 1640.52 861.828V863.586C1639.16 863.195 1637.8 863 1636.46 863C1633.82 863 1632.5 863.898 1632.5 865.695C1632.5 867.648 1633.49 868.625 1635.48 868.625H1640.03V866.961H1640.77L1641.96 868.625H1644.1V870.383H1642.2V872.258C1642.2 876.109 1640.18 878.035 1636.13 878.035C1632.26 878.035 1630.33 876.484 1630.33 873.383C1630.33 871.453 1631.08 870.152 1632.59 869.48C1631.08 868.816 1630.33 867.574 1630.33 865.754ZM1635.51 870.383C1633.5 870.383 1632.5 871.363 1632.5 873.324C1632.5 875.27 1633.67 876.242 1636.02 876.242C1638.7 876.242 1640.03 874.906 1640.03 872.234V870.383H1635.51ZM1664.62 877.414C1663.17 877.883 1661.61 878.117 1659.93 878.117C1654.07 878.117 1651.14 875.207 1651.14 869.387C1651.14 863.879 1654.07 861.125 1659.93 861.125C1661.61 861.125 1663.17 861.359 1664.62 861.828V863.703C1663.17 863.156 1661.69 862.883 1660.16 862.883C1655.59 862.883 1653.31 865.051 1653.31 869.387C1653.31 874.035 1655.59 876.359 1660.16 876.359C1661.69 876.359 1663.17 876.086 1664.62 875.539V877.414ZM1669.9 869.574C1669.9 874.098 1671.95 876.359 1676.03 876.359C1680.03 876.359 1682.03 874.098 1682.03 869.574C1682.03 865.113 1680.03 862.883 1676.03 862.883C1671.95 862.883 1669.9 865.113 1669.9 869.574ZM1667.62 869.645C1667.62 863.965 1670.42 861.125 1676.03 861.125C1681.55 861.125 1684.32 863.965 1684.32 869.645C1684.32 875.293 1681.55 878.117 1676.03 878.117C1670.42 878.117 1667.62 875.293 1667.62 869.645ZM1687.73 878V861.242H1689.89L1700.15 874.742V861.242H1702.2V878H1700.03L1689.78 864.383V878H1687.73ZM1712.29 876.242C1716.39 876.242 1718.44 873.883 1718.44 869.164C1718.44 865.055 1716.39 863 1712.29 863H1708.36V876.242H1712.29ZM1706.2 878V861.242H1712.29C1717.84 861.242 1720.61 863.883 1720.61 869.164C1720.61 875.055 1717.84 878 1712.29 878H1706.2ZM1726.29 861.242V878H1724.12V861.242H1726.29ZM1741.95 861.242V863H1736.68V878H1734.51V863H1729.23V861.242H1741.95ZM1747.06 861.242V878H1744.89V861.242H1747.06ZM1753.11 869.574C1753.11 874.098 1755.15 876.359 1759.23 876.359C1763.23 876.359 1765.23 874.098 1765.23 869.574C1765.23 865.113 1763.23 862.883 1759.23 862.883C1755.15 862.883 1753.11 865.113 1753.11 869.574ZM1750.82 869.645C1750.82 863.965 1753.62 861.125 1759.23 861.125C1764.76 861.125 1767.52 863.965 1767.52 869.645C1767.52 875.293 1764.76 878.117 1759.23 878.117C1753.62 878.117 1750.82 875.293 1750.82 869.645ZM1770.93 878V861.242H1773.1L1783.35 874.742V861.242H1785.4V878H1783.23L1772.98 864.383V878H1770.93ZM1789.16 877.414V875.422C1790.92 876.047 1792.82 876.359 1794.86 876.359C1797.74 876.359 1799.18 875.305 1799.18 873.195C1799.18 871.398 1798.12 870.5 1796 870.5H1793.84C1790.33 870.5 1788.58 868.977 1788.58 865.93C1788.58 862.727 1790.82 861.125 1795.32 861.125C1797.27 861.125 1799.09 861.359 1800.77 861.828V863.82C1799.09 863.195 1797.27 862.883 1795.32 862.883C1792.27 862.883 1790.75 863.898 1790.75 865.93C1790.75 867.727 1791.78 868.625 1793.84 868.625H1796C1799.57 868.625 1801.35 870.148 1801.35 873.195C1801.35 876.477 1799.19 878.117 1794.86 878.117C1792.82 878.117 1790.92 877.883 1789.16 877.414Z" fill="white"/>
<rect width="1912" height="103" fill="#423ABA"/>
<path d="M1500.99 59V42.2422H1508.14C1511.33 42.2422 1512.92 43.582 1512.92 46.2617C1512.92 48.4414 1511.36 50.0547 1508.25 51.1016L1514 59H1511.14L1505.81 51.4648V50.0469C1509.01 49.5391 1510.61 48.3086 1510.61 46.3555C1510.61 44.8086 1509.72 44.0352 1507.94 44.0352H1503.16V59H1500.99ZM1527.25 42.2422V44H1518.46V49.625H1526.84V51.3828H1518.46V57.2422H1527.43V59H1516.3V42.2422H1527.25ZM1543.37 58.3438C1542.02 58.8594 1540.56 59.1172 1539 59.1172C1532.93 59.1172 1529.89 56.207 1529.89 50.3867C1529.89 44.8789 1532.82 42.125 1538.68 42.125C1540.36 42.125 1541.92 42.3594 1543.37 42.8281V44.7031C1541.92 44.1562 1540.44 43.8828 1538.91 43.8828C1534.34 43.8828 1532.06 46.0508 1532.06 50.3867C1532.06 55.0352 1534.31 57.3594 1538.81 57.3594C1539.53 57.3594 1540.32 57.2656 1541.2 57.0781V51.3828H1543.37V58.3438ZM1549.47 42.2422V59H1547.3V42.2422H1549.47ZM1553.59 58.4141V56.4219C1555.34 57.0469 1557.24 57.3594 1559.28 57.3594C1562.16 57.3594 1563.61 56.3047 1563.61 54.1953C1563.61 52.3984 1562.54 51.5 1560.42 51.5H1558.26C1554.75 51.5 1553 49.9766 1553 46.9297C1553 43.7266 1555.25 42.125 1559.74 42.125C1561.69 42.125 1563.51 42.3594 1565.19 42.8281V44.8203C1563.51 44.1953 1561.69 43.8828 1559.74 43.8828C1556.69 43.8828 1555.17 44.8984 1555.17 46.9297C1555.17 48.7266 1556.2 49.625 1558.26 49.625H1560.42C1563.99 49.625 1565.77 51.1484 1565.77 54.1953C1565.77 57.4766 1563.61 59.1172 1559.28 59.1172C1557.24 59.1172 1555.34 58.8828 1553.59 58.4141ZM1580.25 42.2422V44H1574.97V59H1572.8V44H1567.53V42.2422H1580.25ZM1593.79 42.2422V44H1585V49.625H1593.38V51.3828H1585V57.2422H1593.97V59H1582.84V42.2422H1593.79ZM1597.25 59V42.2422H1604.4C1607.59 42.2422 1609.18 43.582 1609.18 46.2617C1609.18 48.4414 1607.62 50.0547 1604.5 51.1016L1610.26 59H1607.4L1602.07 51.4648V50.0469C1605.27 49.5391 1606.87 48.3086 1606.87 46.3555C1606.87 44.8086 1605.98 44.0352 1604.2 44.0352H1599.42V59H1597.25Z" fill="white"/>
<path d="M1676.76 58.4141V56.4219C1678.52 57.0469 1680.41 57.3594 1682.45 57.3594C1685.34 57.3594 1686.78 56.3047 1686.78 54.1953C1686.78 52.3984 1685.71 51.5 1683.59 51.5H1681.43C1677.93 51.5 1676.17 49.9766 1676.17 46.9297C1676.17 43.7266 1678.42 42.125 1682.91 42.125C1684.86 42.125 1686.68 42.3594 1688.36 42.8281V44.8203C1686.68 44.1953 1684.86 43.8828 1682.91 43.8828C1679.86 43.8828 1678.34 44.8984 1678.34 46.9297C1678.34 48.7266 1679.37 49.625 1681.43 49.625H1683.59C1687.16 49.625 1688.95 51.1484 1688.95 54.1953C1688.95 57.4766 1686.78 59.1172 1682.45 59.1172C1680.41 59.1172 1678.52 58.8828 1676.76 58.4141ZM1694.63 42.2422V59H1692.46V42.2422H1694.63ZM1711.63 58.3438C1710.28 58.8594 1708.82 59.1172 1707.26 59.1172C1701.19 59.1172 1698.16 56.207 1698.16 50.3867C1698.16 44.8789 1701.09 42.125 1706.95 42.125C1708.62 42.125 1710.19 42.3594 1711.63 42.8281V44.7031C1710.19 44.1562 1708.7 43.8828 1707.18 43.8828C1702.61 43.8828 1700.32 46.0508 1700.32 50.3867C1700.32 55.0352 1702.57 57.3594 1707.07 57.3594C1707.79 57.3594 1708.59 57.2656 1709.46 57.0781V51.3828H1711.63V58.3438ZM1715.22 59V42.2422H1717.39L1727.64 55.7422V42.2422H1729.69V59H1727.52L1717.27 45.3828V59H1715.22ZM1742.07 42.2422V59H1739.9V42.2422H1742.07ZM1746.41 59V42.2422H1748.58L1758.84 55.7422V42.2422H1760.89V59H1758.72L1748.46 45.3828V59H1746.41Z" fill="white"/>
<rect width="385" height="373" transform="translate(1420 312)" fill="white"/>
<path d="M1606.59 685C1709.64 685 1793.18 658.988 1793.18 626.901C1793.18 594.813 1709.64 568.801 1606.59 568.801C1503.54 568.801 1420 594.813 1420 626.901C1420 658.988 1503.54 685 1606.59 685Z" fill="#F5F5F5"/>
<path d="M1707.76 498.581C1707.76 498.581 1684.66 516.383 1690.76 550.353C1696.86 584.324 1658.32 631.698 1658.32 631.698C1658.32 631.698 1658.65 631.698 1659.27 631.698C1700.99 631.475 1729.05 584.761 1712.44 543.053C1706.27 527.55 1701.97 509.899 1707.76 498.581Z" fill="#433BBC"/>
<path d="M1707.76 498.581C1707.76 498.581 1692.5 522.843 1700.23 546.411C1707.96 569.979 1689.27 628.582 1658.33 631.698" stroke="#535461" stroke-miterlimit="10"/>
<path d="M1729.2 592.071C1729.2 592.071 1707.32 583.963 1701.81 605.555C1696.3 627.148 1654.6 622.469 1654.6 622.469C1654.6 622.469 1654.84 622.721 1655.29 623.172C1685.49 653.875 1719.41 651.12 1719.59 617.876C1719.66 605.522 1721.71 593.496 1729.2 592.071Z" fill="#433BBC"/>
<path opacity="0.2" d="M1729.2 592.071C1729.2 592.071 1707.32 583.963 1701.81 605.555C1696.3 627.148 1654.6 622.469 1654.6 622.469C1654.6 622.469 1654.84 622.721 1655.29 623.172C1685.49 653.875 1719.41 651.12 1719.59 617.876C1719.66 605.522 1721.71 593.496 1729.2 592.071Z" fill="#F5F5F5"/>
<path d="M1729.2 592.071C1729.2 592.071 1711.08 592.987 1709.79 610.557C1708.5 628.126 1677.88 643.748 1654.6 622.469" stroke="#535461" stroke-miterlimit="10"/>
<path d="M1690.78 542.777C1692.09 535.653 1691.79 525.275 1681.09 520.221C1686.81 510.203 1684.12 503.122 1678.95 500.609C1678.92 497.997 1678.29 492.696 1674.08 489.851C1674.64 484.92 1675.55 465.323 1655.23 463.128C1652.84 458.645 1645.38 446.504 1633.22 443.141V425.567C1630.3 432.269 1611.87 436.097 1611.87 436.097C1590.75 439.313 1586.01 452.318 1584.94 457.999C1582.22 458.089 1579.83 458.474 1578.48 459.395C1574.05 462.411 1542.45 471.412 1544.92 495.275C1544.49 495.436 1544.08 495.598 1543.65 495.75C1543.65 495.75 1526.36 510.783 1531.01 522.738L1529.27 522.876C1529.27 522.876 1519.25 529.63 1522.33 542.939C1521.92 543.423 1521.63 544.01 1521.47 544.647C1521.32 545.284 1521.32 545.951 1521.46 546.591L1545.29 633.175C1545.45 633.779 1545.79 634.308 1546.25 634.676C1547.33 635.493 1549.56 637.122 1552.82 639.098L1552.85 639.236L1552.99 639.203C1556.71 641.435 1560.54 643.426 1564.47 645.164V645.263L1564.61 645.235C1567.37 646.456 1570.4 647.653 1573.67 648.754V648.83H1573.82C1576.85 649.842 1580.08 650.773 1583.5 651.562V651.609H1583.65C1586.86 652.345 1590.24 652.953 1593.77 653.39H1593.91C1598.25 653.92 1602.61 654.162 1606.98 654.112H1607.27C1611.36 654.05 1615.45 653.732 1619.5 653.162H1619.65V653.134C1622.93 652.671 1626.28 652.024 1629.71 651.191L1629.68 651.562L1629.97 651.595L1630.01 651.12C1633.43 650.271 1636.92 649.212 1640.47 647.942H1640.62V647.866C1643.57 646.799 1646.56 645.574 1649.59 644.19L1649.73 644.218V644.114C1653.25 642.496 1656.81 640.642 1660.41 638.552L1660.56 638.585L1660.58 638.452C1662.62 637.265 1664.67 635.998 1666.73 634.652C1667.28 634.293 1667.68 633.724 1667.87 633.056L1691.62 546.406C1691.76 545.768 1691.76 545.102 1691.6 544.467C1691.45 543.832 1691.16 543.247 1690.75 542.763L1690.78 542.777Z" fill="url(#paint0_linear)"/>
<path d="M1654.26 467.536C1654.26 467.536 1643.54 443.55 1623.22 446.01C1602.9 448.471 1624.63 471.227 1624.63 471.227C1624.63 471.227 1649.46 473.378 1654.26 467.536Z" fill="#433BBC"/>
<path opacity="0.1" d="M1654.26 467.536C1654.26 467.536 1643.54 443.55 1623.22 446.01C1602.9 448.471 1624.63 471.227 1624.63 471.227C1624.63 471.227 1649.46 473.378 1654.26 467.536Z" fill="black"/>
<path d="M1585.41 463.537C1585.41 463.537 1585.41 463.223 1585.46 462.672C1585.82 458.83 1588.71 443.355 1611.65 439.874C1611.65 439.874 1629.43 436.183 1632.25 429.723V449.406C1632.25 449.406 1628.58 463.247 1610.24 467.859C1591.9 472.471 1585.41 463.537 1585.41 463.537Z" fill="#433BBC"/>
<path d="M1532.07 523.503C1532.07 523.503 1518.79 532.423 1528.12 549.95C1537.45 567.476 1685.58 549.95 1685.58 549.95C1685.58 549.95 1695.17 528.424 1677.96 520.734C1660.76 513.044 1532.07 523.503 1532.07 523.503Z" fill="#784F69"/>
<path opacity="0.1" d="M1676.46 502.651C1676.43 500.134 1675.82 495.052 1671.76 492.287C1672.3 487.538 1673.18 468.648 1653.59 466.534C1651.29 462.212 1644.11 450.489 1632.39 447.274V430.322C1629.57 436.781 1611.79 440.472 1611.79 440.472C1591.44 443.574 1586.87 456.104 1585.84 461.575C1583.23 461.661 1580.92 462.05 1579.62 462.919C1575.35 465.826 1544.89 474.499 1547.26 497.498C1546.85 497.65 1546.44 497.811 1546.04 497.973C1546.04 497.973 1522.02 518.872 1539.43 530.419C1539.43 530.419 1547.45 547.18 1570.87 534.261L1570.95 534.209C1579.77 536.968 1603.4 542.758 1617.43 531.183L1618.44 530.352C1624.02 533.976 1637.24 540.602 1648.47 531.183L1648.57 531.103C1652.93 535.572 1661.8 541.262 1672.46 529.644C1685.23 515.746 1682.75 505.72 1676.46 502.651Z" fill="black"/>
<path d="M1645.51 526.885C1645.51 526.885 1657.08 545.642 1672.32 529.036C1687.56 512.431 1681.07 501.359 1672.32 501.051C1663.57 500.742 1645.51 526.885 1645.51 526.885Z" fill="#433BBC"/>
<path opacity="0.15" d="M1645.51 526.885C1645.51 526.885 1657.08 545.642 1672.32 529.036C1687.56 512.431 1681.07 501.359 1672.32 501.051C1663.57 500.742 1645.51 526.885 1645.51 526.885Z" fill="black"/>
<path d="M1676.27 503.516C1676.27 503.516 1679.09 477.392 1642.71 497.365C1606.33 517.338 1615.62 527.811 1615.62 527.811C1615.62 527.811 1633.68 542.882 1648.35 530.58C1663.02 518.278 1672.04 514.587 1676.27 503.516Z" fill="#433BBC"/>
<path opacity="0.1" d="M1676.27 503.516C1676.27 503.516 1679.09 477.392 1642.71 497.365C1606.33 517.338 1615.62 527.811 1615.62 527.811C1615.62 527.811 1633.68 542.882 1648.35 530.58C1663.02 518.278 1672.04 514.587 1676.27 503.516Z" fill="black"/>
<path d="M1648.34 495.517C1648.34 495.517 1634.51 485.068 1613.35 495.517C1592.19 505.967 1567.35 532.423 1567.35 532.423C1567.35 532.423 1599.8 545.048 1617.29 530.575C1634.79 516.103 1647.49 505.359 1648.34 495.517Z" fill="#433BBC"/>
<path opacity="0.07" d="M1648.34 495.517C1648.34 495.517 1634.51 485.068 1613.35 495.517C1592.19 505.967 1567.35 532.423 1567.35 532.423C1567.35 532.423 1599.8 545.048 1617.29 530.575C1634.79 516.103 1647.49 505.359 1648.34 495.517Z" fill="black"/>
<path d="M1619.84 493.983C1619.84 493.983 1591.61 489.68 1578.63 498.286C1565.66 506.893 1539.28 529.811 1539.28 529.811C1539.28 529.811 1547.29 546.573 1570.72 533.653C1570.73 533.648 1619.27 500.747 1619.84 493.983Z" fill="#433BBC"/>
<path opacity="0.03" d="M1619.84 493.983C1619.84 493.983 1591.61 489.68 1578.63 498.286C1565.66 506.893 1539.28 529.811 1539.28 529.811C1539.28 529.811 1547.29 546.573 1570.72 533.653C1570.73 533.648 1619.27 500.747 1619.84 493.983Z" fill="black"/>
<path d="M1545.9 497.365C1545.9 497.365 1520.79 519.214 1540.54 530.58C1540.54 530.58 1582.3 500.751 1583.15 497.365C1583.15 497.365 1563.69 489.984 1545.9 497.365Z" fill="#433BBC"/>
<path d="M1600.64 462.307C1600.64 462.307 1584 459.234 1579.48 462.307C1574.96 465.38 1541.1 474.917 1547.87 501.055L1558.02 497.075C1558.02 497.075 1577.51 470.301 1600.64 462.307Z" fill="#433BBC"/>
<path opacity="0.1" d="M1600.64 462.307C1600.64 462.307 1584 459.234 1579.48 462.307C1574.96 465.38 1541.1 474.917 1547.87 501.055L1558.02 497.075C1558.02 497.075 1577.51 470.301 1600.64 462.307Z" fill="black"/>
<path d="M1628.3 466.306C1628.3 466.306 1616.45 454.313 1590.2 465.385C1563.96 476.456 1555.21 496.443 1555.21 496.443L1594.58 499.673C1594.58 499.673 1616.73 465.076 1628.3 466.306Z" fill="#433BBC"/>
<path opacity="0.07" d="M1628.3 466.306C1628.3 466.306 1616.45 454.313 1590.2 465.385C1563.96 476.456 1555.21 496.443 1555.21 496.443L1594.58 499.673C1594.58 499.673 1616.73 465.076 1628.3 466.306Z" fill="black"/>
<path d="M1646.64 467.84C1646.64 467.84 1627.73 461.077 1613.08 470.301C1598.43 479.525 1593.03 497.669 1593.03 497.669L1616.45 496.439C1616.45 496.439 1634.79 465.076 1646.64 467.84Z" fill="#433BBC"/>
<path opacity="0.03" d="M1646.64 467.84C1646.64 467.84 1627.73 461.077 1613.08 470.301C1598.43 479.525 1593.03 497.669 1593.03 497.669L1616.45 496.439C1616.45 496.439 1634.79 465.076 1646.64 467.84Z" fill="black"/>
<path d="M1671.47 492.753C1671.47 492.753 1677.96 456.773 1635.07 467.845C1635.07 467.845 1610.7 491.219 1617.53 497.674C1624.36 504.128 1671.47 492.753 1671.47 492.753Z" fill="#433BBC"/>
<path opacity="0.1" d="M1524.52 545.746L1547.49 629.185C1547.65 629.763 1547.98 630.265 1548.44 630.61C1554.85 635.498 1604.18 670.176 1664.58 630.61C1665.11 630.263 1665.5 629.714 1665.67 629.071L1688.57 545.57C1688.69 545.115 1688.7 544.631 1688.6 544.169C1688.5 543.707 1688.29 543.283 1687.99 542.94C1687.68 542.596 1687.3 542.346 1686.89 542.214C1686.47 542.082 1686.02 542.073 1685.6 542.188L1675.65 544.896C1675.31 544.99 1674.96 545.003 1674.61 544.934L1665.26 543.034C1664.71 542.923 1664.14 543.018 1663.65 543.305L1652.55 549.755C1652.02 550.064 1651.39 550.149 1650.81 549.992L1638.87 546.758C1638.42 546.634 1637.94 546.652 1637.5 546.81L1623.64 551.755C1623.33 551.865 1623 551.908 1622.67 551.88C1622.35 551.853 1622.03 551.755 1621.74 551.593L1612.56 546.473C1611.98 546.148 1611.3 546.086 1610.68 546.302L1598.84 550.42C1598.54 550.523 1598.22 550.563 1597.91 550.539L1586.51 549.669C1586.34 549.657 1586.17 549.625 1586 549.574L1576.96 546.758C1576.58 546.64 1576.17 546.623 1575.78 546.71L1563.25 549.484C1562.78 549.589 1562.29 549.543 1561.85 549.351L1549.64 544.084C1549.21 543.899 1548.75 543.848 1548.3 543.936L1538.58 545.836C1538.19 545.913 1537.78 545.886 1537.4 545.756L1527.61 542.402C1527.19 542.259 1526.73 542.245 1526.3 542.361C1525.86 542.478 1525.47 542.721 1525.15 543.064C1524.83 543.407 1524.6 543.838 1524.49 544.31C1524.38 544.783 1524.39 545.279 1524.52 545.746Z" fill="black"/>
<path d="M1524.52 546.359L1547.49 629.798C1547.65 630.375 1547.98 630.877 1548.44 631.223C1554.85 636.111 1604.18 670.789 1664.58 631.223C1665.11 630.876 1665.5 630.327 1665.67 629.684L1688.57 546.183C1688.69 545.728 1688.7 545.244 1688.6 544.782C1688.5 544.32 1688.29 543.896 1687.99 543.552C1687.68 543.209 1687.3 542.958 1686.89 542.826C1686.47 542.695 1686.02 542.686 1685.6 542.801L1675.66 545.523C1675.32 545.617 1674.96 545.63 1674.62 545.561L1665.27 543.661C1664.72 543.55 1664.15 543.645 1663.66 543.932L1652.56 550.382C1652.02 550.691 1651.4 550.776 1650.82 550.619L1638.88 547.37C1638.43 547.247 1637.96 547.265 1637.51 547.423L1623.65 552.367C1623.34 552.478 1623.01 552.521 1622.69 552.493C1622.36 552.465 1622.04 552.368 1621.75 552.206L1612.57 547.076C1611.99 546.751 1611.31 546.689 1610.69 546.905L1598.85 551.023C1598.55 551.126 1598.24 551.166 1597.93 551.142L1586.51 550.273C1586.34 550.26 1586.17 550.228 1586 550.178L1576.96 547.361C1576.58 547.243 1576.17 547.227 1575.78 547.313L1563.25 550.097C1562.78 550.202 1562.29 550.156 1561.85 549.964L1549.64 544.696C1549.21 544.512 1548.75 544.461 1548.3 544.549L1538.58 546.449C1538.19 546.526 1537.78 546.498 1537.4 546.368L1527.61 543.015C1527.19 542.872 1526.73 542.858 1526.3 542.974C1525.86 543.091 1525.47 543.333 1525.15 543.677C1524.83 544.02 1524.6 544.451 1524.49 544.923C1524.38 545.395 1524.39 545.892 1524.52 546.359Z" fill="#4D4981"/>
<path opacity="0.5" d="M1549.72 516.611L1547.31 515.699L1545.97 513.348L1551.96 505.178L1554.36 506.09L1555.7 508.441L1549.72 516.611Z" fill="white"/>
<path opacity="0.5" d="M1663.44 530.452L1661.04 529.54L1659.69 527.189L1665.68 519.019L1668.08 519.926L1669.43 522.277L1663.44 530.452Z" fill="white"/>
<path opacity="0.5" d="M1613.49 485.856L1611.09 484.949L1609.75 482.598L1615.73 474.423L1618.14 475.335L1619.48 477.686L1613.49 485.856Z" fill="white"/>
<path opacity="0.5" d="M1626.97 515.903L1624.65 517.024L1622.19 516.312L1621.44 505.886L1623.76 504.765L1626.22 505.477L1626.97 515.903Z" fill="white"/>
<path opacity="0.5" d="M1587.84 490.311L1586.23 492.463L1583.74 493.038L1578.74 484.118L1580.35 481.966L1582.84 481.391L1587.84 490.311Z" fill="white"/>
<path opacity="0.5" d="M1585.02 515.528L1583.41 517.68L1580.92 518.254L1575.92 509.334L1577.52 507.183L1580.01 506.608L1585.02 515.528Z" fill="white"/>
<path opacity="0.5" d="M1654.03 517.984L1652.19 519.893L1649.65 520.116L1645.74 510.569L1647.59 508.66L1650.12 508.437L1654.03 517.984Z" fill="white"/>
<path opacity="0.5" d="M1641.46 485.267L1642.08 482.579L1644.11 480.916L1652.11 486.702L1651.48 489.39L1649.45 491.057L1641.46 485.267Z" fill="white"/>
<path opacity="0.5" d="M1556.49 489.243L1554.09 488.331L1552.74 485.98L1558.73 477.81L1561.13 478.717L1562.48 481.068L1556.49 489.243Z" fill="#FD6F8D"/>
<path opacity="0.5" d="M1586.73 473.882L1586.14 471.189L1587.24 468.686L1596.78 469.792L1597.37 472.49L1596.27 474.993L1586.73 473.882Z" fill="#FD6F8D"/>
<path opacity="0.5" d="M1632.96 458.55L1633.44 455.828L1635.38 454.033L1643.67 459.295L1643.19 462.017L1641.25 463.812L1632.96 458.55Z" fill="#FD6F8D"/>
<path opacity="0.5" d="M1614.48 444.818L1616.96 444.201L1619.24 445.421L1618.13 455.809L1615.65 456.422L1613.37 455.201L1614.48 444.818Z" fill="#FD6F8D"/>
<path opacity="0.5" d="M1597.45 526.78L1596.87 524.082L1597.96 521.579L1607.5 522.686L1608.09 525.384L1607 527.887L1597.45 526.78Z" fill="#FD6F8D"/>
<path opacity="0.5" d="M1562.18 528.751L1560.67 526.514L1560.79 523.75L1569.97 520.715L1571.48 522.952L1571.36 525.721L1562.18 528.751Z" fill="#FD6F8D"/>
<path opacity="0.5" d="M1660.94 510.227L1658.85 508.646L1658.14 505.981L1665.93 499.877L1668.01 501.459L1668.72 504.119L1660.94 510.227Z" fill="#FD6F8D"/>
<path opacity="0.5" d="M1594.9 512.379L1592.82 510.797L1592.1 508.137L1599.89 502.029L1601.98 503.611L1602.69 506.271L1594.9 512.379Z" fill="#FD6F8D"/>
<path opacity="0.1" d="M1548.31 543.936L1538.6 545.836C1538.21 545.913 1537.8 545.886 1537.42 545.756L1537.26 545.699L1554.94 634.994L1537.26 545.699L1527.63 542.402C1527.21 542.257 1526.75 542.241 1526.32 542.356C1525.88 542.47 1525.48 542.711 1525.17 543.052C1524.85 543.393 1524.62 543.822 1524.51 544.293C1524.39 544.764 1524.4 545.26 1524.52 545.727L1547.49 629.166C1547.65 629.744 1547.99 630.246 1548.44 630.591C1550.45 632.125 1556.68 636.586 1566.15 640.765L1549.02 543.87C1548.78 543.854 1548.55 543.877 1548.31 543.936Z" fill="black"/>
<path opacity="0.1" d="M1685.61 542.198L1675.66 544.905C1675.32 544.999 1674.96 545.012 1674.62 544.943L1665.27 543.043C1664.98 542.987 1664.68 542.987 1664.4 543.043L1648.05 639.796L1664.39 543.048C1664.13 543.097 1663.88 543.19 1663.66 543.324L1652.56 549.774C1652.05 550.067 1651.47 550.159 1650.91 550.035L1639.26 643.397C1645.9 640.995 1652.34 637.975 1658.5 634.372L1676.33 544.72L1658.5 634.344C1660.52 633.172 1662.55 631.918 1664.6 630.582C1665.13 630.235 1665.52 629.686 1665.69 629.043L1688.59 545.542C1688.7 545.088 1688.71 544.608 1688.6 544.151C1688.5 543.693 1688.28 543.274 1687.98 542.936C1687.68 542.597 1687.3 542.351 1686.89 542.221C1686.47 542.092 1686.03 542.084 1685.61 542.198Z" fill="black"/>
<path d="M1650.8 550.007L1638.87 546.758C1638.64 546.696 1638.4 546.67 1638.17 546.682L1629.06 646.494C1632.4 645.667 1635.81 644.635 1639.28 643.397L1650.92 550.035L1650.8 550.007Z" fill="#4D4981"/>
<g opacity="0.5">
<path opacity="0.5" d="M1537.4 546.273L1537.12 546.338L1554.81 635.615L1555.08 635.55L1537.4 546.273Z" fill="white"/>
<path opacity="0.5" d="M1562.7 550.218L1562.42 550.262L1574.91 644.848L1575.19 644.804L1562.7 550.218Z" fill="white"/>
<path opacity="0.5" d="M1549.13 544.403L1548.85 544.461L1565.99 641.455L1566.27 641.397L1549.13 544.403Z" fill="white"/>
<path opacity="0.5" d="M1576.52 547.17L1576.24 547.197L1584.37 647.525L1584.65 647.498L1576.52 547.17Z" fill="white"/>
<path opacity="0.5" d="M1591.88 550.688L1591.6 550.698L1594.25 649.265L1594.53 649.256L1591.88 550.688Z" fill="white"/>
<path opacity="0.5" d="M1606.66 548.361L1606.37 548.363L1606.97 649.963L1607.26 649.961L1606.66 548.361Z" fill="white"/>
<path opacity="0.5" d="M1622.54 552.72L1618.91 649.036L1619.19 649.048L1622.82 552.733L1622.54 552.72Z" fill="white"/>
<path opacity="0.5" d="M1638.05 547.16L1628.83 647.486L1629.11 647.517L1638.33 547.191L1638.05 547.16Z" fill="white"/>
<path opacity="0.5" d="M1648.99 548.572L1637.65 642.711L1637.93 642.751L1649.27 548.612L1648.99 548.572Z" fill="white"/>
<path opacity="0.5" d="M1664.28 543.435L1647.88 640.349L1648.16 640.405L1664.56 543.491L1664.28 543.435Z" fill="white"/>
<path opacity="0.5" d="M1676.17 545.296L1658.39 634.96L1658.67 635.025L1676.44 545.361L1676.17 545.296Z" fill="white"/>
</g>
<path d="M365.344 642.479C409.765 641.886 454.185 642.226 498.603 643.5C502.424 643.609 506.389 643.75 509.764 644.896C513.138 646.042 515.735 648.499 514.812 650.861C497.472 651.441 480.115 651.621 462.74 651.399C458.956 653.498 454.802 656.658 457.127 659.488C458.736 661.447 462.709 662.03 466.182 662.034C472.473 662.042 478.79 660.873 484.988 661.559C491.187 662.245 497.371 665.936 495.556 669.768C494.177 672.678 488.946 674.119 484.185 674.376C479.425 674.633 474.55 674.098 469.897 674.787C465.475 675.442 461.644 677.144 457.506 678.331C450.978 680.205 443.741 680.784 436.621 681.276C381.951 685.058 326.827 685.028 271.835 684.994C249.571 684.98 227.006 684.942 205.507 681.262C193.252 679.164 181.509 675.907 169.1 674.217C154.277 672.198 138.957 672.472 123.799 672.532C97.188 672.638 70.5994 672.058 44.0332 670.79C42.0562 670.696 39.6296 670.376 39.0961 669.162C38.4734 667.744 41.0004 666.638 43.1363 666.072C55.2395 662.9 67.5462 660.822 79.9401 659.857C86.217 659.357 92.6851 659.103 98.4582 657.458C104.231 655.813 109.275 652.363 109.221 648.339C109.204 647.111 108.747 645.798 109.651 644.714C110.853 643.274 113.809 642.944 116.359 642.787C144.633 641.047 173.061 640.32 201.463 640.612C211.454 640.715 221.486 640.942 231.406 640.18C239.534 639.556 247.495 638.274 255.505 637.198C266.258 635.753 313.052 628.271 319.879 634.342C324.989 638.887 314.439 639.868 328.144 641.723C340.077 643.338 353.241 642.641 365.344 642.479Z" fill="#F2F2F2"/>
<path d="M165.98 621.36C165.98 621.36 148.157 658.477 163.325 658.477C178.494 658.477 369.617 659.275 374.926 648.898C378.645 641.628 376.594 615.747 375.033 600.902C374.73 598.017 373.388 595.363 371.283 593.488C369.178 591.612 366.47 590.656 363.717 590.817C322.382 593.218 167.962 602.116 168.634 601.006C169.961 598.811 169.013 599.409 169.013 599.409C169.013 599.409 162.946 619.763 165.98 621.36Z" fill="#3F3D56"/>
<path opacity="0.1" d="M375.412 600.902C375.109 598.017 373.767 595.363 371.662 593.487C369.557 591.612 366.85 590.656 364.096 590.817C322.761 593.218 168.342 602.116 169.013 601.006C170.34 598.81 169.392 599.409 169.392 599.409C169.392 599.409 168.038 603.953 166.929 608.915C167.086 608.899 167.204 609.055 166.692 610.003C166.646 610.217 166.601 610.431 166.557 610.645C172.742 611.288 321.059 602.741 361.441 600.395C364.195 600.234 366.903 601.19 369.008 603.066C371.113 604.942 372.455 607.595 372.758 610.48C373.919 621.518 375.349 638.653 374.479 649.707C374.814 649.515 375.099 649.237 375.305 648.898C379.024 641.628 376.974 615.747 375.412 600.902Z" fill="black"/>
<path d="M187.223 565.735C185.247 565.098 182.747 564.275 182.972 562.933C183.092 562.22 183.998 561.664 184.655 561.066C185.921 559.914 186.263 558.291 184.903 557.178C183.543 556.065 180.267 555.916 179.067 557.094C178.45 557.7 178.487 558.459 178.168 559.144C177.174 561.278 173.152 562.215 169.735 563.045C166.318 563.874 162.495 565.417 162.817 567.625C163.167 570.034 168.438 572.171 166.317 574.225C165.548 574.97 163.93 575.386 163.586 576.238C163.344 576.838 163.83 577.447 164.303 577.995L167.659 581.887C168.995 583.435 170.371 585.12 169.924 586.844C169.037 590.261 161.831 591.568 156.119 591.184C154.027 591.043 151.569 590.851 150.132 591.776C149.024 592.489 149.026 593.599 149.394 594.55C150.341 596.996 153.373 599.114 157.253 600.041C152.904 600.944 151.197 604.75 154.199 606.847C152.481 607.469 150.623 607.525 148.874 607.008C147.389 608.446 148.262 610.421 150.146 611.679C152.029 612.938 154.697 613.646 157.28 614.318L154.863 616.697C156.612 618.135 160.39 617.629 162.938 616.72C165.486 615.811 168.251 614.59 171.105 615.066C173.782 615.512 175.807 617.391 178.533 617.07C180.646 616.82 181.651 615.391 182.31 614.158L185.107 608.915C189.09 609.571 193.278 606.699 191.678 604.408C196.135 604.912 200.522 601.866 199.059 599.284C201.432 601.21 203.103 603.448 203.921 605.796C204.286 606.844 204.509 607.953 205.504 608.842C206.154 609.351 206.908 609.695 207.706 609.847C208.503 609.999 209.324 609.955 210.103 609.718C209.29 611.376 208.632 613.311 210.302 614.719C211.972 616.126 216.791 615.727 216.578 614.002C219.125 615.154 221.979 616.237 225.162 616.323C228.345 616.408 231.828 615.134 232.118 613.225C236.604 614.782 241.296 615.576 246.019 615.58C246.421 614.302 249.227 613.889 251.325 614.201C253.423 614.513 255.369 615.263 257.53 615.265C259.691 615.266 262.015 613.897 260.908 612.78C265.459 613.782 270.13 614.03 274.753 613.516C279.115 613.028 283.248 611.87 287.664 611.62C292.144 611.333 296.629 612.079 300.807 613.805C302.255 614.444 304.054 615.248 305.645 614.747C306.547 614.463 306.986 613.849 307.598 613.36C310.236 611.253 315.63 611.657 319.792 612.485C323.953 613.313 328.794 614.31 332.441 612.847C333.816 612.294 334.83 611.441 336.294 610.978C341.536 609.317 347.812 613.572 353.376 612.348C355.188 611.949 356.658 610.995 358.578 610.877C361.983 610.669 364.233 613.097 367.543 613.62C370.978 614.162 374.702 611.962 373.864 609.886C377.165 609.963 380.457 609.481 383.613 608.46L382.054 605.506C385.939 605.44 388.798 602.508 386.998 600.436C390.894 599.655 393.975 597.553 394.776 595.129C395.577 592.705 394.067 590.054 390.963 588.436C389.131 587.48 386.726 586.809 385.679 585.493C384.925 584.546 385.034 583.444 384.741 582.409C384.099 580.143 381.317 578.142 377.723 577.362C376.162 577.023 374.454 576.894 373.041 576.371C371.627 575.848 370.607 574.714 371.422 573.845C371.854 573.384 372.685 573.113 373.223 572.696C375.403 571.001 371.665 568.857 368.474 567.906L376.094 567.644L377.731 559.835C374.716 562.416 366.895 561.873 364.936 558.947C367.384 559.793 370.667 558.712 371.864 557.174C373.06 555.636 372.766 553.847 372.447 552.16C372.417 551.741 372.284 551.337 372.061 550.988C371.839 550.639 371.534 550.357 371.177 550.169C370.431 549.795 369.243 549.639 368.998 549.074C368.748 548.497 369.713 547.987 369.856 547.397C370.131 546.265 367.659 545.766 365.989 545.219C362.049 543.927 360.142 540.297 355.66 540.415C351.212 540.532 349.969 544.106 349.966 546.784C349.963 549.462 348.458 553.044 344.007 552.995C342.23 552.976 340.68 552.303 339.261 551.659L326.513 545.873C324.829 545.048 323.077 544.387 321.278 543.898C318.707 543.266 315.866 543.192 313.091 543.125L295.259 542.699C294.351 542.624 293.437 542.706 292.554 542.943C291.617 543.273 291.162 543.921 290.598 544.479C288.115 546.933 282.277 547.894 278.064 546.542C276.946 546.184 275.945 545.69 274.762 545.42C271.033 544.57 267.121 546.143 263.247 546.711C256.896 547.643 249.004 546.039 244.426 548.847C242.9 549.783 242.09 551.062 240.675 552.06C239.261 553.057 236.709 553.734 234.925 552.98C235.149 554.811 235.353 556.721 234.176 558.414C232.998 560.107 229.978 561.489 227.011 561.062C225.437 560.624 225.561 559.231 226.306 558.289C227.05 557.346 228.193 556.383 227.821 555.363C227.453 554.352 225.767 553.764 224.507 553.059C223.247 552.353 222.406 551.017 223.745 550.366C222.843 549.146 219.6 549.295 218.174 550.318C216.748 551.341 216.605 552.782 216.45 554.115C216.294 555.447 215.955 556.906 214.303 557.798C211.487 559.317 206.08 558.529 204.212 560.508C203.619 561.136 203.584 561.895 203.245 562.588C201.729 565.684 195.188 566.485 189.841 566.738C189.729 567.382 189.704 568.04 189.767 568.691C191.596 567.858 188.548 566.162 187.223 565.735Z" fill="#B5B0FF"/>
<path opacity="0.1" d="M372.447 562.199C372.766 563.886 373.06 565.675 371.864 567.213C371.686 567.435 371.485 567.635 371.265 567.81C372.875 567.754 374.484 567.699 376.094 567.644C376.64 565.041 377.185 562.438 377.731 559.836C376.482 560.905 374.408 561.436 372.268 561.486C372.344 561.719 372.404 561.957 372.447 562.199Z" fill="black"/>
<path opacity="0.1" d="M373.854 571.396C373.663 570.341 372.01 569.27 370.159 568.504C368.529 569.319 366.675 569.49 364.936 568.987C366.287 571.004 370.426 571.888 373.854 571.396Z" fill="black"/>
<path opacity="0.1" d="M376.22 577.086C376.178 577.285 376.136 577.484 376.094 577.683C373.554 577.77 371.014 577.857 368.474 577.945C371.665 578.896 375.403 581.04 373.223 582.735C372.686 583.153 371.854 583.424 371.422 583.884C370.607 584.753 371.627 585.887 373.041 586.41C374.454 586.933 376.162 587.062 377.723 587.401C381.317 588.181 384.099 590.182 384.741 592.448C385.034 593.483 384.925 594.585 385.679 595.532C386.726 596.848 389.131 597.52 390.963 598.475C391.139 598.567 391.309 598.663 391.475 598.762C393.131 597.776 394.322 596.505 394.776 595.129C395.577 592.705 394.067 590.054 390.963 588.436C389.131 587.481 386.726 586.809 385.679 585.493C384.925 584.546 385.034 583.444 384.741 582.409C384.099 580.143 381.317 578.142 377.723 577.362C377.232 577.255 376.726 577.17 376.22 577.086Z" fill="black"/>
<path opacity="0.1" d="M152.967 613.042C153.56 611.713 155.075 610.533 157.253 610.081C155.172 609.626 153.212 608.695 151.511 607.355C150.62 607.382 149.731 607.265 148.874 607.008C147.389 608.446 148.262 610.421 150.146 611.679C151.034 612.245 151.98 612.702 152.967 613.042Z" fill="black"/>
<path opacity="0.1" d="M166.408 574.127C167.493 573.7 168.605 573.351 169.735 573.084C173.152 572.254 177.174 571.317 178.168 569.183C178.487 568.498 178.45 567.739 179.067 567.133C180.267 565.955 183.543 566.104 184.903 567.217C186.262 568.33 185.921 569.953 184.655 571.105C183.998 571.703 183.092 572.259 182.972 572.972C182.747 574.314 185.247 575.137 187.223 575.774C188.153 576.089 189.023 576.572 189.796 577.202C189.812 577.06 189.828 576.918 189.842 576.777C195.188 576.524 201.729 575.723 203.245 572.627C203.584 571.934 203.619 571.175 204.212 570.547C206.08 568.568 211.487 569.356 214.303 567.837C215.955 566.945 216.294 565.486 216.45 564.154C216.605 562.822 216.748 561.381 218.174 560.357C219.6 559.334 222.843 559.185 223.745 560.405C222.406 561.056 223.247 562.393 224.507 563.098C225.767 563.803 227.453 564.391 227.821 565.402C228.193 566.422 227.05 567.385 226.306 568.328C225.561 569.271 225.437 570.663 227.011 571.101C229.978 571.528 232.998 570.147 234.176 568.453C235.353 566.76 235.149 564.85 234.925 563.019C236.709 563.773 239.261 563.096 240.676 562.099C242.09 561.101 242.9 559.822 244.426 558.886C249.004 556.079 256.896 557.682 263.247 556.751C267.121 556.182 271.033 554.609 274.762 555.459C275.945 555.729 276.946 556.223 278.063 556.581C282.277 557.933 288.115 556.972 290.598 554.518C291.162 553.961 291.617 553.312 292.554 552.983C293.437 552.745 294.351 552.663 295.259 552.738C301.203 552.88 307.147 553.022 313.091 553.164C315.866 553.231 318.707 553.305 321.278 553.937C323.077 554.426 324.829 555.087 326.513 555.912C330.763 557.841 335.012 559.77 339.261 561.698C340.68 562.342 342.23 563.015 344.007 563.035C348.458 563.083 349.963 559.502 349.966 556.823C349.969 554.145 351.212 550.571 355.66 550.454C360.142 550.336 362.049 553.966 365.989 555.258C367.659 555.805 370.131 556.304 369.856 557.436C369.729 557.962 368.951 558.424 368.959 558.926C370.069 558.651 371.078 558.042 371.864 557.174C373.06 555.636 372.766 553.847 372.447 552.16C372.417 551.741 372.284 551.337 372.061 550.988C371.839 550.639 371.534 550.357 371.177 550.169C370.431 549.795 369.243 549.639 368.998 549.074C368.748 548.497 369.713 547.987 369.856 547.397C370.131 546.265 367.659 545.766 365.989 545.219C362.049 543.927 360.142 540.297 355.66 540.415C351.212 540.532 349.969 544.106 349.966 546.784C349.963 549.463 348.458 553.044 344.007 552.995C342.23 552.976 340.68 552.303 339.261 551.659C335.012 549.731 330.763 547.802 326.513 545.873C324.829 545.048 323.077 544.387 321.278 543.898C318.707 543.266 315.866 543.192 313.091 543.125C307.147 542.983 301.203 542.841 295.259 542.699C294.351 542.624 293.437 542.706 292.554 542.944C291.617 543.273 291.162 543.921 290.598 544.479C288.115 546.933 282.277 547.894 278.063 546.542C276.946 546.184 275.945 545.69 274.762 545.42C271.033 544.57 267.121 546.143 263.247 546.712C256.896 547.643 249.004 546.04 244.426 548.847C242.9 549.783 242.09 551.062 240.676 552.06C239.261 553.057 236.709 553.734 234.925 552.98C235.149 554.811 235.353 556.721 234.176 558.414C232.998 560.107 229.978 561.489 227.011 561.062C225.437 560.624 225.561 559.231 226.306 558.289C227.05 557.346 228.193 556.383 227.821 555.363C227.453 554.352 225.767 553.764 224.507 553.059C223.247 552.353 222.406 551.017 223.745 550.366C222.843 549.146 219.6 549.295 218.174 550.318C216.748 551.342 216.605 552.783 216.45 554.115C216.294 555.447 215.955 556.906 214.303 557.798C211.487 559.317 206.08 558.529 204.212 560.508C203.619 561.136 203.584 561.895 203.245 562.588C201.73 565.684 195.188 566.485 189.842 566.738C189.829 566.879 189.812 567.021 189.796 567.163C189.023 566.533 188.153 566.05 187.223 565.735C185.247 565.098 182.747 564.275 182.972 562.933C183.092 562.22 183.998 561.664 184.655 561.066C185.921 559.914 186.263 558.291 184.903 557.178C183.543 556.065 180.267 555.916 179.067 557.094C178.45 557.7 178.487 558.459 178.169 559.144C177.174 561.278 173.152 562.215 169.735 563.045C166.318 563.874 162.495 565.417 162.816 567.625C163.161 569.996 168.266 572.103 166.408 574.127Z" fill="black"/>
<path opacity="0.1" d="M157.253 600.041C156.313 600.224 155.415 600.594 154.608 601.131C155.12 601.155 155.629 601.19 156.119 601.223C161.831 601.607 169.037 600.3 169.924 596.883C170.371 595.159 168.995 593.475 167.659 591.926C167.122 591.304 166.586 590.681 166.049 590.059C163.254 591.058 159.436 591.407 156.119 591.184C154.027 591.043 151.569 590.851 150.132 591.776C149.024 592.489 149.026 593.599 149.394 594.55C150.341 596.996 153.373 599.114 157.253 600.041Z" fill="black"/>
<path d="M273.582 584.419C304.997 584.419 330.464 566.729 330.464 544.908C330.464 523.086 304.997 505.396 273.582 505.396C242.167 505.396 216.7 523.086 216.7 544.908C216.7 566.729 242.167 584.419 273.582 584.419Z" fill="#645AFD"/>
<path opacity="0.2" d="M254.242 542.114C254.242 542.114 228.456 544.908 236.04 533.334C243.624 521.76 253.105 517.769 257.655 520.961C262.206 524.154 264.102 532.935 263.343 532.935C262.585 532.935 251.588 526.15 247.796 531.338C244.004 536.527 254.242 542.114 254.242 542.114Z" fill="white"/>
<path opacity="0.2" d="M276.586 543.245C276.586 543.245 297.88 558.804 284.962 562.386C272.044 565.968 262.38 562.497 260.904 556.954C259.428 551.412 263.423 543.45 263.999 543.97C264.574 544.49 268.719 557.177 274.807 555.841C280.896 554.504 276.586 543.245 276.586 543.245Z" fill="white"/>
<path opacity="0.2" d="M281.557 533.494C281.557 533.494 283.237 506.269 292.817 516.069C302.396 525.868 304.555 536.372 300.805 540.562C297.055 544.752 288.513 545.256 288.64 544.469C288.766 543.682 296.955 533.401 292.727 528.601C288.498 523.801 281.557 533.494 281.557 533.494Z" fill="white"/>
<path d="M204.945 581.226C236.36 581.226 261.827 563.536 261.827 541.715C261.827 519.893 236.36 502.204 204.945 502.204C173.53 502.204 148.063 519.893 148.063 541.715C148.063 563.536 173.53 581.226 204.945 581.226Z" fill="#645AFD"/>
<path opacity="0.2" d="M185.605 538.921C185.605 538.921 159.818 541.715 167.403 530.141C174.987 518.567 184.467 514.576 189.018 517.769C193.568 520.961 195.464 529.742 194.706 529.742C193.948 529.742 182.95 522.957 179.158 528.145C175.366 533.334 185.605 538.921 185.605 538.921Z" fill="white"/>
<path opacity="0.2" d="M207.948 540.052C207.948 540.052 229.242 555.611 216.324 559.193C203.406 562.775 193.743 559.304 192.266 553.762C190.79 548.219 194.786 540.258 195.361 540.777C195.937 541.297 200.081 553.985 206.17 552.648C212.258 551.311 207.948 540.052 207.948 540.052Z" fill="white"/>
<path opacity="0.2" d="M212.919 530.302C212.919 530.302 214.6 503.077 224.179 512.876C233.758 522.676 235.917 533.179 232.168 537.369C228.418 541.559 219.876 542.063 220.002 541.276C220.129 540.489 228.318 530.208 224.089 525.408C219.861 520.608 212.919 530.302 212.919 530.302Z" fill="white"/>
<path opacity="0.1" d="M234.546 508.089C246.936 515.337 254.811 526.19 254.811 538.322C254.811 560.144 229.344 577.834 197.929 577.834C187.165 577.834 177.1 575.756 168.517 572.148C178.412 577.936 191.185 581.426 205.134 581.426C236.549 581.426 262.016 563.736 262.016 541.914C262.016 527.57 251.011 515.012 234.546 508.089Z" fill="black"/>
<path opacity="0.1" d="M303.184 510.883C315.574 518.131 323.449 528.984 323.449 541.116C323.449 562.938 297.982 580.627 266.567 580.627C255.802 580.627 245.737 578.55 237.155 574.941C247.049 580.73 259.823 584.219 273.772 584.219C305.187 584.219 330.654 566.53 330.654 544.708C330.654 530.364 319.649 517.805 303.184 510.883Z" fill="black"/>
<path d="M170.376 534.146C170.376 534.146 219.295 479.069 339.126 501.818C433.853 519.801 356.066 550.753 319.317 562.933C308.655 566.465 297.61 568.558 286.447 569.161C244.989 571.408 140.709 573.417 170.376 534.146Z" fill="#70575A"/>
<path opacity="0.1" d="M319.317 550.56C308.655 554.092 297.61 556.185 286.447 556.789C252.862 558.609 178.051 560.272 166.622 539.959C152.189 572.791 247.31 570.883 286.447 568.762C297.61 568.158 308.655 566.066 319.317 562.533C346.253 553.606 395.235 534.593 382.17 517.994C373.373 531.021 339.906 543.737 319.317 550.56Z" fill="black"/>
<path opacity="0.1" d="M274.849 502.018L288.122 529.556" stroke="black" stroke-width="2" stroke-miterlimit="10"/>
<path opacity="0.1" d="M233.894 511.995L245.271 535.143" stroke="black" stroke-width="2" stroke-miterlimit="10"/>
<path opacity="0.1" d="M298.74 502.018L316.563 529.556" stroke="black" stroke-width="2" stroke-miterlimit="10"/>
<path opacity="0.1" d="M233.894 537.538L353.346 521.574" stroke="black" stroke-width="2" stroke-miterlimit="10"/>
<path opacity="0.1" d="M348.796 507.206L357.138 519.578" stroke="black" stroke-width="2" stroke-miterlimit="10"/>
<path opacity="0.1" d="M210.383 521.574L215.692 533.148" stroke="black" stroke-width="2" stroke-miterlimit="10"/>
<path d="M228.214 484.079C228.214 484.079 337.298 483.56 338.299 482.521C339.299 481.482 362.317 480.932 366.82 487.684C371.324 494.436 372.825 497.552 366.82 498.591C360.816 499.63 163.164 606.105 163.164 606.105C163.164 606.105 152.155 607.144 157.659 595.717C163.164 584.29 228.214 484.079 228.214 484.079Z" fill="#7770E8"/>
<path d="M274.01 531.57C274.01 535.869 254.316 546.337 230.022 546.337C205.727 546.337 186.033 535.869 186.033 531.57C186.033 527.272 205.727 525.584 230.022 525.584C254.316 525.584 274.01 527.272 274.01 531.57Z" fill="#B5B0FF"/>
<path d="M230.022 539.153C254.316 539.153 274.01 535.669 274.01 531.371C274.01 527.073 254.316 523.588 230.022 523.588C205.727 523.588 186.033 527.073 186.033 531.371C186.033 535.669 205.727 539.153 230.022 539.153Z" fill="#B5B0FF"/>
<path d="M327.1 524.387C327.1 528.685 307.406 539.153 283.112 539.153C258.817 539.153 239.123 528.685 239.123 524.387C239.123 520.088 258.817 518.4 283.112 518.4C307.406 518.4 327.1 520.088 327.1 524.387Z" fill="#B5B0FF"/>
<path d="M283.111 531.97C307.406 531.97 327.1 528.485 327.1 524.187C327.1 519.889 307.406 516.405 283.111 516.405C258.817 516.405 239.123 519.889 239.123 524.187C239.123 528.485 258.817 531.97 283.111 531.97Z" fill="#B5B0FF"/>
<path d="M380.19 517.203C380.19 521.501 360.496 531.97 336.201 531.97C311.907 531.97 292.213 521.501 292.213 517.203C292.213 512.905 311.907 511.216 336.201 511.216C360.496 511.216 380.19 512.905 380.19 517.203Z" fill="#B5B0FF"/>
<path d="M336.201 524.786C360.496 524.786 380.19 521.301 380.19 517.003C380.19 512.705 360.496 509.221 336.201 509.221C311.907 509.221 292.213 512.705 292.213 517.003C292.213 521.301 311.907 524.786 336.201 524.786Z" fill="#B5B0FF"/>
<path d="M174.199 519.414C174.199 519.414 156.108 516.314 165.364 500.816C174.62 485.318 177.733 467.944 181.773 464.063C186.288 459.723 279.495 383.641 352.108 467.83C359.801 476.856 366.054 487.133 370.626 498.262C371.504 500.367 372.473 502.255 373.419 503.251C376.364 506.351 378.889 515.207 373.419 519.635C367.95 524.063 206.807 541.333 174.199 519.414Z" fill="#3F3D56"/>
<path d="M258.978 454.985C257.863 455.801 256.549 456.262 255.192 456.314C253.1 456.314 251.405 455.719 251.405 454.985C251.405 454.252 253.1 453.657 255.192 453.657C256.549 453.708 257.863 454.169 258.978 454.985Z" fill="#F2F2F2"/>
<path d="M228.685 446.572C227.57 447.388 226.256 447.849 224.898 447.9C222.807 447.9 221.112 447.305 221.112 446.572C221.112 445.838 222.807 445.243 224.898 445.243C226.256 445.295 227.57 445.756 228.685 446.572Z" fill="#F2F2F2"/>
<path d="M310.977 458.832C309.682 459.26 308.296 459.287 306.986 458.91C304.99 458.253 303.541 457.152 303.749 456.452C303.957 455.752 305.744 455.717 307.74 456.374C309.021 456.85 310.145 457.703 310.977 458.832Z" fill="#F2F2F2"/>
<path d="M255.019 436.249C253.723 436.677 252.338 436.704 251.028 436.327C249.032 435.669 247.583 434.569 247.791 433.869C247.999 433.169 249.786 433.134 251.782 433.791C253.062 434.266 254.186 435.12 255.019 436.249Z" fill="#F2F2F2"/>
<path d="M316.026 444.219C314.73 444.648 313.345 444.675 312.035 444.297C310.039 443.64 308.59 442.54 308.798 441.839C309.006 441.139 310.793 441.104 312.789 441.762C314.07 442.237 315.193 443.09 316.026 444.219Z" fill="#F2F2F2"/>
<path d="M303.577 443.029C302.462 443.845 301.147 444.306 299.79 444.358C297.699 444.358 296.003 443.763 296.003 443.029C296.003 442.296 297.699 441.701 299.79 441.701C301.147 441.752 302.462 442.213 303.577 443.029Z" fill="#F2F2F2"/>
<path d="M267.393 435.059C266.278 435.875 264.964 436.336 263.606 436.387C261.515 436.387 259.82 435.792 259.82 435.059C259.82 434.325 261.515 433.73 263.606 433.73C264.964 433.782 266.278 434.243 267.393 435.059Z" fill="#F2F2F2"/>
<path d="M295.162 435.059C294.047 435.875 292.732 436.336 291.375 436.387C289.284 436.387 287.588 435.792 287.588 435.059C287.588 434.325 289.284 433.73 291.375 433.73C292.732 433.782 294.047 434.243 295.162 435.059Z" fill="#F2F2F2"/>
<path d="M284.643 452.328C283.528 453.144 282.214 453.605 280.857 453.657C278.765 453.657 277.07 453.062 277.07 452.328C277.07 451.595 278.765 451 280.857 451C282.214 451.051 283.528 451.512 284.643 452.328Z" fill="#F2F2F2"/>
<path d="M254.049 449.225C254.365 447.835 255.054 446.57 256.034 445.581C257.595 444.115 259.236 443.371 259.7 443.919C260.164 444.466 259.275 446.098 257.715 447.563C256.67 448.476 255.397 449.053 254.049 449.225Z" fill="#F2F2F2"/>
<path d="M235.116 444.354C235.432 442.964 236.121 441.699 237.101 440.71C238.661 439.244 240.303 438.5 240.767 439.048C241.231 439.595 240.342 441.227 238.782 442.692C237.736 443.605 236.464 444.182 235.116 444.354Z" fill="#F2F2F2"/>
<path d="M202.298 468.266C202.614 466.876 203.303 465.611 204.283 464.621C205.844 463.156 207.485 462.412 207.949 462.959C208.413 463.507 207.524 465.138 205.964 466.604C204.919 467.516 203.646 468.093 202.298 468.266Z" fill="#F2F2F2"/>
<path d="M275.086 441.697C275.402 440.307 276.091 439.042 277.071 438.053C278.632 436.588 280.273 435.843 280.737 436.391C281.201 436.938 280.312 438.57 278.752 440.035C277.707 440.948 276.434 441.525 275.086 441.697Z" fill="#F2F2F2"/>
<path d="M267.513 457.638C267.828 456.248 268.518 454.983 269.498 453.994C271.058 452.529 272.7 451.784 273.164 452.332C273.628 452.879 272.739 454.511 271.178 455.976C270.133 456.889 268.861 457.466 267.513 457.638Z" fill="#F2F2F2"/>
<path opacity="0.2" d="M95.5254 653.903C89.2231 653.956 80.8816 652.869 79.2025 651.793C77.9238 650.973 77.4142 648.032 77.2437 646.674C77.1257 646.68 77.0574 646.682 77.0574 646.682C77.0574 646.682 77.4109 651.42 79.09 652.497C80.7692 653.573 89.1107 654.66 95.413 654.606C97.2322 654.591 97.8606 653.91 97.8261 652.901C97.5733 653.51 96.8795 653.891 95.5254 653.903Z" fill="black"/>
<path d="M960.392 249.217L960.391 249.217C959.016 252.582 957.475 256.275 955.813 260.162C953.499 265.576 950.95 271.366 948.282 277.155L948.282 277.155C946.64 280.718 944.954 284.275 943.249 287.751C938.666 297.069 933.942 305.746 929.572 312.116C927.387 315.302 925.302 317.893 923.38 319.696C921.441 321.515 919.744 322.458 918.333 322.508C916.759 322.564 914.837 321.479 912.625 319.286C910.437 317.117 908.063 313.961 905.59 310.103C900.645 302.391 895.352 291.951 890.394 281.195C880.482 259.687 871.944 236.983 870.263 232.464L870.263 232.464C870.246 232.417 870.229 232.372 870.213 232.329H967.114C967.048 232.501 966.97 232.705 966.88 232.939C966.558 233.776 966.084 235.001 965.478 236.549C964.264 239.646 962.519 244.038 960.392 249.217Z" fill="#3F3D56" stroke="white"/>
<path opacity="0.1" d="M960.854 249.407C959.477 252.773 957.936 256.469 956.273 260.359L918.173 231.829H937.379L960.854 249.407Z" fill="black"/>
<path opacity="0.1" d="M948.736 277.365C947.092 280.931 945.405 284.492 943.698 287.971L869.795 232.639C869.598 232.11 869.497 231.829 869.497 231.829H887.922L948.736 277.365Z" fill="black"/>
<path d="M920.373 159.351C915.865 162.388 908.736 161.239 904.404 164.456C901.44 166.656 900.649 170.418 901.458 173.691C902.267 176.965 904.416 179.87 906.578 182.665C908.07 184.594 909.617 186.538 911.714 188.005C914.645 190.056 918.407 191.011 922.094 191.778C930.124 193.447 938.324 194.458 946.581 194.796C950.263 194.947 954.433 194.796 956.914 192.478C958.359 191.127 958.94 189.277 959.363 187.488C960.025 184.688 960.393 181.675 959.025 179.067C957.9 176.924 955.735 175.317 953.543 173.891C946.668 169.418 938.571 165.714 934.374 159.275C932.706 156.716 931.678 153.75 929.15 151.764C925.855 149.176 918.523 148.117 914.643 149.847C915.242 151.009 923.076 157.531 920.373 159.351Z" fill="#433BBC"/>
<path d="M882.489 189.533C881.152 193.474 879.921 197.645 881.047 201.634C882.531 206.893 887.953 210.832 893.902 212.746C899.85 214.661 906.337 214.884 912.693 215.086L945.972 216.143C950.154 216.276 954.417 216.421 958.347 217.644C961.586 218.651 965.437 220.311 968.138 218.486C969.362 217.658 969.913 216.318 970.347 215.04C971.762 210.882 972.553 206.316 970.651 202.3C968.471 197.699 963.097 194.676 957.516 193.23C951.935 191.785 946.025 191.644 940.227 191.099C934.345 190.545 928.53 189.566 922.843 188.172C918.09 187.007 913.273 185.47 909.757 182.511C907.855 180.91 906.415 178.958 904.622 177.268C894.352 167.59 885.015 182.085 882.489 189.533Z" fill="#433BBC"/>
<path d="M875.176 207.641C871.94 208.873 869.132 210.796 867.026 213.222C864.919 215.649 863.586 218.497 863.153 221.49C862.721 224.483 863.206 227.521 864.559 230.308C865.913 233.096 868.09 235.539 870.88 237.401C875.947 240.783 882.579 241.958 889.003 242.352C895.277 242.737 901.577 242.472 907.859 242.208L963.442 239.867C966.7 239.729 970.387 239.41 972.376 237.212C973.861 235.571 973.948 233.308 973.594 231.259C972.319 223.892 965.776 217.369 957.421 215.136C954.27 214.294 950.953 214.027 947.664 213.766L923.838 211.87C920.629 211.614 917.401 211.356 914.292 210.638C904.869 208.46 896.45 202.101 886.749 203.042C880.167 203.681 874.748 207.599 869.967 211.498" fill="#433BBC"/>
<path opacity="0.1" d="M906.296 175.72C906.296 175.72 914.073 187.659 953.963 192.48L906.296 175.72Z" fill="black"/>
<path opacity="0.1" d="M884.231 206.991C884.231 206.991 898.682 219.42 958.323 219.42L884.231 206.991Z" fill="black"/>
<path d="M917.716 169.785C919.819 169.785 921.523 169.302 921.523 168.706C921.523 168.11 919.819 167.627 917.716 167.627C915.614 167.627 913.91 168.11 913.91 168.706C913.91 169.302 915.614 169.785 917.716 169.785Z" fill="#3F3D56"/>
<path d="M930.406 176.799C932.508 176.799 934.213 176.315 934.213 175.72C934.213 175.124 932.508 174.641 930.406 174.641C928.303 174.641 926.599 175.124 926.599 175.72C926.599 176.315 928.303 176.799 930.406 176.799Z" fill="#3F3D56"/>
<path d="M944.999 184.352C947.101 184.352 948.805 183.869 948.805 183.273C948.805 182.677 947.101 182.194 944.999 182.194C942.896 182.194 941.192 182.677 941.192 183.273C941.192 183.869 942.896 184.352 944.999 184.352Z" fill="#3F3D56"/>
<path d="M894.241 187.589C896.343 187.589 898.048 187.106 898.048 186.51C898.048 185.914 896.343 185.431 894.241 185.431C892.139 185.431 890.434 185.914 890.434 186.51C890.434 187.106 892.139 187.589 894.241 187.589Z" fill="#3F3D56"/>
<path d="M926.599 197.84C928.701 197.84 930.406 197.357 930.406 196.761C930.406 196.165 928.701 195.682 926.599 195.682C924.497 195.682 922.792 196.165 922.792 196.761C922.792 197.357 924.497 197.84 926.599 197.84Z" fill="#3F3D56"/>
<path d="M880.917 218.881C883.02 218.881 884.724 218.398 884.724 217.802C884.724 217.206 883.02 216.723 880.917 216.723C878.815 216.723 877.11 217.206 877.11 217.802C877.11 218.398 878.815 218.881 880.917 218.881Z" fill="#3F3D56"/>
<path d="M905.027 198.919C907.129 198.919 908.834 198.436 908.834 197.84C908.834 197.244 907.129 196.761 905.027 196.761C902.925 196.761 901.22 197.244 901.22 197.84C901.22 198.436 902.925 198.919 905.027 198.919Z" fill="#3F3D56"/>
<path d="M890.434 226.974C892.537 226.974 894.241 226.491 894.241 225.895C894.241 225.299 892.537 224.816 890.434 224.816C888.332 224.816 886.627 225.299 886.627 225.895C886.627 226.491 888.332 226.974 890.434 226.974Z" fill="#3F3D56"/>
<path d="M915.179 222.118C917.281 222.118 918.985 221.635 918.985 221.039C918.985 220.443 917.281 219.96 915.179 219.96C913.076 219.96 911.372 220.443 911.372 221.039C911.372 221.635 913.076 222.118 915.179 222.118Z" fill="#3F3D56"/>
<path d="M930.089 248.015C932.366 248.015 934.213 244.754 934.213 240.731C934.213 236.709 932.366 233.448 930.089 233.448C927.811 233.448 925.965 236.709 925.965 240.731C925.965 244.754 927.811 248.015 930.089 248.015Z" fill="#433BBC"/>
<path d="M935.164 250.712C937.442 250.712 939.288 247.451 939.288 243.429C939.288 239.406 937.442 236.145 935.164 236.145C932.887 236.145 931.04 239.406 931.04 243.429C931.04 247.451 932.887 250.712 935.164 250.712Z" fill="#433BBC"/>
<path d="M926.703 313.66C926.737 313.516 927.592 310.071 932.066 305.046C936.171 300.436 944.245 293.575 959.4 287.075C988.11 274.761 994.534 251.625 994.595 251.393L995.363 251.54C995.347 251.599 993.74 257.522 988.568 264.894C981.705 274.661 971.709 282.563 959.754 287.672C931.093 299.966 927.506 313.656 927.473 313.792L926.703 313.66Z" fill="#3F3D56"/>
<path d="M996.064 248.918C998.886 248.918 1001.17 246.972 1001.17 244.572C1001.17 242.172 998.886 240.226 996.064 240.226C993.242 240.226 990.953 242.172 990.953 244.572C990.953 246.972 993.242 248.918 996.064 248.918Z" fill="#433BBC"/>
<path d="M995.053 270.002C997.875 270.002 1000.16 268.056 1000.16 265.656C1000.16 263.256 997.875 261.311 995.053 261.311C992.23 261.311 989.942 263.256 989.942 265.656C989.942 268.056 992.23 270.002 995.053 270.002Z" fill="#3F3D56"/>
<path d="M978.428 271.482C981.251 271.482 983.539 269.536 983.539 267.136C983.539 264.736 981.251 262.79 978.428 262.79C975.606 262.79 973.318 264.736 973.318 267.136C973.318 269.536 975.606 271.482 978.428 271.482Z" fill="#433BBC"/>
<path d="M981.012 285.827C983.835 285.827 986.123 283.882 986.123 281.482C986.123 279.082 983.835 277.136 981.012 277.136C978.19 277.136 975.902 279.082 975.902 281.482C975.902 283.882 978.19 285.827 981.012 285.827Z" fill="#433BBC"/>
<path d="M957.103 286.122C959.925 286.122 962.213 284.176 962.213 281.776C962.213 279.376 959.925 277.431 957.103 277.431C954.28 277.431 951.992 279.376 951.992 281.776C951.992 284.176 954.28 286.122 957.103 286.122Z" fill="#3F3D56"/>
<path d="M928.839 315.562C928.839 315.562 933.644 304.764 951.301 307.745L928.839 315.562Z" fill="#3F3D56"/>
<path d="M924.385 311.786C924.385 311.786 931.775 302.1 918.497 291.764L924.385 311.786Z" fill="#3F3D56"/>
<path d="M844.92 196.299L836.46 193.46L828 190.622L835.121 185.811L842.242 181L843.581 188.65L844.92 196.299Z" fill="#C2C2C2"/>
<path d="M878.98 146.074L870.99 149.768L863 153.463L863.232 145.731L863.465 138L871.223 142.037L878.98 146.074Z" fill="#C2C2C2"/>
<path d="M1010.92 196.299L1002.46 193.46L994 190.622L1001.12 185.811L1008.24 181L1009.58 188.65L1010.92 196.299Z" fill="#C2C2C2"/>
<path d="M979.92 153.299L971.46 150.46L963 147.622L970.121 142.811L977.242 138L978.581 145.65L979.92 153.299Z" fill="#C2C2C2"/>
<path d="M933.98 126.074L925.99 129.768L918 133.463L918.232 125.731L918.465 118L926.223 122.037L933.98 126.074Z" fill="#C2C2C2"/>
<path d="M121.984 71V37.4844H136.281C142.656 37.4844 145.844 40.0859 145.844 45.2891C145.844 49.1016 143.766 51.8281 139.609 53.4688C144.047 54.2969 146.266 56.8359 146.266 61.0859C146.266 67.6953 142.773 71 135.789 71H121.984ZM135.531 67.4844C139.531 67.4844 141.531 65.4531 141.531 61.3906C141.531 57.4375 138.852 55.4609 133.492 55.4609H131.617V52.625C138.023 51.7656 141.227 49.4531 141.227 45.6875C141.227 42.5625 139.445 41 135.883 41H126.32V67.4844H135.531ZM162.836 46.3906C169.836 46.3906 173.336 49.8516 173.336 56.7734C173.336 57.7578 173.266 58.8125 173.125 59.9375H155.852C155.852 64.9688 158.789 67.4844 164.664 67.4844C167.461 67.4844 169.945 67.1719 172.117 66.5469V70.0625C169.945 70.6875 167.305 71 164.195 71C155.742 71 151.516 66.8047 151.516 58.4141C151.516 50.3984 155.289 46.3906 162.836 46.3906ZM155.852 56.3281H169.164C169.07 52.0156 166.961 49.8594 162.836 49.8594C158.461 49.8594 156.133 52.0156 155.852 56.3281ZM179.172 42.4062H181.891L182.828 46.3906H189.484V49.9062H183.508V64.0391C183.508 66.3359 184.5 67.4844 186.484 67.4844H189.484V71H185.359C181.234 71 179.172 68.7891 179.172 64.3672V42.4062ZM195.016 42.4062H197.734L198.672 46.3906H205.328V49.9062H199.352V64.0391C199.352 66.3359 200.344 67.4844 202.328 67.4844H205.328V71H201.203C197.078 71 195.016 68.7891 195.016 64.3672V42.4062ZM221.008 46.3906C228.008 46.3906 231.508 49.8516 231.508 56.7734C231.508 57.7578 231.438 58.8125 231.297 59.9375H214.023C214.023 64.9688 216.961 67.4844 222.836 67.4844C225.633 67.4844 228.117 67.1719 230.289 66.5469V70.0625C228.117 70.6875 225.477 71 222.367 71C213.914 71 209.688 66.8047 209.688 58.4141C209.688 50.3984 213.461 46.3906 221.008 46.3906ZM214.023 56.3281H227.336C227.242 52.0156 225.133 49.8594 221.008 49.8594C216.633 49.8594 214.305 52.0156 214.023 56.3281ZM237.344 71V46.3906H240.273L241.047 49.5312C243.203 47.4375 245.797 46.3906 248.828 46.3906V50C245.891 50 243.508 51.0391 241.68 53.1172V71H237.344ZM265.375 71V37.4844H279.672C286.047 37.4844 289.234 40.0859 289.234 45.2891C289.234 49.1016 287.156 51.8281 283 53.4688C287.438 54.2969 289.656 56.8359 289.656 61.0859C289.656 67.6953 286.164 71 279.18 71H265.375ZM278.922 67.4844C282.922 67.4844 284.922 65.4531 284.922 61.3906C284.922 57.4375 282.242 55.4609 276.883 55.4609H275.008V52.625C281.414 51.7656 284.617 49.4531 284.617 45.6875C284.617 42.5625 282.836 41 279.273 41H269.711V67.4844H278.922ZM317.289 46.3906V71H314.312L313.562 67.8594C310.578 69.9531 307.578 71 304.562 71C298.906 71 296.078 67.9453 296.078 61.8359V46.3906H300.414V61.9062C300.414 65.5625 302.227 67.3906 305.852 67.3906C308.336 67.3906 310.703 66.3516 312.953 64.2734V46.3906H317.289ZM324.109 69.8281V66.0781C327 67.0156 329.922 67.4844 332.875 67.4844C336.797 67.4844 338.758 66.3125 338.758 63.9688C338.758 61.7812 337.391 60.6875 334.656 60.6875H331.141C325.828 60.6875 323.172 58.2656 323.172 53.4219C323.172 48.7344 326.586 46.3906 333.414 46.3906C336.352 46.3906 339.266 46.7812 342.156 47.5625V51.3125C339.266 50.375 336.352 49.9062 333.414 49.9062C329.32 49.9062 327.273 51.0781 327.273 53.4219C327.273 55.6094 328.562 56.7031 331.141 56.7031H334.656C340.281 56.7031 343.094 59.125 343.094 63.9688C343.094 68.6562 339.688 71 332.875 71C329.922 71 327 70.6094 324.109 69.8281ZM353.758 46.3906V71H349.422V46.3906H353.758ZM353.758 37.4844V41.5859H349.422V37.4844H353.758ZM361.281 71V46.3906H364.211L364.984 49.5312C367.5 47.4375 370.266 46.3906 373.281 46.3906C379.422 46.3906 382.492 49.4453 382.492 55.5547V71H378.156V55.4844C378.156 51.8281 376.336 50 372.695 50C370.211 50 367.852 51.0391 365.617 53.1172V71H361.281ZM399.695 46.3906C406.695 46.3906 410.195 49.8516 410.195 56.7734C410.195 57.7578 410.125 58.8125 409.984 59.9375H392.711C392.711 64.9688 395.648 67.4844 401.523 67.4844C404.32 67.4844 406.805 67.1719 408.977 66.5469V70.0625C406.805 70.6875 404.164 71 401.055 71C392.602 71 388.375 66.8047 388.375 58.4141C388.375 50.3984 392.148 46.3906 399.695 46.3906ZM392.711 56.3281H406.023C405.93 52.0156 403.82 49.8594 399.695 49.8594C395.32 49.8594 392.992 52.0156 392.711 56.3281ZM415.797 69.8281V66.0781C418.688 67.0156 421.609 67.4844 424.562 67.4844C428.484 67.4844 430.445 66.3125 430.445 63.9688C430.445 61.7812 429.078 60.6875 426.344 60.6875H422.828C417.516 60.6875 414.859 58.2656 414.859 53.4219C414.859 48.7344 418.273 46.3906 425.102 46.3906C428.039 46.3906 430.953 46.7812 433.844 47.5625V51.3125C430.953 50.375 428.039 49.9062 425.102 49.9062C421.008 49.9062 418.961 51.0781 418.961 53.4219C418.961 55.6094 420.25 56.7031 422.828 56.7031H426.344C431.969 56.7031 434.781 59.125 434.781 63.9688C434.781 68.6562 431.375 71 424.562 71C421.609 71 418.688 70.6094 415.797 69.8281ZM440.406 69.8281V66.0781C443.297 67.0156 446.219 67.4844 449.172 67.4844C453.094 67.4844 455.055 66.3125 455.055 63.9688C455.055 61.7812 453.688 60.6875 450.953 60.6875H447.438C442.125 60.6875 439.469 58.2656 439.469 53.4219C439.469 48.7344 442.883 46.3906 449.711 46.3906C452.648 46.3906 455.562 46.7812 458.453 47.5625V51.3125C455.562 50.375 452.648 49.9062 449.711 49.9062C445.617 49.9062 443.57 51.0781 443.57 53.4219C443.57 55.6094 444.859 56.7031 447.438 56.7031H450.953C456.578 56.7031 459.391 59.125 459.391 63.9688C459.391 68.6562 455.984 71 449.172 71C446.219 71 443.297 70.6094 440.406 69.8281Z" fill="white"/>
<path d="M51.1706 81V41.8984H67.8503C75.2878 41.8984 79.0065 44.9336 79.0065 51.0039C79.0065 55.4518 76.5821 58.6328 71.7331 60.5469C76.9102 61.513 79.4987 64.4753 79.4987 69.4336C79.4987 77.1445 75.4245 81 67.2761 81H51.1706ZM66.9753 76.8984C71.6419 76.8984 73.9753 74.5286 73.9753 69.7891C73.9753 65.1771 70.849 62.8711 64.5964 62.8711H62.4089V59.5625C69.8828 58.5599 73.6198 55.862 73.6198 51.4688C73.6198 47.8229 71.5417 46 67.3854 46H56.2292V76.8984H66.9753Z" fill="white"/>
<path d="M55.7494 64V24.8984H39.0697C31.6322 24.8984 27.9135 27.9336 27.9135 34.0039C27.9135 38.4518 30.3379 41.6328 35.1869 43.5469C30.0098 44.513 27.4213 47.4753 27.4213 52.4336C27.4213 60.1445 31.4955 64 39.6439 64H55.7494ZM39.9447 59.8984C35.278 59.8984 32.9447 57.5286 32.9447 52.7891C32.9447 48.1771 36.071 45.8711 42.3236 45.8711H44.5111V42.5625C37.0372 41.5599 33.3002 38.862 33.3002 34.4688C33.3002 30.8229 35.3783 29 39.5345 29H50.6908V59.8984H39.9447Z" fill="white"/>
<line x1="100.5" y1="81" x2="100.5" y2="26" stroke="white" stroke-width="3"/>
<defs>
<filter id="filter0_d" x="614" y="555" width="659" height="82" filterUnits="userSpaceOnUse" color-interpolation-filters="sRGB">
<feFlood flood-opacity="0" result="BackgroundImageFix"/>
<feColorMatrix in="SourceAlpha" type="matrix" values="0 0 0 0 0 0 0 0 0 0 0 0 0 0 0 0 0 0 127 0"/>
<feOffset dx="10" dy="10"/>
<feGaussianBlur stdDeviation="3.5"/>
<feColorMatrix type="matrix" values="0 0 0 0 0 0 0 0 0 0 0 0 0 0 0 0 0 0 0.25 0"/>
<feBlend mode="normal" in2="BackgroundImageFix" result="effect1_dropShadow"/>
<feBlend mode="normal" in="SourceGraphic" in2="effect1_dropShadow" result="shape"/>
</filter>
<linearGradient id="paint0_linear" x1="1606.55" y1="654.103" x2="1606.55" y2="425.558" gradientUnits="userSpaceOnUse">
<stop stop-color="#808080" stop-opacity="0.25"/>
<stop offset="0.54" stop-color="#808080" stop-opacity="0.12"/>
<stop offset="1" stop-color="#808080" stop-opacity="0.1"/>
</linearGradient>
</defs>
</svg>
