<svg width="1912" height="898" viewBox="0 0 1912 898" fill="none" xmlns="http://www.w3.org/2000/svg">
<rect width="1912" height="898" fill="#E5E5E5"/>
<rect x="0.5" y="0.5" width="1911" height="897" fill="white" stroke="black"/>
<rect x="545" y="285" width="775" height="470" fill="#423ABA"/>
<rect x="614" y="366" width="642" height="45" fill="white"/>
<rect x="614" y="460" width="642" height="45" fill="white"/>
<rect x="614" y="554" width="642" height="45" fill="white"/>
<g filter="url(#filter0_d)">
<rect x="614" y="642" width="642" height="65" fill="white"/>
</g>
<path d="M854.316 687V661.863H865.039C869.82 661.863 872.211 663.873 872.211 667.893C872.211 671.162 869.873 673.582 865.197 675.152L873.828 687H869.539L861.541 675.697V673.57C866.346 672.809 868.748 670.963 868.748 668.033C868.748 665.713 867.412 664.553 864.74 664.553H857.568V687H854.316ZM893.709 661.863V664.5H880.525V672.938H893.094V675.574H880.525V684.363H893.973V687H877.273V661.863H893.709ZM917.879 686.016C915.852 686.789 913.666 687.176 911.322 687.176C902.217 687.176 897.664 682.811 897.664 674.08C897.664 665.818 902.059 661.688 910.848 661.688C913.367 661.688 915.711 662.039 917.879 662.742V665.555C915.711 664.734 913.484 664.324 911.199 664.324C904.344 664.324 900.916 667.576 900.916 674.08C900.916 681.053 904.291 684.539 911.041 684.539C912.119 684.539 913.314 684.398 914.627 684.117V675.574H917.879V686.016ZM927.037 661.863V687H923.785V661.863H927.037ZM933.207 686.121V683.133C935.844 684.07 938.691 684.539 941.75 684.539C946.074 684.539 948.236 682.957 948.236 679.793C948.236 677.098 946.643 675.75 943.455 675.75H940.221C934.959 675.75 932.328 673.465 932.328 668.895C932.328 664.09 935.697 661.688 942.436 661.688C945.365 661.688 948.09 662.039 950.609 662.742V665.73C948.09 664.793 945.365 664.324 942.436 664.324C937.865 664.324 935.58 665.848 935.58 668.895C935.58 671.59 937.127 672.938 940.221 672.938H943.455C948.811 672.938 951.488 675.223 951.488 679.793C951.488 684.715 948.242 687.176 941.75 687.176C938.691 687.176 935.844 686.824 933.207 686.121ZM973.197 661.863V664.5H965.287V687H962.035V664.5H954.125V661.863H973.197ZM993.518 661.863V664.5H980.334V672.938H992.902V675.574H980.334V684.363H993.781V687H977.082V661.863H993.518ZM998.703 687V661.863H1009.43C1014.21 661.863 1016.6 663.873 1016.6 667.893C1016.6 671.162 1014.26 673.582 1009.58 675.152L1018.21 687H1013.93L1005.93 675.697V673.57C1010.73 672.809 1013.13 670.963 1013.13 668.033C1013.13 665.713 1011.8 664.553 1009.13 664.553H1001.96V687H998.703Z" fill="#423ABA"/>
<path d="M626.949 344.242V346H618.16V351.625H626.539V353.383H618.16V359.242H627.125V361H615.992V344.242H626.949ZM630.406 361V344.242H633.16L639.312 358.223L645.348 344.242H647.984V361H646.051V347.254L640.098 361H638.387L632.34 347.254V361H630.406ZM652.52 361H650.27L657.383 344.242H659.785L666.934 361H664.531L662.363 355.727H656.82L657.418 353.969H661.637L658.508 346.375L652.52 361ZM671.738 344.242V361H669.57V344.242H671.738ZM678.254 344.242V359.242H687.02V361H676.086V344.242H678.254ZM691.543 348.695V350.863H689.375V348.695H691.543ZM691.543 358.832V361H689.375V358.832H691.543Z" fill="white"/>
<path d="M615.875 448.531V438.242H618.043V448.531C618.043 451.75 619.645 453.359 622.848 453.359C626.051 453.359 627.652 451.75 627.652 448.531V438.242H629.82V448.531C629.82 452.922 627.496 455.117 622.848 455.117C618.199 455.117 615.875 452.922 615.875 448.531ZM633.453 454.414V452.422C635.211 453.047 637.109 453.359 639.148 453.359C642.031 453.359 643.473 452.305 643.473 450.195C643.473 448.398 642.41 447.5 640.285 447.5H638.129C634.621 447.5 632.867 445.977 632.867 442.93C632.867 439.727 635.113 438.125 639.605 438.125C641.559 438.125 643.375 438.359 645.055 438.828V440.82C643.375 440.195 641.559 439.883 639.605 439.883C636.559 439.883 635.035 440.898 635.035 442.93C635.035 444.727 636.066 445.625 638.129 445.625H640.285C643.855 445.625 645.641 447.148 645.641 450.195C645.641 453.477 643.477 455.117 639.148 455.117C637.109 455.117 635.211 454.883 633.453 454.414ZM659.762 438.242V440H650.973V445.625H659.352V447.383H650.973V453.242H659.938V455H648.805V438.242H659.762ZM663.219 455V438.242H670.367C673.555 438.242 675.148 439.582 675.148 442.262C675.148 444.441 673.59 446.055 670.473 447.102L676.227 455H673.367L668.035 447.465V446.047C671.238 445.539 672.84 444.309 672.84 442.355C672.84 440.809 671.949 440.035 670.168 440.035H665.387V455H663.219ZM678.523 455V438.242H680.691L690.945 451.742V438.242H692.996V455H690.828L680.574 441.383V455H678.523ZM697.543 455H695.293L702.406 438.242H704.809L711.957 455H709.555L707.387 449.727H701.844L702.441 447.969H706.66L703.531 440.375L697.543 455ZM714.242 455V438.242H716.996L723.148 452.223L729.184 438.242H731.82V455H729.887V441.254L723.934 455H722.223L716.176 441.254V455H714.242ZM746.762 438.242V440H737.973V445.625H746.352V447.383H737.973V453.242H746.938V455H735.805V438.242H746.762ZM752.152 442.695V444.863H749.984V442.695H752.152ZM752.152 452.832V455H749.984V452.832H752.152Z" fill="white"/>
<path d="M615.992 549V532.242H622.789C626.211 532.242 627.922 533.738 627.922 536.73C627.922 539.988 625.582 541.977 620.902 542.695L620.457 540.867C623.895 540.359 625.613 539.012 625.613 536.824C625.613 534.965 624.605 534.035 622.59 534.035H618.16V549H615.992ZM631.355 549H629.105L636.219 532.242H638.621L645.77 549H643.367L641.199 543.727H635.656L636.254 541.969H640.473L637.344 534.375L631.355 549ZM647.82 548.414V546.422C649.578 547.047 651.477 547.359 653.516 547.359C656.398 547.359 657.84 546.305 657.84 544.195C657.84 542.398 656.777 541.5 654.652 541.5H652.496C648.988 541.5 647.234 539.977 647.234 536.93C647.234 533.727 649.48 532.125 653.973 532.125C655.926 532.125 657.742 532.359 659.422 532.828V534.82C657.742 534.195 655.926 533.883 653.973 533.883C650.926 533.883 649.402 534.898 649.402 536.93C649.402 538.727 650.434 539.625 652.496 539.625H654.652C658.223 539.625 660.008 541.148 660.008 544.195C660.008 547.477 657.844 549.117 653.516 549.117C651.477 549.117 649.578 548.883 647.82 548.414ZM662.938 548.414V546.422C664.695 547.047 666.594 547.359 668.633 547.359C671.516 547.359 672.957 546.305 672.957 544.195C672.957 542.398 671.895 541.5 669.77 541.5H667.613C664.105 541.5 662.352 539.977 662.352 536.93C662.352 533.727 664.598 532.125 669.09 532.125C671.043 532.125 672.859 532.359 674.539 532.828V534.82C672.859 534.195 671.043 533.883 669.09 533.883C666.043 533.883 664.52 534.898 664.52 536.93C664.52 538.727 665.551 539.625 667.613 539.625H669.77C673.34 539.625 675.125 541.148 675.125 544.195C675.125 547.477 672.961 549.117 668.633 549.117C666.594 549.117 664.695 548.883 662.938 548.414ZM676.883 532.242H678.98L681.336 546.82L686.07 532.242H688.238L693.312 546.82L695.973 532.242H697.977L694.824 549H691.871L687.137 534.961L682.555 549H679.637L676.883 532.242ZM702.254 540.574C702.254 545.098 704.297 547.359 708.383 547.359C712.383 547.359 714.383 545.098 714.383 540.574C714.383 536.113 712.383 533.883 708.383 533.883C704.297 533.883 702.254 536.113 702.254 540.574ZM699.969 540.645C699.969 534.965 702.773 532.125 708.383 532.125C713.906 532.125 716.668 534.965 716.668 540.645C716.668 546.293 713.906 549.117 708.383 549.117C702.773 549.117 699.969 546.293 699.969 540.645ZM720.078 549V532.242H727.227C730.414 532.242 732.008 533.582 732.008 536.262C732.008 538.441 730.449 540.055 727.332 541.102L733.086 549H730.227L724.895 541.465V540.047C728.098 539.539 729.699 538.309 729.699 536.355C729.699 534.809 728.809 534.035 727.027 534.035H722.246V549H720.078ZM741.477 547.242C745.578 547.242 747.629 544.883 747.629 540.164C747.629 536.055 745.578 534 741.477 534H737.551V547.242H741.477ZM735.383 549V532.242H741.477C747.023 532.242 749.797 534.883 749.797 540.164C749.797 546.055 747.023 549 741.477 549H735.383ZM754.895 536.695V538.863H752.727V536.695H754.895ZM754.895 546.832V549H752.727V546.832H754.895Z" fill="white"/>
<rect y="838" width="1912" height="60" fill="#423ABA"/>
<path d="M44.543 877H42.293L49.4062 860.242H51.8086L58.957 877H56.5547L54.3867 871.727H48.8438L49.4414 869.969H53.6602L50.5312 862.375L44.543 877ZM63.4102 860.242V875.242H72.1758V877H61.2422V860.242H63.4102ZM76.9336 860.242V875.242H85.6992V877H74.7656V860.242H76.9336ZM94.1484 877V860.242H101.297C104.484 860.242 106.078 861.582 106.078 864.262C106.078 866.441 104.52 868.055 101.402 869.102L107.156 877H104.297L98.9648 869.465V868.047C102.168 867.539 103.77 866.309 103.77 864.355C103.77 862.809 102.879 862.035 101.098 862.035H96.3164V877H94.1484ZM111.973 860.242V877H109.805V860.242H111.973ZM128.977 876.344C127.625 876.859 126.168 877.117 124.605 877.117C118.535 877.117 115.5 874.207 115.5 868.387C115.5 862.879 118.43 860.125 124.289 860.125C125.969 860.125 127.531 860.359 128.977 860.828V862.703C127.531 862.156 126.047 861.883 124.523 861.883C119.953 861.883 117.668 864.051 117.668 868.387C117.668 873.035 119.918 875.359 124.418 875.359C125.137 875.359 125.934 875.266 126.809 875.078V869.383H128.977V876.344ZM132.562 877V860.242H134.73V867.625H144.633V860.242H146.801V877H144.633V869.383H134.73V877H132.562ZM162.105 860.242V862H156.832V877H154.664V862H149.391V860.242H162.105ZM164.461 876.414V874.422C166.219 875.047 168.117 875.359 170.156 875.359C173.039 875.359 174.48 874.305 174.48 872.195C174.48 870.398 173.418 869.5 171.293 869.5H169.137C165.629 869.5 163.875 867.977 163.875 864.93C163.875 861.727 166.121 860.125 170.613 860.125C172.566 860.125 174.383 860.359 176.062 860.828V862.82C174.383 862.195 172.566 861.883 170.613 861.883C167.566 861.883 166.043 862.898 166.043 864.93C166.043 866.727 167.074 867.625 169.137 867.625H171.293C174.863 867.625 176.648 869.148 176.648 872.195C176.648 875.477 174.484 877.117 170.156 877.117C168.117 877.117 166.219 876.883 164.461 876.414ZM185.672 877V860.242H192.82C196.008 860.242 197.602 861.582 197.602 864.262C197.602 866.441 196.043 868.055 192.926 869.102L198.68 877H195.82L190.488 869.465V868.047C193.691 867.539 195.293 866.309 195.293 864.355C195.293 862.809 194.402 862.035 192.621 862.035H187.84V877H185.672ZM211.934 860.242V862H203.145V867.625H211.523V869.383H203.145V875.242H212.109V877H200.977V860.242H211.934ZM215.156 876.414V874.422C216.914 875.047 218.812 875.359 220.852 875.359C223.734 875.359 225.176 874.305 225.176 872.195C225.176 870.398 224.113 869.5 221.988 869.5H219.832C216.324 869.5 214.57 867.977 214.57 864.93C214.57 861.727 216.816 860.125 221.309 860.125C223.262 860.125 225.078 860.359 226.758 860.828V862.82C225.078 862.195 223.262 861.883 221.309 861.883C218.262 861.883 216.738 862.898 216.738 864.93C216.738 866.727 217.77 867.625 219.832 867.625H221.988C225.559 867.625 227.344 869.148 227.344 872.195C227.344 875.477 225.18 877.117 220.852 877.117C218.812 877.117 216.914 876.883 215.156 876.414ZM241.465 860.242V862H232.676V867.625H241.055V869.383H232.676V875.242H241.641V877H230.508V860.242H241.465ZM244.922 877V860.242H252.07C255.258 860.242 256.852 861.582 256.852 864.262C256.852 866.441 255.293 868.055 252.176 869.102L257.93 877H255.07L249.738 869.465V868.047C252.941 867.539 254.543 866.309 254.543 864.355C254.543 862.809 253.652 862.035 251.871 862.035H247.09V877H244.922ZM275.191 860.242L268.078 877H265.676L258.527 860.242H260.812L266.953 874.75L272.941 860.242H275.191ZM288.434 860.242V862H279.645V867.625H288.023V869.383H279.645V875.242H288.609V877H277.477V860.242H288.434ZM297.984 875.242C302.086 875.242 304.137 872.883 304.137 868.164C304.137 864.055 302.086 862 297.984 862H294.059V875.242H297.984ZM291.891 877V860.242H297.984C303.531 860.242 306.305 862.883 306.305 868.164C306.305 874.055 303.531 877 297.984 877H291.891ZM316.324 868.574C316.324 873.566 318.758 876.062 323.625 876.062C328.719 876.062 331.266 873.566 331.266 868.574C331.266 863.645 328.797 861.18 323.859 861.18C318.836 861.18 316.324 863.645 316.324 868.574ZM315.094 868.527C315.094 862.926 318.016 860.125 323.859 860.125C329.617 860.125 332.496 862.926 332.496 868.527C332.496 874.254 329.617 877.117 323.859 877.117C318.016 877.117 315.094 874.254 315.094 868.527ZM327.199 873.062C326.223 873.461 325.09 873.66 323.801 873.66C320.551 873.66 318.926 871.93 318.926 868.469C318.926 865.219 320.551 863.594 323.801 863.594C325.09 863.594 326.223 863.793 327.199 864.191V865.34C326.223 864.887 325.145 864.66 323.965 864.66C321.426 864.66 320.156 865.93 320.156 868.469C320.156 871.219 321.426 872.594 323.965 872.594C325.145 872.594 326.223 872.367 327.199 871.914V873.062Z" fill="white"/>
<path d="M1342.09 875.242C1346.19 875.242 1348.24 872.883 1348.24 868.164C1348.24 864.055 1346.19 862 1342.09 862H1338.16V875.242H1342.09ZM1335.99 877V860.242H1342.09C1347.63 860.242 1350.41 862.883 1350.41 868.164C1350.41 874.055 1347.63 877 1342.09 877H1335.99ZM1356.09 860.242V877H1353.92V860.242H1356.09ZM1360.2 876.414V874.422C1361.96 875.047 1363.86 875.359 1365.9 875.359C1368.78 875.359 1370.22 874.305 1370.22 872.195C1370.22 870.398 1369.16 869.5 1367.04 869.5H1364.88C1361.37 869.5 1359.62 867.977 1359.62 864.93C1359.62 861.727 1361.86 860.125 1366.36 860.125C1368.31 860.125 1370.12 860.359 1371.8 860.828V862.82C1370.12 862.195 1368.31 861.883 1366.36 861.883C1363.31 861.883 1361.79 862.898 1361.79 864.93C1361.79 866.727 1362.82 867.625 1364.88 867.625H1367.04C1370.61 867.625 1372.39 869.148 1372.39 872.195C1372.39 875.477 1370.23 877.117 1365.9 877.117C1363.86 877.117 1361.96 876.883 1360.2 876.414ZM1388.21 876.414C1386.77 876.883 1385.2 877.117 1383.52 877.117C1377.66 877.117 1374.73 874.207 1374.73 868.387C1374.73 862.879 1377.66 860.125 1383.52 860.125C1385.2 860.125 1386.77 860.359 1388.21 860.828V862.703C1386.77 862.156 1385.28 861.883 1383.76 861.883C1379.19 861.883 1376.9 864.051 1376.9 868.387C1376.9 873.035 1379.19 875.359 1383.76 875.359C1385.28 875.359 1386.77 875.086 1388.21 874.539V876.414ZM1393.96 860.242V875.242H1402.73V877H1391.8V860.242H1393.96ZM1405.87 877H1403.62L1410.73 860.242H1413.14L1420.29 877H1417.88L1415.71 871.727H1410.17L1410.77 869.969H1414.99L1411.86 862.375L1405.87 877ZM1425.09 860.242V877H1422.92V860.242H1425.09ZM1429.44 877V860.242H1432.19L1438.34 874.223L1444.38 860.242H1447.02V877H1445.08V863.254L1439.13 877H1437.42L1431.37 863.254V877H1429.44ZM1461.96 860.242V862H1453.17V867.625H1461.55V869.383H1453.17V875.242H1462.13V877H1451V860.242H1461.96ZM1465.41 877V860.242H1472.56C1475.75 860.242 1477.34 861.582 1477.34 864.262C1477.34 866.441 1475.79 868.055 1472.67 869.102L1478.42 877H1475.56L1470.23 869.465V868.047C1473.43 867.539 1475.04 866.309 1475.04 864.355C1475.04 862.809 1474.14 862.035 1472.36 862.035H1467.58V877H1465.41Z" fill="white"/>
<path d="M1556.3 861.242V863H1551.03V878H1548.86V863H1543.59V861.242H1556.3ZM1569.85 861.242V863H1561.06V868.625H1569.44V870.383H1561.06V876.242H1570.02V878H1558.89V861.242H1569.85ZM1573.3 878V861.242H1580.45C1583.64 861.242 1585.23 862.582 1585.23 865.262C1585.23 867.441 1583.68 869.055 1580.56 870.102L1586.31 878H1583.45L1578.12 870.465V869.047C1581.32 868.539 1582.93 867.309 1582.93 865.355C1582.93 863.809 1582.04 863.035 1580.25 863.035H1575.47V878H1573.3ZM1588.61 878V861.242H1591.36L1597.52 875.223L1603.55 861.242H1606.19V878H1604.25V864.254L1598.3 878H1596.59L1590.54 864.254V878H1588.61ZM1609.94 877.414V875.422C1611.7 876.047 1613.59 876.359 1615.63 876.359C1618.52 876.359 1619.96 875.305 1619.96 873.195C1619.96 871.398 1618.89 870.5 1616.77 870.5H1614.61C1611.11 870.5 1609.35 868.977 1609.35 865.93C1609.35 862.727 1611.6 861.125 1616.09 861.125C1618.04 861.125 1619.86 861.359 1621.54 861.828V863.82C1619.86 863.195 1618.04 862.883 1616.09 862.883C1613.04 862.883 1611.52 863.898 1611.52 865.93C1611.52 867.727 1612.55 868.625 1614.61 868.625H1616.77C1620.34 868.625 1622.12 870.148 1622.12 873.195C1622.12 876.477 1619.96 878.117 1615.63 878.117C1613.59 878.117 1611.7 877.883 1609.94 877.414ZM1630.33 865.754C1630.33 862.746 1632.32 861.242 1636.3 861.242C1637.75 861.242 1639.16 861.438 1640.52 861.828V863.586C1639.16 863.195 1637.8 863 1636.46 863C1633.82 863 1632.5 863.898 1632.5 865.695C1632.5 867.648 1633.49 868.625 1635.48 868.625H1640.03V866.961H1640.77L1641.96 868.625H1644.1V870.383H1642.2V872.258C1642.2 876.109 1640.18 878.035 1636.13 878.035C1632.26 878.035 1630.33 876.484 1630.33 873.383C1630.33 871.453 1631.08 870.152 1632.59 869.48C1631.08 868.816 1630.33 867.574 1630.33 865.754ZM1635.51 870.383C1633.5 870.383 1632.5 871.363 1632.5 873.324C1632.5 875.27 1633.67 876.242 1636.02 876.242C1638.7 876.242 1640.03 874.906 1640.03 872.234V870.383H1635.51ZM1664.62 877.414C1663.17 877.883 1661.61 878.117 1659.93 878.117C1654.07 878.117 1651.14 875.207 1651.14 869.387C1651.14 863.879 1654.07 861.125 1659.93 861.125C1661.61 861.125 1663.17 861.359 1664.62 861.828V863.703C1663.17 863.156 1661.69 862.883 1660.16 862.883C1655.59 862.883 1653.31 865.051 1653.31 869.387C1653.31 874.035 1655.59 876.359 1660.16 876.359C1661.69 876.359 1663.17 876.086 1664.62 875.539V877.414ZM1669.9 869.574C1669.9 874.098 1671.95 876.359 1676.03 876.359C1680.03 876.359 1682.03 874.098 1682.03 869.574C1682.03 865.113 1680.03 862.883 1676.03 862.883C1671.95 862.883 1669.9 865.113 1669.9 869.574ZM1667.62 869.645C1667.62 863.965 1670.42 861.125 1676.03 861.125C1681.55 861.125 1684.32 863.965 1684.32 869.645C1684.32 875.293 1681.55 878.117 1676.03 878.117C1670.42 878.117 1667.62 875.293 1667.62 869.645ZM1687.73 878V861.242H1689.89L1700.15 874.742V861.242H1702.2V878H1700.03L1689.78 864.383V878H1687.73ZM1712.29 876.242C1716.39 876.242 1718.44 873.883 1718.44 869.164C1718.44 865.055 1716.39 863 1712.29 863H1708.36V876.242H1712.29ZM1706.2 878V861.242H1712.29C1717.84 861.242 1720.61 863.883 1720.61 869.164C1720.61 875.055 1717.84 878 1712.29 878H1706.2ZM1726.29 861.242V878H1724.12V861.242H1726.29ZM1741.95 861.242V863H1736.68V878H1734.51V863H1729.23V861.242H1741.95ZM1747.06 861.242V878H1744.89V861.242H1747.06ZM1753.11 869.574C1753.11 874.098 1755.15 876.359 1759.23 876.359C1763.23 876.359 1765.23 874.098 1765.23 869.574C1765.23 865.113 1763.23 862.883 1759.23 862.883C1755.15 862.883 1753.11 865.113 1753.11 869.574ZM1750.82 869.645C1750.82 863.965 1753.62 861.125 1759.23 861.125C1764.76 861.125 1767.52 863.965 1767.52 869.645C1767.52 875.293 1764.76 878.117 1759.23 878.117C1753.62 878.117 1750.82 875.293 1750.82 869.645ZM1770.93 878V861.242H1773.1L1783.35 874.742V861.242H1785.4V878H1783.23L1772.98 864.383V878H1770.93ZM1789.16 877.414V875.422C1790.92 876.047 1792.82 876.359 1794.86 876.359C1797.74 876.359 1799.18 875.305 1799.18 873.195C1799.18 871.398 1798.12 870.5 1796 870.5H1793.84C1790.33 870.5 1788.58 868.977 1788.58 865.93C1788.58 862.727 1790.82 861.125 1795.32 861.125C1797.27 861.125 1799.09 861.359 1800.77 861.828V863.82C1799.09 863.195 1797.27 862.883 1795.32 862.883C1792.27 862.883 1790.75 863.898 1790.75 865.93C1790.75 867.727 1791.78 868.625 1793.84 868.625H1796C1799.57 868.625 1801.35 870.148 1801.35 873.195C1801.35 876.477 1799.19 878.117 1794.86 878.117C1792.82 878.117 1790.92 877.883 1789.16 877.414Z" fill="white"/>
<rect width="1912" height="103" fill="#423ABA"/>
<path d="M1500.99 59V42.2422H1508.14C1511.33 42.2422 1512.92 43.582 1512.92 46.2617C1512.92 48.4414 1511.36 50.0547 1508.25 51.1016L1514 59H1511.14L1505.81 51.4648V50.0469C1509.01 49.5391 1510.61 48.3086 1510.61 46.3555C1510.61 44.8086 1509.72 44.0352 1507.94 44.0352H1503.16V59H1500.99ZM1527.25 42.2422V44H1518.46V49.625H1526.84V51.3828H1518.46V57.2422H1527.43V59H1516.3V42.2422H1527.25ZM1543.37 58.3438C1542.02 58.8594 1540.56 59.1172 1539 59.1172C1532.93 59.1172 1529.89 56.207 1529.89 50.3867C1529.89 44.8789 1532.82 42.125 1538.68 42.125C1540.36 42.125 1541.92 42.3594 1543.37 42.8281V44.7031C1541.92 44.1562 1540.44 43.8828 1538.91 43.8828C1534.34 43.8828 1532.06 46.0508 1532.06 50.3867C1532.06 55.0352 1534.31 57.3594 1538.81 57.3594C1539.53 57.3594 1540.32 57.2656 1541.2 57.0781V51.3828H1543.37V58.3438ZM1549.47 42.2422V59H1547.3V42.2422H1549.47ZM1553.59 58.4141V56.4219C1555.34 57.0469 1557.24 57.3594 1559.28 57.3594C1562.16 57.3594 1563.61 56.3047 1563.61 54.1953C1563.61 52.3984 1562.54 51.5 1560.42 51.5H1558.26C1554.75 51.5 1553 49.9766 1553 46.9297C1553 43.7266 1555.25 42.125 1559.74 42.125C1561.69 42.125 1563.51 42.3594 1565.19 42.8281V44.8203C1563.51 44.1953 1561.69 43.8828 1559.74 43.8828C1556.69 43.8828 1555.17 44.8984 1555.17 46.9297C1555.17 48.7266 1556.2 49.625 1558.26 49.625H1560.42C1563.99 49.625 1565.77 51.1484 1565.77 54.1953C1565.77 57.4766 1563.61 59.1172 1559.28 59.1172C1557.24 59.1172 1555.34 58.8828 1553.59 58.4141ZM1580.25 42.2422V44H1574.97V59H1572.8V44H1567.53V42.2422H1580.25ZM1593.79 42.2422V44H1585V49.625H1593.38V51.3828H1585V57.2422H1593.97V59H1582.84V42.2422H1593.79ZM1597.25 59V42.2422H1604.4C1607.59 42.2422 1609.18 43.582 1609.18 46.2617C1609.18 48.4414 1607.62 50.0547 1604.5 51.1016L1610.26 59H1607.4L1602.07 51.4648V50.0469C1605.27 49.5391 1606.87 48.3086 1606.87 46.3555C1606.87 44.8086 1605.98 44.0352 1604.2 44.0352H1599.42V59H1597.25Z" fill="white"/>
<path d="M1676.76 58.4141V56.4219C1678.52 57.0469 1680.41 57.3594 1682.45 57.3594C1685.34 57.3594 1686.78 56.3047 1686.78 54.1953C1686.78 52.3984 1685.71 51.5 1683.59 51.5H1681.43C1677.93 51.5 1676.17 49.9766 1676.17 46.9297C1676.17 43.7266 1678.42 42.125 1682.91 42.125C1684.86 42.125 1686.68 42.3594 1688.36 42.8281V44.8203C1686.68 44.1953 1684.86 43.8828 1682.91 43.8828C1679.86 43.8828 1678.34 44.8984 1678.34 46.9297C1678.34 48.7266 1679.37 49.625 1681.43 49.625H1683.59C1687.16 49.625 1688.95 51.1484 1688.95 54.1953C1688.95 57.4766 1686.78 59.1172 1682.45 59.1172C1680.41 59.1172 1678.52 58.8828 1676.76 58.4141ZM1694.63 42.2422V59H1692.46V42.2422H1694.63ZM1711.63 58.3438C1710.28 58.8594 1708.82 59.1172 1707.26 59.1172C1701.19 59.1172 1698.16 56.207 1698.16 50.3867C1698.16 44.8789 1701.09 42.125 1706.95 42.125C1708.62 42.125 1710.19 42.3594 1711.63 42.8281V44.7031C1710.19 44.1562 1708.7 43.8828 1707.18 43.8828C1702.61 43.8828 1700.32 46.0508 1700.32 50.3867C1700.32 55.0352 1702.57 57.3594 1707.07 57.3594C1707.79 57.3594 1708.59 57.2656 1709.46 57.0781V51.3828H1711.63V58.3438ZM1715.22 59V42.2422H1717.39L1727.64 55.7422V42.2422H1729.69V59H1727.52L1717.27 45.3828V59H1715.22ZM1742.07 42.2422V59H1739.9V42.2422H1742.07ZM1746.41 59V42.2422H1748.58L1758.84 55.7422V42.2422H1760.89V59H1758.72L1748.46 45.3828V59H1746.41Z" fill="white"/>
<path d="M960.392 249.217L960.391 249.217C959.016 252.582 957.475 256.275 955.813 260.162C953.499 265.576 950.95 271.366 948.282 277.155L948.282 277.155C946.64 280.718 944.954 284.275 943.249 287.751C938.666 297.069 933.942 305.746 929.572 312.116C927.387 315.302 925.302 317.893 923.38 319.696C921.441 321.515 919.744 322.458 918.333 322.508C916.759 322.564 914.837 321.479 912.625 319.286C910.437 317.117 908.063 313.961 905.59 310.103C900.645 302.391 895.352 291.951 890.394 281.195C880.482 259.687 871.944 236.983 870.263 232.464L870.263 232.464C870.246 232.417 870.229 232.372 870.213 232.329H967.114C967.048 232.501 966.97 232.705 966.88 232.939C966.558 233.776 966.084 235.001 965.478 236.549C964.264 239.646 962.519 244.038 960.392 249.217Z" fill="#3F3D56" stroke="white"/>
<path opacity="0.1" d="M960.854 249.407C959.477 252.773 957.936 256.469 956.273 260.359L918.173 231.829H937.379L960.854 249.407Z" fill="black"/>
<path opacity="0.1" d="M948.736 277.365C947.092 280.931 945.405 284.492 943.698 287.971L869.795 232.639C869.598 232.11 869.497 231.829 869.497 231.829H887.922L948.736 277.365Z" fill="black"/>
<path d="M920.373 159.351C915.865 162.388 908.736 161.239 904.404 164.456C901.44 166.656 900.649 170.418 901.458 173.691C902.267 176.965 904.416 179.87 906.578 182.665C908.07 184.594 909.617 186.538 911.714 188.005C914.645 190.056 918.407 191.011 922.094 191.778C930.124 193.447 938.324 194.458 946.581 194.796C950.263 194.947 954.433 194.796 956.914 192.478C958.359 191.127 958.94 189.277 959.363 187.488C960.025 184.688 960.393 181.675 959.025 179.067C957.9 176.924 955.735 175.317 953.543 173.891C946.668 169.418 938.571 165.714 934.374 159.275C932.706 156.716 931.678 153.75 929.15 151.764C925.855 149.176 918.523 148.117 914.643 149.847C915.242 151.009 923.076 157.531 920.373 159.351Z" fill="#433BBC"/>
<path d="M882.489 189.533C881.152 193.474 879.921 197.645 881.047 201.634C882.531 206.893 887.953 210.832 893.902 212.746C899.85 214.661 906.337 214.884 912.693 215.086L945.972 216.143C950.154 216.276 954.417 216.421 958.347 217.644C961.586 218.651 965.437 220.311 968.138 218.486C969.362 217.658 969.913 216.318 970.347 215.04C971.762 210.882 972.553 206.316 970.651 202.3C968.471 197.699 963.097 194.676 957.516 193.23C951.935 191.785 946.025 191.644 940.227 191.099C934.345 190.545 928.53 189.566 922.843 188.172C918.09 187.007 913.273 185.47 909.757 182.511C907.855 180.91 906.415 178.958 904.622 177.268C894.352 167.59 885.015 182.085 882.489 189.533Z" fill="#433BBC"/>
<path d="M875.176 207.641C871.94 208.873 869.132 210.796 867.026 213.222C864.919 215.649 863.586 218.497 863.153 221.49C862.721 224.483 863.206 227.521 864.559 230.308C865.913 233.096 868.09 235.539 870.88 237.401C875.947 240.783 882.579 241.958 889.003 242.352C895.277 242.737 901.577 242.472 907.859 242.208L963.442 239.867C966.7 239.729 970.387 239.41 972.376 237.212C973.861 235.571 973.948 233.308 973.594 231.259C972.319 223.892 965.776 217.369 957.421 215.136C954.27 214.294 950.953 214.027 947.664 213.766L923.838 211.87C920.629 211.614 917.401 211.356 914.292 210.638C904.869 208.46 896.45 202.101 886.749 203.042C880.167 203.681 874.748 207.599 869.967 211.498" fill="#433BBC"/>
<path opacity="0.1" d="M906.296 175.72C906.296 175.72 914.073 187.659 953.963 192.48L906.296 175.72Z" fill="black"/>
<path opacity="0.1" d="M884.231 206.991C884.231 206.991 898.682 219.42 958.323 219.42L884.231 206.991Z" fill="black"/>
<path d="M917.716 169.785C919.819 169.785 921.523 169.302 921.523 168.706C921.523 168.11 919.819 167.627 917.716 167.627C915.614 167.627 913.91 168.11 913.91 168.706C913.91 169.302 915.614 169.785 917.716 169.785Z" fill="#3F3D56"/>
<path d="M930.406 176.799C932.508 176.799 934.213 176.315 934.213 175.72C934.213 175.124 932.508 174.641 930.406 174.641C928.303 174.641 926.599 175.124 926.599 175.72C926.599 176.315 928.303 176.799 930.406 176.799Z" fill="#3F3D56"/>
<path d="M944.999 184.352C947.101 184.352 948.805 183.869 948.805 183.273C948.805 182.677 947.101 182.194 944.999 182.194C942.896 182.194 941.192 182.677 941.192 183.273C941.192 183.869 942.896 184.352 944.999 184.352Z" fill="#3F3D56"/>
<path d="M894.241 187.589C896.343 187.589 898.048 187.106 898.048 186.51C898.048 185.914 896.343 185.431 894.241 185.431C892.139 185.431 890.434 185.914 890.434 186.51C890.434 187.106 892.139 187.589 894.241 187.589Z" fill="#3F3D56"/>
<path d="M926.599 197.84C928.701 197.84 930.406 197.357 930.406 196.761C930.406 196.165 928.701 195.682 926.599 195.682C924.497 195.682 922.792 196.165 922.792 196.761C922.792 197.357 924.497 197.84 926.599 197.84Z" fill="#3F3D56"/>
<path d="M880.917 218.881C883.02 218.881 884.724 218.398 884.724 217.802C884.724 217.206 883.02 216.723 880.917 216.723C878.815 216.723 877.11 217.206 877.11 217.802C877.11 218.398 878.815 218.881 880.917 218.881Z" fill="#3F3D56"/>
<path d="M905.027 198.919C907.129 198.919 908.834 198.436 908.834 197.84C908.834 197.244 907.129 196.761 905.027 196.761C902.925 196.761 901.22 197.244 901.22 197.84C901.22 198.436 902.925 198.919 905.027 198.919Z" fill="#3F3D56"/>
<path d="M890.434 226.974C892.537 226.974 894.241 226.491 894.241 225.895C894.241 225.299 892.537 224.816 890.434 224.816C888.332 224.816 886.627 225.299 886.627 225.895C886.627 226.491 888.332 226.974 890.434 226.974Z" fill="#3F3D56"/>
<path d="M915.179 222.118C917.281 222.118 918.985 221.635 918.985 221.039C918.985 220.443 917.281 219.96 915.179 219.96C913.076 219.96 911.372 220.443 911.372 221.039C911.372 221.635 913.076 222.118 915.179 222.118Z" fill="#3F3D56"/>
<path d="M930.089 248.015C932.366 248.015 934.213 244.754 934.213 240.731C934.213 236.709 932.366 233.448 930.089 233.448C927.811 233.448 925.965 236.709 925.965 240.731C925.965 244.754 927.811 248.015 930.089 248.015Z" fill="#433BBC"/>
<path d="M935.164 250.712C937.442 250.712 939.288 247.451 939.288 243.429C939.288 239.406 937.442 236.145 935.164 236.145C932.887 236.145 931.04 239.406 931.04 243.429C931.04 247.451 932.887 250.712 935.164 250.712Z" fill="#433BBC"/>
<path d="M926.703 313.66C926.737 313.516 927.592 310.071 932.066 305.046C936.171 300.436 944.245 293.575 959.4 287.075C988.11 274.761 994.534 251.625 994.595 251.393L995.363 251.54C995.347 251.599 993.74 257.522 988.568 264.894C981.705 274.661 971.709 282.563 959.754 287.672C931.093 299.966 927.506 313.656 927.473 313.792L926.703 313.66Z" fill="#3F3D56"/>
<path d="M996.064 248.918C998.886 248.918 1001.17 246.972 1001.17 244.572C1001.17 242.172 998.886 240.226 996.064 240.226C993.242 240.226 990.953 242.172 990.953 244.572C990.953 246.972 993.242 248.918 996.064 248.918Z" fill="#433BBC"/>
<path d="M995.053 270.002C997.875 270.002 1000.16 268.056 1000.16 265.656C1000.16 263.256 997.875 261.311 995.053 261.311C992.23 261.311 989.942 263.256 989.942 265.656C989.942 268.056 992.23 270.002 995.053 270.002Z" fill="#3F3D56"/>
<path d="M978.428 271.482C981.251 271.482 983.539 269.536 983.539 267.136C983.539 264.736 981.251 262.79 978.428 262.79C975.606 262.79 973.318 264.736 973.318 267.136C973.318 269.536 975.606 271.482 978.428 271.482Z" fill="#433BBC"/>
<path d="M981.012 285.827C983.835 285.827 986.123 283.882 986.123 281.482C986.123 279.082 983.835 277.136 981.012 277.136C978.19 277.136 975.902 279.082 975.902 281.482C975.902 283.882 978.19 285.827 981.012 285.827Z" fill="#433BBC"/>
<path d="M957.103 286.122C959.925 286.122 962.213 284.176 962.213 281.776C962.213 279.376 959.925 277.431 957.103 277.431C954.28 277.431 951.992 279.376 951.992 281.776C951.992 284.176 954.28 286.122 957.103 286.122Z" fill="#3F3D56"/>
<path d="M928.839 315.562C928.839 315.562 933.644 304.764 951.301 307.745L928.839 315.562Z" fill="#3F3D56"/>
<path d="M924.385 311.786C924.385 311.786 931.775 302.1 918.497 291.764L924.385 311.786Z" fill="#3F3D56"/>
<path d="M844.92 196.299L836.46 193.46L828 190.622L835.121 185.811L842.242 181L843.581 188.65L844.92 196.299Z" fill="#C2C2C2"/>
<path d="M878.98 146.074L870.99 149.768L863 153.463L863.232 145.731L863.465 138L871.223 142.037L878.98 146.074Z" fill="#C2C2C2"/>
<path d="M1010.92 196.299L1002.46 193.46L994 190.622L1001.12 185.811L1008.24 181L1009.58 188.65L1010.92 196.299Z" fill="#C2C2C2"/>
<path d="M979.92 153.299L971.46 150.46L963 147.622L970.121 142.811L977.242 138L978.581 145.65L979.92 153.299Z" fill="#C2C2C2"/>
<path d="M933.98 126.074L925.99 129.768L918 133.463L918.232 125.731L918.465 118L926.223 122.037L933.98 126.074Z" fill="#C2C2C2"/>
<rect width="385" height="373" transform="translate(1420 384)" fill="white"/>
<path d="M1606.59 757C1709.64 757 1793.18 730.988 1793.18 698.901C1793.18 666.813 1709.64 640.801 1606.59 640.801C1503.54 640.801 1420 666.813 1420 698.901C1420 730.988 1503.54 757 1606.59 757Z" fill="#F5F5F5"/>
<path d="M1707.76 570.581C1707.76 570.581 1684.66 588.383 1690.76 622.353C1696.86 656.324 1658.32 703.698 1658.32 703.698C1658.32 703.698 1658.65 703.698 1659.27 703.698C1700.99 703.475 1729.05 656.761 1712.44 615.053C1706.27 599.55 1701.97 581.899 1707.76 570.581Z" fill="#433BBC"/>
<path d="M1707.76 570.581C1707.76 570.581 1692.5 594.843 1700.23 618.411C1707.96 641.979 1689.27 700.582 1658.33 703.698" stroke="#535461" stroke-miterlimit="10"/>
<path d="M1729.2 664.071C1729.2 664.071 1707.32 655.963 1701.81 677.555C1696.3 699.148 1654.6 694.469 1654.6 694.469C1654.6 694.469 1654.84 694.721 1655.29 695.172C1685.49 725.875 1719.41 723.12 1719.59 689.876C1719.66 677.522 1721.71 665.496 1729.2 664.071Z" fill="#433BBC"/>
<path opacity="0.2" d="M1729.2 664.071C1729.2 664.071 1707.32 655.963 1701.81 677.555C1696.3 699.148 1654.6 694.469 1654.6 694.469C1654.6 694.469 1654.84 694.721 1655.29 695.172C1685.49 725.875 1719.41 723.12 1719.59 689.876C1719.66 677.522 1721.71 665.496 1729.2 664.071Z" fill="#F5F5F5"/>
<path d="M1729.2 664.071C1729.2 664.071 1711.08 664.987 1709.79 682.557C1708.5 700.126 1677.88 715.748 1654.6 694.469" stroke="#535461" stroke-miterlimit="10"/>
<path d="M1690.78 614.777C1692.09 607.653 1691.79 597.275 1681.09 592.221C1686.81 582.203 1684.12 575.122 1678.95 572.609C1678.92 569.997 1678.29 564.696 1674.08 561.851C1674.64 556.92 1675.55 537.323 1655.23 535.128C1652.84 530.645 1645.38 518.504 1633.22 515.141V497.567C1630.3 504.269 1611.87 508.097 1611.87 508.097C1590.75 511.313 1586.01 524.318 1584.94 529.999C1582.22 530.089 1579.83 530.474 1578.48 531.395C1574.05 534.411 1542.45 543.412 1544.92 567.275C1544.49 567.436 1544.08 567.598 1543.65 567.75C1543.65 567.75 1526.36 582.783 1531.01 594.738L1529.27 594.876C1529.27 594.876 1519.25 601.63 1522.33 614.939C1521.92 615.423 1521.63 616.01 1521.47 616.647C1521.32 617.284 1521.32 617.951 1521.46 618.591L1545.29 705.175C1545.45 705.779 1545.79 706.308 1546.25 706.676C1547.33 707.493 1549.56 709.122 1552.82 711.098L1552.85 711.236L1552.99 711.203C1556.71 713.435 1560.54 715.426 1564.47 717.164V717.263L1564.61 717.235C1567.37 718.456 1570.4 719.653 1573.67 720.754V720.83H1573.82C1576.85 721.842 1580.08 722.773 1583.5 723.562V723.609H1583.65C1586.86 724.345 1590.24 724.953 1593.77 725.39H1593.91C1598.25 725.92 1602.61 726.162 1606.98 726.112H1607.27C1611.36 726.05 1615.45 725.732 1619.5 725.162H1619.65V725.134C1622.93 724.671 1626.28 724.024 1629.71 723.191L1629.68 723.562L1629.97 723.595L1630.01 723.12C1633.43 722.271 1636.92 721.212 1640.47 719.942H1640.62V719.866C1643.57 718.799 1646.56 717.574 1649.59 716.19L1649.73 716.218V716.114C1653.25 714.496 1656.81 712.642 1660.41 710.552L1660.56 710.585L1660.58 710.452C1662.62 709.265 1664.67 707.998 1666.73 706.652C1667.28 706.293 1667.68 705.724 1667.87 705.056L1691.62 618.406C1691.76 617.768 1691.76 617.102 1691.6 616.467C1691.45 615.832 1691.16 615.247 1690.75 614.763L1690.78 614.777Z" fill="url(#paint0_linear)"/>
<path d="M1654.26 539.536C1654.26 539.536 1643.54 515.55 1623.22 518.01C1602.9 520.471 1624.63 543.227 1624.63 543.227C1624.63 543.227 1649.46 545.378 1654.26 539.536Z" fill="#433BBC"/>
<path opacity="0.1" d="M1654.26 539.536C1654.26 539.536 1643.54 515.55 1623.22 518.01C1602.9 520.471 1624.63 543.227 1624.63 543.227C1624.63 543.227 1649.46 545.378 1654.26 539.536Z" fill="black"/>
<path d="M1585.41 535.537C1585.41 535.537 1585.41 535.223 1585.46 534.672C1585.82 530.83 1588.71 515.355 1611.65 511.874C1611.65 511.874 1629.43 508.183 1632.25 501.723V521.406C1632.25 521.406 1628.58 535.247 1610.24 539.859C1591.9 544.471 1585.41 535.537 1585.41 535.537Z" fill="#433BBC"/>
<path d="M1532.07 595.503C1532.07 595.503 1518.79 604.423 1528.12 621.95C1537.45 639.476 1685.58 621.95 1685.58 621.95C1685.58 621.95 1695.17 600.424 1677.96 592.734C1660.76 585.044 1532.07 595.503 1532.07 595.503Z" fill="#784F69"/>
<path opacity="0.1" d="M1676.46 574.651C1676.43 572.134 1675.82 567.052 1671.76 564.287C1672.3 559.538 1673.18 540.648 1653.59 538.534C1651.29 534.212 1644.11 522.489 1632.39 519.274V502.322C1629.57 508.781 1611.79 512.472 1611.79 512.472C1591.44 515.574 1586.87 528.104 1585.84 533.575C1583.23 533.661 1580.92 534.05 1579.62 534.919C1575.35 537.826 1544.89 546.499 1547.26 569.498C1546.85 569.65 1546.44 569.811 1546.04 569.973C1546.04 569.973 1522.02 590.872 1539.43 602.419C1539.43 602.419 1547.45 619.18 1570.87 606.261L1570.95 606.209C1579.77 608.968 1603.4 614.758 1617.43 603.183L1618.44 602.352C1624.02 605.976 1637.24 612.602 1648.47 603.183L1648.57 603.103C1652.93 607.572 1661.8 613.262 1672.46 601.644C1685.23 587.746 1682.75 577.72 1676.46 574.651Z" fill="black"/>
<path d="M1645.51 598.885C1645.51 598.885 1657.08 617.642 1672.32 601.036C1687.56 584.431 1681.07 573.359 1672.32 573.051C1663.57 572.742 1645.51 598.885 1645.51 598.885Z" fill="#433BBC"/>
<path opacity="0.15" d="M1645.51 598.885C1645.51 598.885 1657.08 617.642 1672.32 601.036C1687.56 584.431 1681.07 573.359 1672.32 573.051C1663.57 572.742 1645.51 598.885 1645.51 598.885Z" fill="black"/>
<path d="M1676.27 575.516C1676.27 575.516 1679.09 549.392 1642.71 569.365C1606.33 589.338 1615.62 599.811 1615.62 599.811C1615.62 599.811 1633.68 614.882 1648.35 602.58C1663.02 590.278 1672.04 586.587 1676.27 575.516Z" fill="#433BBC"/>
<path opacity="0.1" d="M1676.27 575.516C1676.27 575.516 1679.09 549.392 1642.71 569.365C1606.33 589.338 1615.62 599.811 1615.62 599.811C1615.62 599.811 1633.68 614.882 1648.35 602.58C1663.02 590.278 1672.04 586.587 1676.27 575.516Z" fill="black"/>
<path d="M1648.34 567.517C1648.34 567.517 1634.51 557.068 1613.35 567.517C1592.19 577.967 1567.35 604.423 1567.35 604.423C1567.35 604.423 1599.8 617.048 1617.29 602.575C1634.79 588.103 1647.49 577.359 1648.34 567.517Z" fill="#433BBC"/>
<path opacity="0.07" d="M1648.34 567.517C1648.34 567.517 1634.51 557.068 1613.35 567.517C1592.19 577.967 1567.35 604.423 1567.35 604.423C1567.35 604.423 1599.8 617.048 1617.29 602.575C1634.79 588.103 1647.49 577.359 1648.34 567.517Z" fill="black"/>
<path d="M1619.84 565.983C1619.84 565.983 1591.61 561.68 1578.63 570.286C1565.66 578.893 1539.28 601.811 1539.28 601.811C1539.28 601.811 1547.29 618.573 1570.72 605.653C1570.73 605.648 1619.27 572.747 1619.84 565.983Z" fill="#433BBC"/>
<path opacity="0.03" d="M1619.84 565.983C1619.84 565.983 1591.61 561.68 1578.63 570.286C1565.66 578.893 1539.28 601.811 1539.28 601.811C1539.28 601.811 1547.29 618.573 1570.72 605.653C1570.73 605.648 1619.27 572.747 1619.84 565.983Z" fill="black"/>
<path d="M1545.9 569.365C1545.9 569.365 1520.79 591.214 1540.54 602.58C1540.54 602.58 1582.3 572.751 1583.15 569.365C1583.15 569.365 1563.69 561.984 1545.9 569.365Z" fill="#433BBC"/>
<path d="M1600.64 534.307C1600.64 534.307 1584 531.234 1579.48 534.307C1574.96 537.38 1541.1 546.917 1547.87 573.055L1558.02 569.075C1558.02 569.075 1577.51 542.301 1600.64 534.307Z" fill="#433BBC"/>
<path opacity="0.1" d="M1600.64 534.307C1600.64 534.307 1584 531.234 1579.48 534.307C1574.96 537.38 1541.1 546.917 1547.87 573.055L1558.02 569.075C1558.02 569.075 1577.51 542.301 1600.64 534.307Z" fill="black"/>
<path d="M1628.3 538.306C1628.3 538.306 1616.45 526.313 1590.2 537.385C1563.96 548.456 1555.21 568.443 1555.21 568.443L1594.58 571.673C1594.58 571.673 1616.73 537.076 1628.3 538.306Z" fill="#433BBC"/>
<path opacity="0.07" d="M1628.3 538.306C1628.3 538.306 1616.45 526.313 1590.2 537.385C1563.96 548.456 1555.21 568.443 1555.21 568.443L1594.58 571.673C1594.58 571.673 1616.73 537.076 1628.3 538.306Z" fill="black"/>
<path d="M1646.64 539.84C1646.64 539.84 1627.73 533.077 1613.08 542.301C1598.43 551.525 1593.03 569.669 1593.03 569.669L1616.45 568.439C1616.45 568.439 1634.79 537.076 1646.64 539.84Z" fill="#433BBC"/>
<path opacity="0.03" d="M1646.64 539.84C1646.64 539.84 1627.73 533.077 1613.08 542.301C1598.43 551.525 1593.03 569.669 1593.03 569.669L1616.45 568.439C1616.45 568.439 1634.79 537.076 1646.64 539.84Z" fill="black"/>
<path d="M1671.47 564.753C1671.47 564.753 1677.96 528.773 1635.07 539.845C1635.07 539.845 1610.7 563.219 1617.53 569.674C1624.36 576.128 1671.47 564.753 1671.47 564.753Z" fill="#433BBC"/>
<path opacity="0.1" d="M1524.52 617.746L1547.49 701.185C1547.65 701.763 1547.98 702.265 1548.44 702.61C1554.85 707.498 1604.18 742.176 1664.58 702.61C1665.11 702.263 1665.5 701.714 1665.67 701.071L1688.57 617.57C1688.69 617.115 1688.7 616.631 1688.6 616.169C1688.5 615.707 1688.29 615.283 1687.99 614.94C1687.68 614.596 1687.3 614.346 1686.89 614.214C1686.47 614.082 1686.02 614.073 1685.6 614.188L1675.65 616.896C1675.31 616.99 1674.96 617.003 1674.61 616.934L1665.26 615.034C1664.71 614.923 1664.14 615.018 1663.65 615.305L1652.55 621.755C1652.02 622.064 1651.39 622.149 1650.81 621.992L1638.87 618.758C1638.42 618.634 1637.94 618.652 1637.5 618.81L1623.64 623.755C1623.33 623.865 1623 623.908 1622.67 623.88C1622.35 623.853 1622.03 623.755 1621.74 623.593L1612.56 618.473C1611.98 618.148 1611.3 618.086 1610.68 618.302L1598.84 622.42C1598.54 622.523 1598.22 622.563 1597.91 622.539L1586.51 621.669C1586.34 621.657 1586.17 621.625 1586 621.574L1576.96 618.758C1576.58 618.64 1576.17 618.623 1575.78 618.71L1563.25 621.484C1562.78 621.589 1562.29 621.543 1561.85 621.351L1549.64 616.084C1549.21 615.899 1548.75 615.848 1548.3 615.936L1538.58 617.836C1538.19 617.913 1537.78 617.886 1537.4 617.756L1527.61 614.402C1527.19 614.259 1526.73 614.245 1526.3 614.361C1525.86 614.478 1525.47 614.721 1525.15 615.064C1524.83 615.407 1524.6 615.838 1524.49 616.31C1524.38 616.783 1524.39 617.279 1524.52 617.746Z" fill="black"/>
<path d="M1524.52 618.359L1547.49 701.798C1547.65 702.375 1547.98 702.877 1548.44 703.223C1554.85 708.111 1604.18 742.789 1664.58 703.223C1665.11 702.876 1665.5 702.327 1665.67 701.684L1688.57 618.183C1688.69 617.728 1688.7 617.244 1688.6 616.782C1688.5 616.32 1688.29 615.896 1687.99 615.552C1687.68 615.209 1687.3 614.958 1686.89 614.826C1686.47 614.695 1686.02 614.686 1685.6 614.801L1675.66 617.523C1675.32 617.617 1674.96 617.63 1674.62 617.561L1665.27 615.661C1664.72 615.55 1664.15 615.645 1663.66 615.932L1652.56 622.382C1652.02 622.691 1651.4 622.776 1650.82 622.619L1638.88 619.37C1638.43 619.247 1637.96 619.265 1637.51 619.423L1623.65 624.367C1623.34 624.478 1623.01 624.521 1622.69 624.493C1622.36 624.465 1622.04 624.368 1621.75 624.206L1612.57 619.076C1611.99 618.751 1611.31 618.689 1610.69 618.905L1598.85 623.023C1598.55 623.126 1598.24 623.166 1597.93 623.142L1586.51 622.273C1586.34 622.26 1586.17 622.228 1586 622.178L1576.96 619.361C1576.58 619.243 1576.17 619.227 1575.78 619.313L1563.25 622.097C1562.78 622.202 1562.29 622.156 1561.85 621.964L1549.64 616.696C1549.21 616.512 1548.75 616.461 1548.3 616.549L1538.58 618.449C1538.19 618.526 1537.78 618.498 1537.4 618.368L1527.61 615.015C1527.19 614.872 1526.73 614.858 1526.3 614.974C1525.86 615.091 1525.47 615.333 1525.15 615.677C1524.83 616.02 1524.6 616.451 1524.49 616.923C1524.38 617.395 1524.39 617.892 1524.52 618.359Z" fill="#4D4981"/>
<path opacity="0.5" d="M1549.72 588.611L1547.31 587.699L1545.97 585.348L1551.96 577.178L1554.36 578.09L1555.7 580.441L1549.72 588.611Z" fill="white"/>
<path opacity="0.5" d="M1663.44 602.452L1661.04 601.54L1659.69 599.189L1665.68 591.019L1668.08 591.926L1669.43 594.277L1663.44 602.452Z" fill="white"/>
<path opacity="0.5" d="M1613.49 557.856L1611.09 556.949L1609.75 554.598L1615.73 546.423L1618.14 547.335L1619.48 549.686L1613.49 557.856Z" fill="white"/>
<path opacity="0.5" d="M1626.97 587.903L1624.65 589.024L1622.19 588.312L1621.44 577.886L1623.76 576.765L1626.22 577.477L1626.97 587.903Z" fill="white"/>
<path opacity="0.5" d="M1587.84 562.311L1586.23 564.463L1583.74 565.038L1578.74 556.118L1580.35 553.966L1582.84 553.391L1587.84 562.311Z" fill="white"/>
<path opacity="0.5" d="M1585.02 587.528L1583.41 589.68L1580.92 590.254L1575.92 581.334L1577.52 579.183L1580.01 578.608L1585.02 587.528Z" fill="white"/>
<path opacity="0.5" d="M1654.03 589.984L1652.19 591.893L1649.65 592.116L1645.74 582.569L1647.59 580.66L1650.12 580.437L1654.03 589.984Z" fill="white"/>
<path opacity="0.5" d="M1641.46 557.267L1642.08 554.579L1644.11 552.916L1652.11 558.702L1651.48 561.39L1649.45 563.057L1641.46 557.267Z" fill="white"/>
<path opacity="0.5" d="M1556.49 561.243L1554.09 560.331L1552.74 557.98L1558.73 549.81L1561.13 550.717L1562.48 553.068L1556.49 561.243Z" fill="#FD6F8D"/>
<path opacity="0.5" d="M1586.73 545.882L1586.14 543.189L1587.24 540.686L1596.78 541.792L1597.37 544.49L1596.27 546.993L1586.73 545.882Z" fill="#FD6F8D"/>
<path opacity="0.5" d="M1632.96 530.55L1633.44 527.828L1635.38 526.033L1643.67 531.295L1643.19 534.017L1641.25 535.812L1632.96 530.55Z" fill="#FD6F8D"/>
<path opacity="0.5" d="M1614.48 516.818L1616.96 516.201L1619.24 517.421L1618.13 527.809L1615.65 528.422L1613.37 527.201L1614.48 516.818Z" fill="#FD6F8D"/>
<path opacity="0.5" d="M1597.45 598.78L1596.87 596.082L1597.96 593.579L1607.5 594.686L1608.09 597.384L1607 599.887L1597.45 598.78Z" fill="#FD6F8D"/>
<path opacity="0.5" d="M1562.18 600.751L1560.67 598.514L1560.79 595.75L1569.97 592.715L1571.48 594.952L1571.36 597.721L1562.18 600.751Z" fill="#FD6F8D"/>
<path opacity="0.5" d="M1660.94 582.227L1658.85 580.646L1658.14 577.981L1665.93 571.877L1668.01 573.459L1668.72 576.119L1660.94 582.227Z" fill="#FD6F8D"/>
<path opacity="0.5" d="M1594.9 584.379L1592.82 582.797L1592.1 580.137L1599.89 574.029L1601.98 575.611L1602.69 578.271L1594.9 584.379Z" fill="#FD6F8D"/>
<path opacity="0.1" d="M1548.31 615.936L1538.6 617.836C1538.21 617.913 1537.8 617.886 1537.42 617.756L1537.26 617.699L1554.94 706.994L1537.26 617.699L1527.63 614.402C1527.21 614.257 1526.75 614.241 1526.32 614.356C1525.88 614.47 1525.48 614.711 1525.17 615.052C1524.85 615.393 1524.62 615.822 1524.51 616.293C1524.39 616.764 1524.4 617.26 1524.52 617.727L1547.49 701.166C1547.65 701.744 1547.99 702.246 1548.44 702.591C1550.45 704.125 1556.68 708.586 1566.15 712.765L1549.02 615.87C1548.78 615.854 1548.55 615.877 1548.31 615.936Z" fill="black"/>
<path opacity="0.1" d="M1685.61 614.198L1675.66 616.905C1675.32 616.999 1674.96 617.012 1674.62 616.943L1665.27 615.043C1664.98 614.987 1664.68 614.987 1664.4 615.043L1648.05 711.796L1664.39 615.048C1664.13 615.097 1663.88 615.19 1663.66 615.324L1652.56 621.774C1652.05 622.067 1651.47 622.159 1650.91 622.035L1639.26 715.397C1645.9 712.995 1652.34 709.975 1658.5 706.372L1676.33 616.72L1658.5 706.344C1660.52 705.172 1662.55 703.918 1664.6 702.582C1665.13 702.235 1665.52 701.686 1665.69 701.043L1688.59 617.542C1688.7 617.088 1688.71 616.608 1688.6 616.151C1688.5 615.693 1688.28 615.274 1687.98 614.936C1687.68 614.597 1687.3 614.351 1686.89 614.221C1686.47 614.092 1686.03 614.084 1685.61 614.198Z" fill="black"/>
<path d="M1650.8 622.007L1638.87 618.758C1638.64 618.696 1638.4 618.67 1638.17 618.682L1629.06 718.494C1632.4 717.667 1635.81 716.635 1639.28 715.397L1650.92 622.035L1650.8 622.007Z" fill="#4D4981"/>
<g opacity="0.5">
<path opacity="0.5" d="M1537.4 618.273L1537.12 618.338L1554.81 707.615L1555.08 707.55L1537.4 618.273Z" fill="white"/>
<path opacity="0.5" d="M1562.7 622.218L1562.42 622.262L1574.91 716.848L1575.19 716.805L1562.7 622.218Z" fill="white"/>
<path opacity="0.5" d="M1549.13 616.403L1548.85 616.461L1565.99 713.455L1566.27 713.397L1549.13 616.403Z" fill="white"/>
<path opacity="0.5" d="M1576.52 619.17L1576.24 619.197L1584.37 719.525L1584.65 719.498L1576.52 619.17Z" fill="white"/>
<path opacity="0.5" d="M1591.88 622.688L1591.6 622.698L1594.25 721.265L1594.53 721.256L1591.88 622.688Z" fill="white"/>
<path opacity="0.5" d="M1606.66 620.361L1606.37 620.363L1606.97 721.963L1607.26 721.961L1606.66 620.361Z" fill="white"/>
<path opacity="0.5" d="M1622.54 624.72L1618.91 721.036L1619.19 721.048L1622.82 624.733L1622.54 624.72Z" fill="white"/>
<path opacity="0.5" d="M1638.05 619.16L1628.83 719.486L1629.11 719.517L1638.33 619.191L1638.05 619.16Z" fill="white"/>
<path opacity="0.5" d="M1648.99 620.572L1637.65 714.711L1637.93 714.751L1649.27 620.612L1648.99 620.572Z" fill="white"/>
<path opacity="0.5" d="M1664.28 615.435L1647.88 712.349L1648.16 712.405L1664.56 615.491L1664.28 615.435Z" fill="white"/>
<path opacity="0.5" d="M1676.17 617.296L1658.39 706.96L1658.67 707.025L1676.44 617.361L1676.17 617.296Z" fill="white"/>
</g>
<path d="M365.344 714.479C409.765 713.886 454.185 714.226 498.603 715.5C502.424 715.609 506.389 715.75 509.764 716.896C513.138 718.042 515.735 720.499 514.812 722.861C497.472 723.441 480.115 723.621 462.74 723.399C458.956 725.498 454.802 728.658 457.127 731.488C458.736 733.447 462.709 734.03 466.182 734.034C472.473 734.042 478.79 732.873 484.988 733.559C491.187 734.245 497.371 737.936 495.556 741.768C494.177 744.678 488.946 746.119 484.185 746.376C479.425 746.633 474.55 746.098 469.897 746.787C465.475 747.442 461.644 749.144 457.506 750.331C450.978 752.205 443.741 752.784 436.621 753.276C381.951 757.058 326.827 757.028 271.835 756.994C249.571 756.98 227.006 756.942 205.507 753.262C193.252 751.164 181.509 747.907 169.1 746.217C154.277 744.198 138.957 744.472 123.799 744.532C97.188 744.638 70.5994 744.058 44.0332 742.79C42.0562 742.696 39.6296 742.376 39.0961 741.162C38.4734 739.744 41.0004 738.638 43.1363 738.072C55.2395 734.9 67.5462 732.822 79.9401 731.857C86.217 731.357 92.6851 731.103 98.4582 729.458C104.231 727.813 109.275 724.363 109.221 720.339C109.204 719.111 108.747 717.798 109.651 716.714C110.853 715.274 113.809 714.944 116.359 714.787C144.633 713.047 173.061 712.32 201.463 712.612C211.454 712.715 221.486 712.942 231.406 712.18C239.534 711.556 247.495 710.274 255.505 709.198C266.258 707.753 313.052 700.271 319.879 706.342C324.989 710.887 314.439 711.868 328.144 713.723C340.077 715.338 353.241 714.641 365.344 714.479Z" fill="#F2F2F2"/>
<path d="M165.98 693.36C165.98 693.36 148.157 730.477 163.325 730.477C178.494 730.477 369.617 731.275 374.926 720.898C378.645 713.628 376.594 687.747 375.033 672.902C374.73 670.017 373.388 667.363 371.283 665.488C369.178 663.612 366.47 662.656 363.717 662.817C322.382 665.218 167.962 674.116 168.634 673.006C169.961 670.811 169.013 671.409 169.013 671.409C169.013 671.409 162.946 691.763 165.98 693.36Z" fill="#3F3D56"/>
<path opacity="0.1" d="M375.412 672.902C375.109 670.017 373.767 667.363 371.662 665.487C369.557 663.612 366.85 662.656 364.096 662.817C322.761 665.218 168.342 674.116 169.013 673.006C170.34 670.81 169.392 671.409 169.392 671.409C169.392 671.409 168.038 675.953 166.929 680.915C167.086 680.899 167.204 681.055 166.692 682.003C166.646 682.217 166.601 682.431 166.557 682.645C172.742 683.288 321.059 674.741 361.441 672.395C364.195 672.234 366.903 673.19 369.008 675.066C371.113 676.942 372.455 679.595 372.758 682.48C373.919 693.518 375.349 710.653 374.479 721.707C374.814 721.515 375.099 721.237 375.305 720.898C379.024 713.628 376.974 687.747 375.412 672.902Z" fill="black"/>
<path d="M187.223 637.735C185.247 637.098 182.747 636.275 182.972 634.933C183.092 634.22 183.998 633.664 184.655 633.066C185.921 631.914 186.263 630.291 184.903 629.178C183.543 628.065 180.267 627.916 179.067 629.094C178.45 629.7 178.487 630.459 178.168 631.144C177.174 633.278 173.152 634.215 169.735 635.045C166.318 635.874 162.495 637.417 162.817 639.625C163.167 642.034 168.438 644.171 166.317 646.225C165.548 646.97 163.93 647.386 163.586 648.238C163.344 648.838 163.83 649.447 164.303 649.995L167.659 653.887C168.995 655.435 170.371 657.12 169.924 658.844C169.037 662.261 161.831 663.568 156.119 663.184C154.027 663.043 151.569 662.851 150.132 663.776C149.024 664.489 149.026 665.599 149.394 666.55C150.341 668.996 153.373 671.114 157.253 672.041C152.904 672.944 151.197 676.75 154.199 678.847C152.481 679.469 150.623 679.525 148.874 679.008C147.389 680.446 148.262 682.421 150.146 683.679C152.029 684.938 154.697 685.646 157.28 686.318L154.863 688.697C156.612 690.135 160.39 689.629 162.938 688.72C165.486 687.811 168.251 686.59 171.105 687.066C173.782 687.512 175.807 689.391 178.533 689.07C180.646 688.82 181.651 687.391 182.31 686.158L185.107 680.915C189.09 681.571 193.278 678.699 191.678 676.408C196.135 676.912 200.522 673.866 199.059 671.284C201.432 673.21 203.103 675.448 203.921 677.796C204.286 678.844 204.509 679.953 205.504 680.842C206.154 681.351 206.908 681.695 207.706 681.847C208.503 681.999 209.324 681.955 210.103 681.718C209.29 683.376 208.632 685.311 210.302 686.719C211.972 688.126 216.791 687.727 216.578 686.002C219.125 687.154 221.979 688.237 225.162 688.323C228.345 688.408 231.828 687.134 232.118 685.225C236.604 686.782 241.296 687.576 246.019 687.58C246.421 686.302 249.227 685.889 251.325 686.201C253.423 686.513 255.369 687.263 257.53 687.265C259.691 687.266 262.015 685.897 260.908 684.78C265.459 685.782 270.13 686.03 274.753 685.516C279.115 685.028 283.248 683.87 287.664 683.62C292.144 683.333 296.629 684.079 300.807 685.805C302.255 686.444 304.054 687.248 305.645 686.747C306.547 686.463 306.986 685.849 307.598 685.36C310.236 683.253 315.63 683.657 319.792 684.485C323.953 685.313 328.794 686.31 332.441 684.847C333.816 684.294 334.83 683.441 336.294 682.978C341.536 681.317 347.812 685.572 353.376 684.348C355.188 683.949 356.658 682.995 358.578 682.877C361.983 682.669 364.233 685.097 367.543 685.62C370.978 686.162 374.702 683.962 373.864 681.886C377.165 681.963 380.457 681.481 383.613 680.46L382.054 677.506C385.939 677.44 388.798 674.508 386.998 672.436C390.894 671.655 393.975 669.553 394.776 667.129C395.577 664.705 394.067 662.054 390.963 660.436C389.131 659.48 386.726 658.809 385.679 657.493C384.925 656.546 385.034 655.444 384.741 654.409C384.099 652.143 381.317 650.142 377.723 649.362C376.162 649.023 374.454 648.894 373.041 648.371C371.627 647.848 370.607 646.714 371.422 645.845C371.854 645.384 372.685 645.113 373.223 644.696C375.403 643.001 371.665 640.857 368.474 639.906L376.094 639.644L377.731 631.835C374.716 634.416 366.895 633.873 364.936 630.947C367.384 631.793 370.667 630.712 371.864 629.174C373.06 627.636 372.766 625.847 372.447 624.16C372.417 623.741 372.284 623.337 372.061 622.988C371.839 622.639 371.534 622.357 371.177 622.169C370.431 621.795 369.243 621.639 368.998 621.074C368.748 620.497 369.713 619.987 369.856 619.397C370.131 618.265 367.659 617.766 365.989 617.219C362.049 615.927 360.142 612.297 355.66 612.415C351.212 612.532 349.969 616.106 349.966 618.784C349.963 621.462 348.458 625.044 344.007 624.995C342.23 624.976 340.68 624.303 339.261 623.659L326.513 617.873C324.829 617.048 323.077 616.387 321.278 615.898C318.707 615.266 315.866 615.192 313.091 615.125L295.259 614.699C294.351 614.624 293.437 614.706 292.554 614.943C291.617 615.273 291.162 615.921 290.598 616.479C288.115 618.933 282.277 619.894 278.064 618.542C276.946 618.184 275.945 617.69 274.762 617.42C271.033 616.57 267.121 618.143 263.247 618.711C256.896 619.643 249.004 618.039 244.426 620.847C242.9 621.783 242.09 623.062 240.675 624.06C239.261 625.057 236.709 625.734 234.925 624.98C235.149 626.811 235.353 628.721 234.176 630.414C232.998 632.107 229.978 633.489 227.011 633.062C225.437 632.624 225.561 631.231 226.306 630.289C227.05 629.346 228.193 628.383 227.821 627.363C227.453 626.352 225.767 625.764 224.507 625.059C223.247 624.353 222.406 623.017 223.745 622.366C222.843 621.146 219.6 621.295 218.174 622.318C216.748 623.341 216.605 624.782 216.45 626.115C216.294 627.447 215.955 628.906 214.303 629.798C211.487 631.317 206.08 630.529 204.212 632.508C203.619 633.136 203.584 633.895 203.245 634.588C201.729 637.684 195.188 638.485 189.841 638.738C189.729 639.382 189.704 640.04 189.767 640.691C191.596 639.858 188.548 638.162 187.223 637.735Z" fill="#B5B0FF"/>
<path opacity="0.1" d="M372.447 634.199C372.766 635.886 373.06 637.675 371.864 639.213C371.686 639.435 371.485 639.635 371.265 639.81C372.875 639.754 374.484 639.699 376.094 639.644C376.64 637.041 377.185 634.438 377.731 631.836C376.482 632.905 374.408 633.436 372.268 633.486C372.344 633.719 372.404 633.957 372.447 634.199Z" fill="black"/>
<path opacity="0.1" d="M373.854 643.396C373.663 642.341 372.01 641.27 370.159 640.504C368.529 641.319 366.675 641.49 364.936 640.987C366.287 643.004 370.426 643.888 373.854 643.396Z" fill="black"/>
<path opacity="0.1" d="M376.22 649.086C376.178 649.285 376.136 649.484 376.094 649.683C373.554 649.77 371.014 649.857 368.474 649.945C371.665 650.896 375.403 653.04 373.223 654.735C372.686 655.153 371.854 655.424 371.422 655.884C370.607 656.753 371.627 657.887 373.041 658.41C374.454 658.933 376.162 659.062 377.723 659.401C381.317 660.181 384.099 662.182 384.741 664.448C385.034 665.483 384.925 666.585 385.679 667.532C386.726 668.848 389.131 669.52 390.963 670.475C391.139 670.567 391.309 670.663 391.475 670.762C393.131 669.776 394.322 668.505 394.776 667.129C395.577 664.705 394.067 662.054 390.963 660.436C389.131 659.481 386.726 658.809 385.679 657.493C384.925 656.546 385.034 655.444 384.741 654.409C384.099 652.143 381.317 650.142 377.723 649.362C377.232 649.255 376.726 649.17 376.22 649.086Z" fill="black"/>
<path opacity="0.1" d="M152.967 685.042C153.56 683.713 155.075 682.533 157.253 682.081C155.172 681.626 153.212 680.695 151.511 679.355C150.62 679.382 149.731 679.265 148.874 679.008C147.389 680.446 148.262 682.421 150.146 683.679C151.034 684.245 151.98 684.702 152.967 685.042Z" fill="black"/>
<path opacity="0.1" d="M166.408 646.127C167.493 645.7 168.605 645.351 169.735 645.084C173.152 644.254 177.174 643.317 178.168 641.183C178.487 640.498 178.45 639.739 179.067 639.133C180.267 637.955 183.543 638.104 184.903 639.217C186.262 640.33 185.921 641.953 184.655 643.105C183.998 643.703 183.092 644.259 182.972 644.972C182.747 646.314 185.247 647.137 187.223 647.774C188.153 648.089 189.023 648.572 189.796 649.202C189.812 649.06 189.828 648.918 189.842 648.777C195.188 648.524 201.729 647.723 203.245 644.627C203.584 643.934 203.619 643.175 204.212 642.547C206.08 640.568 211.487 641.356 214.303 639.837C215.955 638.945 216.294 637.486 216.45 636.154C216.605 634.822 216.748 633.381 218.174 632.357C219.6 631.334 222.843 631.185 223.745 632.405C222.406 633.056 223.247 634.393 224.507 635.098C225.767 635.803 227.453 636.391 227.821 637.402C228.193 638.422 227.05 639.385 226.306 640.328C225.561 641.271 225.437 642.663 227.011 643.101C229.978 643.528 232.998 642.147 234.176 640.453C235.353 638.76 235.149 636.85 234.925 635.019C236.709 635.773 239.261 635.096 240.676 634.099C242.09 633.101 242.9 631.822 244.426 630.886C249.004 628.079 256.896 629.682 263.247 628.751C267.121 628.182 271.033 626.609 274.762 627.459C275.945 627.729 276.946 628.223 278.063 628.581C282.277 629.933 288.115 628.972 290.598 626.518C291.162 625.961 291.617 625.312 292.554 624.983C293.437 624.745 294.351 624.663 295.259 624.738C301.203 624.88 307.147 625.022 313.091 625.164C315.866 625.231 318.707 625.305 321.278 625.937C323.077 626.426 324.829 627.087 326.513 627.912C330.763 629.841 335.012 631.77 339.261 633.698C340.68 634.342 342.23 635.015 344.007 635.035C348.458 635.083 349.963 631.502 349.966 628.823C349.969 626.145 351.212 622.571 355.66 622.454C360.142 622.336 362.049 625.966 365.989 627.258C367.659 627.805 370.131 628.304 369.856 629.436C369.729 629.962 368.951 630.424 368.959 630.926C370.069 630.651 371.078 630.042 371.864 629.174C373.06 627.636 372.766 625.847 372.447 624.16C372.417 623.741 372.284 623.337 372.061 622.988C371.839 622.639 371.534 622.357 371.177 622.169C370.431 621.795 369.243 621.639 368.998 621.074C368.748 620.497 369.713 619.987 369.856 619.397C370.131 618.265 367.659 617.766 365.989 617.219C362.049 615.927 360.142 612.297 355.66 612.415C351.212 612.532 349.969 616.106 349.966 618.784C349.963 621.463 348.458 625.044 344.007 624.995C342.23 624.976 340.68 624.303 339.261 623.659C335.012 621.731 330.763 619.802 326.513 617.873C324.829 617.048 323.077 616.387 321.278 615.898C318.707 615.266 315.866 615.192 313.091 615.125C307.147 614.983 301.203 614.841 295.259 614.699C294.351 614.624 293.437 614.706 292.554 614.944C291.617 615.273 291.162 615.921 290.598 616.479C288.115 618.933 282.277 619.894 278.063 618.542C276.946 618.184 275.945 617.69 274.762 617.42C271.033 616.57 267.121 618.143 263.247 618.712C256.896 619.643 249.004 618.04 244.426 620.847C242.9 621.783 242.09 623.062 240.676 624.06C239.261 625.057 236.709 625.734 234.925 624.98C235.149 626.811 235.353 628.721 234.176 630.414C232.998 632.107 229.978 633.489 227.011 633.062C225.437 632.624 225.561 631.231 226.306 630.289C227.05 629.346 228.193 628.383 227.821 627.363C227.453 626.352 225.767 625.764 224.507 625.059C223.247 624.353 222.406 623.017 223.745 622.366C222.843 621.146 219.6 621.295 218.174 622.318C216.748 623.342 216.605 624.783 216.45 626.115C216.294 627.447 215.955 628.906 214.303 629.798C211.487 631.317 206.08 630.529 204.212 632.508C203.619 633.136 203.584 633.895 203.245 634.588C201.73 637.684 195.188 638.485 189.842 638.738C189.829 638.879 189.812 639.021 189.796 639.163C189.023 638.533 188.153 638.05 187.223 637.735C185.247 637.098 182.747 636.275 182.972 634.933C183.092 634.22 183.998 633.664 184.655 633.066C185.921 631.914 186.263 630.291 184.903 629.178C183.543 628.065 180.267 627.916 179.067 629.094C178.45 629.7 178.487 630.459 178.169 631.144C177.174 633.278 173.152 634.215 169.735 635.045C166.318 635.874 162.495 637.417 162.816 639.625C163.161 641.996 168.266 644.103 166.408 646.127Z" fill="black"/>
<path opacity="0.1" d="M157.253 672.041C156.313 672.224 155.415 672.594 154.608 673.131C155.12 673.155 155.629 673.19 156.119 673.223C161.831 673.607 169.037 672.3 169.924 668.883C170.371 667.159 168.995 665.475 167.659 663.926C167.122 663.304 166.586 662.681 166.049 662.059C163.254 663.058 159.436 663.407 156.119 663.184C154.027 663.043 151.569 662.851 150.132 663.776C149.024 664.489 149.026 665.599 149.394 666.55C150.341 668.996 153.373 671.114 157.253 672.041Z" fill="black"/>
<path d="M273.582 656.419C304.997 656.419 330.464 638.729 330.464 616.908C330.464 595.086 304.997 577.396 273.582 577.396C242.167 577.396 216.7 595.086 216.7 616.908C216.7 638.729 242.167 656.419 273.582 656.419Z" fill="#645AFD"/>
<path opacity="0.2" d="M254.242 614.114C254.242 614.114 228.456 616.908 236.04 605.334C243.624 593.76 253.105 589.769 257.655 592.961C262.206 596.154 264.102 604.935 263.343 604.935C262.585 604.935 251.588 598.15 247.796 603.338C244.004 608.527 254.242 614.114 254.242 614.114Z" fill="white"/>
<path opacity="0.2" d="M276.586 615.245C276.586 615.245 297.88 630.804 284.962 634.386C272.044 637.968 262.38 634.497 260.904 628.954C259.428 623.412 263.423 615.45 263.999 615.97C264.574 616.49 268.719 629.177 274.807 627.841C280.896 626.504 276.586 615.245 276.586 615.245Z" fill="white"/>
<path opacity="0.2" d="M281.557 605.494C281.557 605.494 283.237 578.269 292.817 588.069C302.396 597.868 304.555 608.372 300.805 612.562C297.055 616.752 288.513 617.256 288.64 616.469C288.766 615.682 296.955 605.401 292.727 600.601C288.498 595.801 281.557 605.494 281.557 605.494Z" fill="white"/>
<path d="M204.945 653.226C236.36 653.226 261.827 635.536 261.827 613.715C261.827 591.893 236.36 574.204 204.945 574.204C173.53 574.204 148.063 591.893 148.063 613.715C148.063 635.536 173.53 653.226 204.945 653.226Z" fill="#645AFD"/>
<path opacity="0.2" d="M185.605 610.921C185.605 610.921 159.818 613.715 167.403 602.141C174.987 590.567 184.467 586.576 189.018 589.769C193.568 592.961 195.464 601.742 194.706 601.742C193.948 601.742 182.95 594.957 179.158 600.145C175.366 605.334 185.605 610.921 185.605 610.921Z" fill="white"/>
<path opacity="0.2" d="M207.948 612.052C207.948 612.052 229.242 627.611 216.324 631.193C203.406 634.775 193.743 631.304 192.266 625.762C190.79 620.219 194.786 612.258 195.361 612.777C195.937 613.297 200.081 625.985 206.17 624.648C212.258 623.311 207.948 612.052 207.948 612.052Z" fill="white"/>
<path opacity="0.2" d="M212.919 602.302C212.919 602.302 214.6 575.077 224.179 584.876C233.758 594.676 235.917 605.179 232.168 609.369C228.418 613.559 219.876 614.063 220.002 613.276C220.129 612.489 228.318 602.208 224.089 597.408C219.861 592.608 212.919 602.302 212.919 602.302Z" fill="white"/>
<path opacity="0.1" d="M234.546 580.089C246.936 587.337 254.811 598.19 254.811 610.322C254.811 632.144 229.344 649.834 197.929 649.834C187.165 649.834 177.1 647.756 168.517 644.148C178.412 649.936 191.185 653.426 205.134 653.426C236.549 653.426 262.016 635.736 262.016 613.914C262.016 599.57 251.011 587.012 234.546 580.089Z" fill="black"/>
<path opacity="0.1" d="M303.184 582.883C315.574 590.131 323.449 600.984 323.449 613.116C323.449 634.938 297.982 652.627 266.567 652.627C255.802 652.627 245.737 650.55 237.155 646.941C247.049 652.73 259.823 656.219 273.772 656.219C305.187 656.219 330.654 638.53 330.654 616.708C330.654 602.364 319.649 589.805 303.184 582.883Z" fill="black"/>
<path d="M170.376 606.146C170.376 606.146 219.295 551.069 339.126 573.818C433.853 591.801 356.066 622.753 319.317 634.933C308.655 638.465 297.61 640.558 286.447 641.161C244.989 643.408 140.709 645.417 170.376 606.146Z" fill="#70575A"/>
<path opacity="0.1" d="M319.317 622.56C308.655 626.092 297.61 628.185 286.447 628.789C252.862 630.609 178.051 632.272 166.622 611.959C152.189 644.791 247.31 642.883 286.447 640.762C297.61 640.158 308.655 638.066 319.317 634.533C346.253 625.606 395.235 606.593 382.17 589.994C373.373 603.021 339.906 615.737 319.317 622.56Z" fill="black"/>
<path opacity="0.1" d="M274.849 574.018L288.122 601.556" stroke="black" stroke-width="2" stroke-miterlimit="10"/>
<path opacity="0.1" d="M233.894 583.995L245.271 607.143" stroke="black" stroke-width="2" stroke-miterlimit="10"/>
<path opacity="0.1" d="M298.74 574.018L316.563 601.556" stroke="black" stroke-width="2" stroke-miterlimit="10"/>
<path opacity="0.1" d="M233.894 609.538L353.346 593.574" stroke="black" stroke-width="2" stroke-miterlimit="10"/>
<path opacity="0.1" d="M348.796 579.206L357.138 591.578" stroke="black" stroke-width="2" stroke-miterlimit="10"/>
<path opacity="0.1" d="M210.383 593.574L215.692 605.148" stroke="black" stroke-width="2" stroke-miterlimit="10"/>
<path d="M228.214 556.079C228.214 556.079 337.298 555.56 338.299 554.521C339.299 553.482 362.317 552.932 366.82 559.684C371.324 566.436 372.825 569.552 366.82 570.591C360.816 571.63 163.164 678.105 163.164 678.105C163.164 678.105 152.155 679.144 157.659 667.717C163.164 656.29 228.214 556.079 228.214 556.079Z" fill="#7770E8"/>
<path d="M274.01 603.57C274.01 607.869 254.316 618.337 230.022 618.337C205.727 618.337 186.033 607.869 186.033 603.57C186.033 599.272 205.727 597.584 230.022 597.584C254.316 597.584 274.01 599.272 274.01 603.57Z" fill="#B5B0FF"/>
<path d="M230.022 611.153C254.316 611.153 274.01 607.669 274.01 603.371C274.01 599.073 254.316 595.588 230.022 595.588C205.727 595.588 186.033 599.073 186.033 603.371C186.033 607.669 205.727 611.153 230.022 611.153Z" fill="#B5B0FF"/>
<path d="M327.1 596.387C327.1 600.685 307.406 611.153 283.112 611.153C258.817 611.153 239.123 600.685 239.123 596.387C239.123 592.088 258.817 590.4 283.112 590.4C307.406 590.4 327.1 592.088 327.1 596.387Z" fill="#B5B0FF"/>
<path d="M283.111 603.97C307.406 603.97 327.1 600.485 327.1 596.187C327.1 591.889 307.406 588.405 283.111 588.405C258.817 588.405 239.123 591.889 239.123 596.187C239.123 600.485 258.817 603.97 283.111 603.97Z" fill="#B5B0FF"/>
<path d="M380.19 589.203C380.19 593.501 360.496 603.97 336.201 603.97C311.907 603.97 292.213 593.501 292.213 589.203C292.213 584.905 311.907 583.216 336.201 583.216C360.496 583.216 380.19 584.905 380.19 589.203Z" fill="#B5B0FF"/>
<path d="M336.201 596.786C360.496 596.786 380.19 593.301 380.19 589.003C380.19 584.705 360.496 581.221 336.201 581.221C311.907 581.221 292.213 584.705 292.213 589.003C292.213 593.301 311.907 596.786 336.201 596.786Z" fill="#B5B0FF"/>
<path d="M174.199 591.414C174.199 591.414 156.108 588.314 165.364 572.816C174.62 557.318 177.733 539.944 181.773 536.063C186.288 531.723 279.495 455.641 352.108 539.83C359.801 548.856 366.054 559.133 370.626 570.262C371.504 572.367 372.473 574.255 373.419 575.251C376.364 578.351 378.889 587.207 373.419 591.635C367.95 596.063 206.807 613.333 174.199 591.414Z" fill="#3F3D56"/>
<path d="M258.978 526.985C257.863 527.801 256.549 528.262 255.192 528.314C253.1 528.314 251.405 527.719 251.405 526.985C251.405 526.252 253.1 525.657 255.192 525.657C256.549 525.708 257.863 526.169 258.978 526.985Z" fill="#F2F2F2"/>
<path d="M228.685 518.572C227.57 519.388 226.256 519.849 224.898 519.9C222.807 519.9 221.112 519.305 221.112 518.572C221.112 517.838 222.807 517.243 224.898 517.243C226.256 517.295 227.57 517.756 228.685 518.572Z" fill="#F2F2F2"/>
<path d="M310.977 530.832C309.682 531.26 308.296 531.287 306.986 530.91C304.99 530.253 303.541 529.152 303.749 528.452C303.957 527.752 305.744 527.717 307.74 528.374C309.021 528.85 310.145 529.703 310.977 530.832Z" fill="#F2F2F2"/>
<path d="M255.019 508.249C253.723 508.677 252.338 508.704 251.028 508.327C249.032 507.669 247.583 506.569 247.791 505.869C247.999 505.169 249.786 505.134 251.782 505.791C253.062 506.266 254.186 507.12 255.019 508.249Z" fill="#F2F2F2"/>
<path d="M316.026 516.219C314.73 516.648 313.345 516.675 312.035 516.297C310.039 515.64 308.59 514.54 308.798 513.839C309.006 513.139 310.793 513.104 312.789 513.762C314.07 514.237 315.193 515.09 316.026 516.219Z" fill="#F2F2F2"/>
<path d="M303.577 515.029C302.462 515.845 301.147 516.306 299.79 516.358C297.699 516.358 296.003 515.763 296.003 515.029C296.003 514.296 297.699 513.701 299.79 513.701C301.147 513.752 302.462 514.213 303.577 515.029Z" fill="#F2F2F2"/>
<path d="M267.393 507.059C266.278 507.875 264.964 508.336 263.606 508.387C261.515 508.387 259.82 507.792 259.82 507.059C259.82 506.325 261.515 505.73 263.606 505.73C264.964 505.782 266.278 506.243 267.393 507.059Z" fill="#F2F2F2"/>
<path d="M295.162 507.059C294.047 507.875 292.732 508.336 291.375 508.387C289.284 508.387 287.588 507.792 287.588 507.059C287.588 506.325 289.284 505.73 291.375 505.73C292.732 505.782 294.047 506.243 295.162 507.059Z" fill="#F2F2F2"/>
<path d="M284.643 524.328C283.528 525.144 282.214 525.605 280.857 525.657C278.765 525.657 277.07 525.062 277.07 524.328C277.07 523.595 278.765 523 280.857 523C282.214 523.051 283.528 523.512 284.643 524.328Z" fill="#F2F2F2"/>
<path d="M254.049 521.225C254.365 519.835 255.054 518.57 256.034 517.581C257.595 516.115 259.236 515.371 259.7 515.919C260.164 516.466 259.275 518.098 257.715 519.563C256.67 520.476 255.397 521.053 254.049 521.225Z" fill="#F2F2F2"/>
<path d="M235.116 516.354C235.432 514.964 236.121 513.699 237.101 512.71C238.661 511.244 240.303 510.5 240.767 511.048C241.231 511.595 240.342 513.227 238.782 514.692C237.736 515.605 236.464 516.182 235.116 516.354Z" fill="#F2F2F2"/>
<path d="M202.298 540.266C202.614 538.876 203.303 537.611 204.283 536.621C205.844 535.156 207.485 534.412 207.949 534.959C208.413 535.507 207.524 537.138 205.964 538.604C204.919 539.516 203.646 540.093 202.298 540.266Z" fill="#F2F2F2"/>
<path d="M275.086 513.697C275.402 512.307 276.091 511.042 277.071 510.053C278.632 508.588 280.273 507.843 280.737 508.391C281.201 508.938 280.312 510.57 278.752 512.035C277.707 512.948 276.434 513.525 275.086 513.697Z" fill="#F2F2F2"/>
<path d="M267.513 529.638C267.828 528.248 268.518 526.983 269.498 525.994C271.058 524.529 272.7 523.784 273.164 524.332C273.628 524.879 272.739 526.511 271.178 527.976C270.133 528.889 268.861 529.466 267.513 529.638Z" fill="#F2F2F2"/>
<path opacity="0.2" d="M95.5254 725.903C89.2231 725.956 80.8816 724.869 79.2025 723.793C77.9238 722.973 77.4142 720.032 77.2437 718.674C77.1257 718.68 77.0574 718.682 77.0574 718.682C77.0574 718.682 77.4109 723.42 79.09 724.497C80.7692 725.573 89.1107 726.66 95.413 726.606C97.2322 726.591 97.8606 725.91 97.8261 724.901C97.5733 725.51 96.8795 725.891 95.5254 725.903Z" fill="black"/>
<path d="M121.984 71V37.4844H136.281C142.656 37.4844 145.844 40.0859 145.844 45.2891C145.844 49.1016 143.766 51.8281 139.609 53.4688C144.047 54.2969 146.266 56.8359 146.266 61.0859C146.266 67.6953 142.773 71 135.789 71H121.984ZM135.531 67.4844C139.531 67.4844 141.531 65.4531 141.531 61.3906C141.531 57.4375 138.852 55.4609 133.492 55.4609H131.617V52.625C138.023 51.7656 141.227 49.4531 141.227 45.6875C141.227 42.5625 139.445 41 135.883 41H126.32V67.4844H135.531ZM162.836 46.3906C169.836 46.3906 173.336 49.8516 173.336 56.7734C173.336 57.7578 173.266 58.8125 173.125 59.9375H155.852C155.852 64.9688 158.789 67.4844 164.664 67.4844C167.461 67.4844 169.945 67.1719 172.117 66.5469V70.0625C169.945 70.6875 167.305 71 164.195 71C155.742 71 151.516 66.8047 151.516 58.4141C151.516 50.3984 155.289 46.3906 162.836 46.3906ZM155.852 56.3281H169.164C169.07 52.0156 166.961 49.8594 162.836 49.8594C158.461 49.8594 156.133 52.0156 155.852 56.3281ZM179.172 42.4062H181.891L182.828 46.3906H189.484V49.9062H183.508V64.0391C183.508 66.3359 184.5 67.4844 186.484 67.4844H189.484V71H185.359C181.234 71 179.172 68.7891 179.172 64.3672V42.4062ZM195.016 42.4062H197.734L198.672 46.3906H205.328V49.9062H199.352V64.0391C199.352 66.3359 200.344 67.4844 202.328 67.4844H205.328V71H201.203C197.078 71 195.016 68.7891 195.016 64.3672V42.4062ZM221.008 46.3906C228.008 46.3906 231.508 49.8516 231.508 56.7734C231.508 57.7578 231.438 58.8125 231.297 59.9375H214.023C214.023 64.9688 216.961 67.4844 222.836 67.4844C225.633 67.4844 228.117 67.1719 230.289 66.5469V70.0625C228.117 70.6875 225.477 71 222.367 71C213.914 71 209.688 66.8047 209.688 58.4141C209.688 50.3984 213.461 46.3906 221.008 46.3906ZM214.023 56.3281H227.336C227.242 52.0156 225.133 49.8594 221.008 49.8594C216.633 49.8594 214.305 52.0156 214.023 56.3281ZM237.344 71V46.3906H240.273L241.047 49.5312C243.203 47.4375 245.797 46.3906 248.828 46.3906V50C245.891 50 243.508 51.0391 241.68 53.1172V71H237.344ZM265.375 71V37.4844H279.672C286.047 37.4844 289.234 40.0859 289.234 45.2891C289.234 49.1016 287.156 51.8281 283 53.4688C287.438 54.2969 289.656 56.8359 289.656 61.0859C289.656 67.6953 286.164 71 279.18 71H265.375ZM278.922 67.4844C282.922 67.4844 284.922 65.4531 284.922 61.3906C284.922 57.4375 282.242 55.4609 276.883 55.4609H275.008V52.625C281.414 51.7656 284.617 49.4531 284.617 45.6875C284.617 42.5625 282.836 41 279.273 41H269.711V67.4844H278.922ZM317.289 46.3906V71H314.312L313.562 67.8594C310.578 69.9531 307.578 71 304.562 71C298.906 71 296.078 67.9453 296.078 61.8359V46.3906H300.414V61.9062C300.414 65.5625 302.227 67.3906 305.852 67.3906C308.336 67.3906 310.703 66.3516 312.953 64.2734V46.3906H317.289ZM324.109 69.8281V66.0781C327 67.0156 329.922 67.4844 332.875 67.4844C336.797 67.4844 338.758 66.3125 338.758 63.9688C338.758 61.7812 337.391 60.6875 334.656 60.6875H331.141C325.828 60.6875 323.172 58.2656 323.172 53.4219C323.172 48.7344 326.586 46.3906 333.414 46.3906C336.352 46.3906 339.266 46.7812 342.156 47.5625V51.3125C339.266 50.375 336.352 49.9062 333.414 49.9062C329.32 49.9062 327.273 51.0781 327.273 53.4219C327.273 55.6094 328.562 56.7031 331.141 56.7031H334.656C340.281 56.7031 343.094 59.125 343.094 63.9688C343.094 68.6562 339.688 71 332.875 71C329.922 71 327 70.6094 324.109 69.8281ZM353.758 46.3906V71H349.422V46.3906H353.758ZM353.758 37.4844V41.5859H349.422V37.4844H353.758ZM361.281 71V46.3906H364.211L364.984 49.5312C367.5 47.4375 370.266 46.3906 373.281 46.3906C379.422 46.3906 382.492 49.4453 382.492 55.5547V71H378.156V55.4844C378.156 51.8281 376.336 50 372.695 50C370.211 50 367.852 51.0391 365.617 53.1172V71H361.281ZM399.695 46.3906C406.695 46.3906 410.195 49.8516 410.195 56.7734C410.195 57.7578 410.125 58.8125 409.984 59.9375H392.711C392.711 64.9688 395.648 67.4844 401.523 67.4844C404.32 67.4844 406.805 67.1719 408.977 66.5469V70.0625C406.805 70.6875 404.164 71 401.055 71C392.602 71 388.375 66.8047 388.375 58.4141C388.375 50.3984 392.148 46.3906 399.695 46.3906ZM392.711 56.3281H406.023C405.93 52.0156 403.82 49.8594 399.695 49.8594C395.32 49.8594 392.992 52.0156 392.711 56.3281ZM415.797 69.8281V66.0781C418.688 67.0156 421.609 67.4844 424.562 67.4844C428.484 67.4844 430.445 66.3125 430.445 63.9688C430.445 61.7812 429.078 60.6875 426.344 60.6875H422.828C417.516 60.6875 414.859 58.2656 414.859 53.4219C414.859 48.7344 418.273 46.3906 425.102 46.3906C428.039 46.3906 430.953 46.7812 433.844 47.5625V51.3125C430.953 50.375 428.039 49.9062 425.102 49.9062C421.008 49.9062 418.961 51.0781 418.961 53.4219C418.961 55.6094 420.25 56.7031 422.828 56.7031H426.344C431.969 56.7031 434.781 59.125 434.781 63.9688C434.781 68.6562 431.375 71 424.562 71C421.609 71 418.688 70.6094 415.797 69.8281ZM440.406 69.8281V66.0781C443.297 67.0156 446.219 67.4844 449.172 67.4844C453.094 67.4844 455.055 66.3125 455.055 63.9688C455.055 61.7812 453.688 60.6875 450.953 60.6875H447.438C442.125 60.6875 439.469 58.2656 439.469 53.4219C439.469 48.7344 442.883 46.3906 449.711 46.3906C452.648 46.3906 455.562 46.7812 458.453 47.5625V51.3125C455.562 50.375 452.648 49.9062 449.711 49.9062C445.617 49.9062 443.57 51.0781 443.57 53.4219C443.57 55.6094 444.859 56.7031 447.438 56.7031H450.953C456.578 56.7031 459.391 59.125 459.391 63.9688C459.391 68.6562 455.984 71 449.172 71C446.219 71 443.297 70.6094 440.406 69.8281Z" fill="white"/>
<path d="M51.1706 81V41.8984H67.8503C75.2878 41.8984 79.0065 44.9336 79.0065 51.0039C79.0065 55.4518 76.5821 58.6328 71.7331 60.5469C76.9102 61.513 79.4987 64.4753 79.4987 69.4336C79.4987 77.1445 75.4245 81 67.2761 81H51.1706ZM66.9753 76.8984C71.6419 76.8984 73.9753 74.5286 73.9753 69.7891C73.9753 65.1771 70.849 62.8711 64.5964 62.8711H62.4089V59.5625C69.8828 58.5599 73.6198 55.862 73.6198 51.4688C73.6198 47.8229 71.5417 46 67.3854 46H56.2292V76.8984H66.9753Z" fill="white"/>
<path d="M55.7494 64V24.8984H39.0697C31.6322 24.8984 27.9135 27.9336 27.9135 34.0039C27.9135 38.4518 30.3379 41.6328 35.1869 43.5469C30.0098 44.513 27.4213 47.4753 27.4213 52.4336C27.4213 60.1445 31.4955 64 39.6439 64H55.7494ZM39.9447 59.8984C35.278 59.8984 32.9447 57.5286 32.9447 52.7891C32.9447 48.1771 36.071 45.8711 42.3236 45.8711H44.5111V42.5625C37.0372 41.5599 33.3002 38.862 33.3002 34.4688C33.3002 30.8229 35.3783 29 39.5345 29H50.6908V59.8984H39.9447Z" fill="white"/>
<line x1="100.5" y1="81" x2="100.5" y2="26" stroke="white" stroke-width="3"/>
<defs>
<filter id="filter0_d" x="614" y="642" width="659" height="82" filterUnits="userSpaceOnUse" color-interpolation-filters="sRGB">
<feFlood flood-opacity="0" result="BackgroundImageFix"/>
<feColorMatrix in="SourceAlpha" type="matrix" values="0 0 0 0 0 0 0 0 0 0 0 0 0 0 0 0 0 0 127 0"/>
<feOffset dx="10" dy="10"/>
<feGaussianBlur stdDeviation="3.5"/>
<feColorMatrix type="matrix" values="0 0 0 0 0 0 0 0 0 0 0 0 0 0 0 0 0 0 0.25 0"/>
<feBlend mode="normal" in2="BackgroundImageFix" result="effect1_dropShadow"/>
<feBlend mode="normal" in="SourceGraphic" in2="effect1_dropShadow" result="shape"/>
</filter>
<linearGradient id="paint0_linear" x1="1606.55" y1="726.103" x2="1606.55" y2="497.558" gradientUnits="userSpaceOnUse">
<stop stop-color="#808080" stop-opacity="0.25"/>
<stop offset="0.54" stop-color="#808080" stop-opacity="0.12"/>
<stop offset="1" stop-color="#808080" stop-opacity="0.1"/>
</linearGradient>
</defs>
</svg>
