<svg width="1912" height="898" viewBox="0 0 1912 898" fill="none" xmlns="http://www.w3.org/2000/svg">
<rect width="1912" height="898" fill="#E5E5E5"/>
<rect x="0.5" y="0.5" width="1911" height="897" fill="white" stroke="black"/>
<rect y="838" width="1912" height="60" fill="#423ABA"/>
<path d="M44.543 877H42.293L49.4062 860.242H51.8086L58.957 877H56.5547L54.3867 871.727H48.8438L49.4414 869.969H53.6602L50.5312 862.375L44.543 877ZM63.4102 860.242V875.242H72.1758V877H61.2422V860.242H63.4102ZM76.9336 860.242V875.242H85.6992V877H74.7656V860.242H76.9336ZM94.1484 877V860.242H101.297C104.484 860.242 106.078 861.582 106.078 864.262C106.078 866.441 104.52 868.055 101.402 869.102L107.156 877H104.297L98.9648 869.465V868.047C102.168 867.539 103.77 866.309 103.77 864.355C103.77 862.809 102.879 862.035 101.098 862.035H96.3164V877H94.1484ZM111.973 860.242V877H109.805V860.242H111.973ZM128.977 876.344C127.625 876.859 126.168 877.117 124.605 877.117C118.535 877.117 115.5 874.207 115.5 868.387C115.5 862.879 118.43 860.125 124.289 860.125C125.969 860.125 127.531 860.359 128.977 860.828V862.703C127.531 862.156 126.047 861.883 124.523 861.883C119.953 861.883 117.668 864.051 117.668 868.387C117.668 873.035 119.918 875.359 124.418 875.359C125.137 875.359 125.934 875.266 126.809 875.078V869.383H128.977V876.344ZM132.562 877V860.242H134.73V867.625H144.633V860.242H146.801V877H144.633V869.383H134.73V877H132.562ZM162.105 860.242V862H156.832V877H154.664V862H149.391V860.242H162.105ZM164.461 876.414V874.422C166.219 875.047 168.117 875.359 170.156 875.359C173.039 875.359 174.48 874.305 174.48 872.195C174.48 870.398 173.418 869.5 171.293 869.5H169.137C165.629 869.5 163.875 867.977 163.875 864.93C163.875 861.727 166.121 860.125 170.613 860.125C172.566 860.125 174.383 860.359 176.062 860.828V862.82C174.383 862.195 172.566 861.883 170.613 861.883C167.566 861.883 166.043 862.898 166.043 864.93C166.043 866.727 167.074 867.625 169.137 867.625H171.293C174.863 867.625 176.648 869.148 176.648 872.195C176.648 875.477 174.484 877.117 170.156 877.117C168.117 877.117 166.219 876.883 164.461 876.414ZM185.672 877V860.242H192.82C196.008 860.242 197.602 861.582 197.602 864.262C197.602 866.441 196.043 868.055 192.926 869.102L198.68 877H195.82L190.488 869.465V868.047C193.691 867.539 195.293 866.309 195.293 864.355C195.293 862.809 194.402 862.035 192.621 862.035H187.84V877H185.672ZM211.934 860.242V862H203.145V867.625H211.523V869.383H203.145V875.242H212.109V877H200.977V860.242H211.934ZM215.156 876.414V874.422C216.914 875.047 218.812 875.359 220.852 875.359C223.734 875.359 225.176 874.305 225.176 872.195C225.176 870.398 224.113 869.5 221.988 869.5H219.832C216.324 869.5 214.57 867.977 214.57 864.93C214.57 861.727 216.816 860.125 221.309 860.125C223.262 860.125 225.078 860.359 226.758 860.828V862.82C225.078 862.195 223.262 861.883 221.309 861.883C218.262 861.883 216.738 862.898 216.738 864.93C216.738 866.727 217.77 867.625 219.832 867.625H221.988C225.559 867.625 227.344 869.148 227.344 872.195C227.344 875.477 225.18 877.117 220.852 877.117C218.812 877.117 216.914 876.883 215.156 876.414ZM241.465 860.242V862H232.676V867.625H241.055V869.383H232.676V875.242H241.641V877H230.508V860.242H241.465ZM244.922 877V860.242H252.07C255.258 860.242 256.852 861.582 256.852 864.262C256.852 866.441 255.293 868.055 252.176 869.102L257.93 877H255.07L249.738 869.465V868.047C252.941 867.539 254.543 866.309 254.543 864.355C254.543 862.809 253.652 862.035 251.871 862.035H247.09V877H244.922ZM275.191 860.242L268.078 877H265.676L258.527 860.242H260.812L266.953 874.75L272.941 860.242H275.191ZM288.434 860.242V862H279.645V867.625H288.023V869.383H279.645V875.242H288.609V877H277.477V860.242H288.434ZM297.984 875.242C302.086 875.242 304.137 872.883 304.137 868.164C304.137 864.055 302.086 862 297.984 862H294.059V875.242H297.984ZM291.891 877V860.242H297.984C303.531 860.242 306.305 862.883 306.305 868.164C306.305 874.055 303.531 877 297.984 877H291.891ZM316.324 868.574C316.324 873.566 318.758 876.062 323.625 876.062C328.719 876.062 331.266 873.566 331.266 868.574C331.266 863.645 328.797 861.18 323.859 861.18C318.836 861.18 316.324 863.645 316.324 868.574ZM315.094 868.527C315.094 862.926 318.016 860.125 323.859 860.125C329.617 860.125 332.496 862.926 332.496 868.527C332.496 874.254 329.617 877.117 323.859 877.117C318.016 877.117 315.094 874.254 315.094 868.527ZM327.199 873.062C326.223 873.461 325.09 873.66 323.801 873.66C320.551 873.66 318.926 871.93 318.926 868.469C318.926 865.219 320.551 863.594 323.801 863.594C325.09 863.594 326.223 863.793 327.199 864.191V865.34C326.223 864.887 325.145 864.66 323.965 864.66C321.426 864.66 320.156 865.93 320.156 868.469C320.156 871.219 321.426 872.594 323.965 872.594C325.145 872.594 326.223 872.367 327.199 871.914V873.062Z" fill="white"/>
<path d="M1342.09 875.242C1346.19 875.242 1348.24 872.883 1348.24 868.164C1348.24 864.055 1346.19 862 1342.09 862H1338.16V875.242H1342.09ZM1335.99 877V860.242H1342.09C1347.63 860.242 1350.41 862.883 1350.41 868.164C1350.41 874.055 1347.63 877 1342.09 877H1335.99ZM1356.09 860.242V877H1353.92V860.242H1356.09ZM1360.2 876.414V874.422C1361.96 875.047 1363.86 875.359 1365.9 875.359C1368.78 875.359 1370.22 874.305 1370.22 872.195C1370.22 870.398 1369.16 869.5 1367.04 869.5H1364.88C1361.37 869.5 1359.62 867.977 1359.62 864.93C1359.62 861.727 1361.86 860.125 1366.36 860.125C1368.31 860.125 1370.12 860.359 1371.8 860.828V862.82C1370.12 862.195 1368.31 861.883 1366.36 861.883C1363.31 861.883 1361.79 862.898 1361.79 864.93C1361.79 866.727 1362.82 867.625 1364.88 867.625H1367.04C1370.61 867.625 1372.39 869.148 1372.39 872.195C1372.39 875.477 1370.23 877.117 1365.9 877.117C1363.86 877.117 1361.96 876.883 1360.2 876.414ZM1388.21 876.414C1386.77 876.883 1385.2 877.117 1383.52 877.117C1377.66 877.117 1374.73 874.207 1374.73 868.387C1374.73 862.879 1377.66 860.125 1383.52 860.125C1385.2 860.125 1386.77 860.359 1388.21 860.828V862.703C1386.77 862.156 1385.28 861.883 1383.76 861.883C1379.19 861.883 1376.9 864.051 1376.9 868.387C1376.9 873.035 1379.19 875.359 1383.76 875.359C1385.28 875.359 1386.77 875.086 1388.21 874.539V876.414ZM1393.96 860.242V875.242H1402.73V877H1391.8V860.242H1393.96ZM1405.87 877H1403.62L1410.73 860.242H1413.14L1420.29 877H1417.88L1415.71 871.727H1410.17L1410.77 869.969H1414.99L1411.86 862.375L1405.87 877ZM1425.09 860.242V877H1422.92V860.242H1425.09ZM1429.44 877V860.242H1432.19L1438.34 874.223L1444.38 860.242H1447.02V877H1445.08V863.254L1439.13 877H1437.42L1431.37 863.254V877H1429.44ZM1461.96 860.242V862H1453.17V867.625H1461.55V869.383H1453.17V875.242H1462.13V877H1451V860.242H1461.96ZM1465.41 877V860.242H1472.56C1475.75 860.242 1477.34 861.582 1477.34 864.262C1477.34 866.441 1475.79 868.055 1472.67 869.102L1478.42 877H1475.56L1470.23 869.465V868.047C1473.43 867.539 1475.04 866.309 1475.04 864.355C1475.04 862.809 1474.14 862.035 1472.36 862.035H1467.58V877H1465.41Z" fill="white"/>
<path d="M1556.3 861.242V863H1551.03V878H1548.86V863H1543.59V861.242H1556.3ZM1569.85 861.242V863H1561.06V868.625H1569.44V870.383H1561.06V876.242H1570.02V878H1558.89V861.242H1569.85ZM1573.3 878V861.242H1580.45C1583.64 861.242 1585.23 862.582 1585.23 865.262C1585.23 867.441 1583.68 869.055 1580.56 870.102L1586.31 878H1583.45L1578.12 870.465V869.047C1581.32 868.539 1582.93 867.309 1582.93 865.355C1582.93 863.809 1582.04 863.035 1580.25 863.035H1575.47V878H1573.3ZM1588.61 878V861.242H1591.36L1597.52 875.223L1603.55 861.242H1606.19V878H1604.25V864.254L1598.3 878H1596.59L1590.54 864.254V878H1588.61ZM1609.94 877.414V875.422C1611.7 876.047 1613.59 876.359 1615.63 876.359C1618.52 876.359 1619.96 875.305 1619.96 873.195C1619.96 871.398 1618.89 870.5 1616.77 870.5H1614.61C1611.11 870.5 1609.35 868.977 1609.35 865.93C1609.35 862.727 1611.6 861.125 1616.09 861.125C1618.04 861.125 1619.86 861.359 1621.54 861.828V863.82C1619.86 863.195 1618.04 862.883 1616.09 862.883C1613.04 862.883 1611.52 863.898 1611.52 865.93C1611.52 867.727 1612.55 868.625 1614.61 868.625H1616.77C1620.34 868.625 1622.12 870.148 1622.12 873.195C1622.12 876.477 1619.96 878.117 1615.63 878.117C1613.59 878.117 1611.7 877.883 1609.94 877.414ZM1630.33 865.754C1630.33 862.746 1632.32 861.242 1636.3 861.242C1637.75 861.242 1639.16 861.438 1640.52 861.828V863.586C1639.16 863.195 1637.8 863 1636.46 863C1633.82 863 1632.5 863.898 1632.5 865.695C1632.5 867.648 1633.49 868.625 1635.48 868.625H1640.03V866.961H1640.77L1641.96 868.625H1644.1V870.383H1642.2V872.258C1642.2 876.109 1640.18 878.035 1636.13 878.035C1632.26 878.035 1630.33 876.484 1630.33 873.383C1630.33 871.453 1631.08 870.152 1632.59 869.48C1631.08 868.816 1630.33 867.574 1630.33 865.754ZM1635.51 870.383C1633.5 870.383 1632.5 871.363 1632.5 873.324C1632.5 875.27 1633.67 876.242 1636.02 876.242C1638.7 876.242 1640.03 874.906 1640.03 872.234V870.383H1635.51ZM1664.62 877.414C1663.17 877.883 1661.61 878.117 1659.93 878.117C1654.07 878.117 1651.14 875.207 1651.14 869.387C1651.14 863.879 1654.07 861.125 1659.93 861.125C1661.61 861.125 1663.17 861.359 1664.62 861.828V863.703C1663.17 863.156 1661.69 862.883 1660.16 862.883C1655.59 862.883 1653.31 865.051 1653.31 869.387C1653.31 874.035 1655.59 876.359 1660.16 876.359C1661.69 876.359 1663.17 876.086 1664.62 875.539V877.414ZM1669.9 869.574C1669.9 874.098 1671.95 876.359 1676.03 876.359C1680.03 876.359 1682.03 874.098 1682.03 869.574C1682.03 865.113 1680.03 862.883 1676.03 862.883C1671.95 862.883 1669.9 865.113 1669.9 869.574ZM1667.62 869.645C1667.62 863.965 1670.42 861.125 1676.03 861.125C1681.55 861.125 1684.32 863.965 1684.32 869.645C1684.32 875.293 1681.55 878.117 1676.03 878.117C1670.42 878.117 1667.62 875.293 1667.62 869.645ZM1687.73 878V861.242H1689.89L1700.15 874.742V861.242H1702.2V878H1700.03L1689.78 864.383V878H1687.73ZM1712.29 876.242C1716.39 876.242 1718.44 873.883 1718.44 869.164C1718.44 865.055 1716.39 863 1712.29 863H1708.36V876.242H1712.29ZM1706.2 878V861.242H1712.29C1717.84 861.242 1720.61 863.883 1720.61 869.164C1720.61 875.055 1717.84 878 1712.29 878H1706.2ZM1726.29 861.242V878H1724.12V861.242H1726.29ZM1741.95 861.242V863H1736.68V878H1734.51V863H1729.23V861.242H1741.95ZM1747.06 861.242V878H1744.89V861.242H1747.06ZM1753.11 869.574C1753.11 874.098 1755.15 876.359 1759.23 876.359C1763.23 876.359 1765.23 874.098 1765.23 869.574C1765.23 865.113 1763.23 862.883 1759.23 862.883C1755.15 862.883 1753.11 865.113 1753.11 869.574ZM1750.82 869.645C1750.82 863.965 1753.62 861.125 1759.23 861.125C1764.76 861.125 1767.52 863.965 1767.52 869.645C1767.52 875.293 1764.76 878.117 1759.23 878.117C1753.62 878.117 1750.82 875.293 1750.82 869.645ZM1770.93 878V861.242H1773.1L1783.35 874.742V861.242H1785.4V878H1783.23L1772.98 864.383V878H1770.93ZM1789.16 877.414V875.422C1790.92 876.047 1792.82 876.359 1794.86 876.359C1797.74 876.359 1799.18 875.305 1799.18 873.195C1799.18 871.398 1798.12 870.5 1796 870.5H1793.84C1790.33 870.5 1788.58 868.977 1788.58 865.93C1788.58 862.727 1790.82 861.125 1795.32 861.125C1797.27 861.125 1799.09 861.359 1800.77 861.828V863.82C1799.09 863.195 1797.27 862.883 1795.32 862.883C1792.27 862.883 1790.75 863.898 1790.75 865.93C1790.75 867.727 1791.78 868.625 1793.84 868.625H1796C1799.57 868.625 1801.35 870.148 1801.35 873.195C1801.35 876.477 1799.19 878.117 1794.86 878.117C1792.82 878.117 1790.92 877.883 1789.16 877.414Z" fill="white"/>
<ellipse cx="1600.5" cy="804.5" rx="266.5" ry="24.5" fill="#C4C4C4"/>
<rect x="1392" y="319" width="415" height="486" fill="#423ABA"/>
<path d="M1500.06 496.222L1505.7 508.561L1506.37 510.029L1507.96 510.279L1521.02 512.329L1511.42 522.442L1510.4 523.515L1510.63 524.978L1512.85 538.947L1501.55 532.524L1500.06 531.682L1498.58 532.524L1487.28 538.947L1489.49 524.977L1489.73 523.515L1488.71 522.442L1479.11 512.329L1492.17 510.279L1493.76 510.029L1494.43 508.561L1500.06 496.222Z" fill="#433BBC" stroke="white" stroke-width="6"/>
<path d="M1572.6 496.222L1578.23 508.561L1578.9 510.029L1580.5 510.279L1593.55 512.329L1583.95 522.442L1582.94 523.515L1583.17 524.978L1585.38 538.947L1574.08 532.524L1572.6 531.682L1571.12 532.524L1559.81 538.947L1562.03 524.977L1562.26 523.515L1561.24 522.442L1551.64 512.329L1564.7 510.279L1566.29 510.029L1566.96 508.561L1572.6 496.222Z" fill="#433BBC" stroke="white" stroke-width="6"/>
<path d="M1645.13 496.222L1650.77 508.561L1651.44 510.029L1653.03 510.279L1666.09 512.329L1656.49 522.442L1655.47 523.515L1655.7 524.978L1657.92 538.947L1646.61 532.524L1645.13 531.682L1643.65 532.524L1632.35 538.947L1634.56 524.977L1634.79 523.515L1633.77 522.442L1624.18 512.329L1637.23 510.279L1638.83 510.029L1639.5 508.561L1645.13 496.222Z" fill="#433BBC" stroke="white" stroke-width="6"/>
<path d="M1510.94 650.875C1515.1 649.625 1519.27 649 1523.44 649C1534.17 649 1539.53 653.062 1539.53 661.188C1539.53 666.104 1537.57 669.49 1533.66 671.344C1537.57 673.115 1539.53 676.5 1539.53 681.5C1539.53 690.042 1534.17 694.312 1523.44 694.312C1519.27 694.312 1515.1 693.688 1510.94 692.438V687.438C1515.1 688.896 1519.27 689.625 1523.44 689.625C1530.31 689.625 1533.75 686.917 1533.75 681.5C1533.75 676.292 1531.12 673.688 1525.88 673.688H1515.62V669H1525.78C1531.09 669 1533.75 666.396 1533.75 661.188C1533.75 656.188 1530.31 653.688 1523.44 653.688C1519.27 653.688 1515.1 654.417 1510.94 655.875V650.875ZM1552.66 688.219V694H1546.88V688.219H1552.66ZM1560.66 649.312H1587.66V654H1565.59L1564.84 667.812C1567.28 667.354 1569.84 667.125 1572.53 667.125C1583.78 667.125 1589.41 671.396 1589.41 679.938C1589.41 689.521 1583.57 694.312 1571.91 694.312C1567.95 694.312 1563.89 693.688 1559.72 692.438V687.438C1563.89 688.896 1568.05 689.625 1572.22 689.625C1579.82 689.625 1583.62 686.396 1583.62 679.938C1583.62 674.521 1579.93 671.812 1572.53 671.812C1567.84 671.812 1563.57 672.229 1559.72 673.062L1560.66 649.312ZM1615.38 694H1608.97L1631.62 649.312H1638.03L1615.38 694ZM1659.28 649.312H1686.28V654H1664.22L1663.47 667.812C1665.91 667.354 1668.47 667.125 1671.16 667.125C1682.41 667.125 1688.03 671.396 1688.03 679.938C1688.03 689.521 1682.2 694.312 1670.53 694.312C1666.57 694.312 1662.51 693.688 1658.34 692.438V687.438C1662.51 688.896 1666.68 689.625 1670.84 689.625C1678.45 689.625 1682.25 686.396 1682.25 679.938C1682.25 674.521 1678.55 671.812 1671.16 671.812C1666.47 671.812 1662.2 672.229 1658.34 673.062L1659.28 649.312Z" fill="white"/>
<line x1="1506" y1="407.5" x2="1704" y2="407.5" stroke="white"/>
<path d="M1476.92 381H1474.11L1483 360.053H1486L1494.94 381H1491.93L1489.22 374.408H1482.29L1483.04 372.211H1488.32L1484.4 362.719L1476.92 381ZM1516.5 360.053L1507.61 381H1504.6L1495.67 360.053H1498.53L1506.2 378.188L1513.69 360.053H1516.5ZM1533.05 360.053V362.25H1522.07V369.281H1532.54V371.479H1522.07V378.803H1533.27V381H1519.36V360.053H1533.05ZM1537.37 381V360.053H1546.31C1550.29 360.053 1552.29 361.728 1552.29 365.077C1552.29 367.802 1550.34 369.818 1546.44 371.127L1553.63 381H1550.06L1543.39 371.581V369.809C1547.4 369.174 1549.4 367.636 1549.4 365.194C1549.4 363.261 1548.29 362.294 1546.06 362.294H1540.08V381H1537.37ZM1557.19 381H1554.38L1563.27 360.053H1566.27L1575.21 381H1572.21L1569.5 374.408H1562.57L1563.32 372.211H1568.59L1564.68 362.719L1557.19 381ZM1593.89 380.18C1592.2 380.824 1590.38 381.146 1588.42 381.146C1580.83 381.146 1577.04 377.509 1577.04 370.233C1577.04 363.349 1580.7 359.906 1588.03 359.906C1590.13 359.906 1592.08 360.199 1593.89 360.785V363.129C1592.08 362.445 1590.22 362.104 1588.32 362.104C1582.61 362.104 1579.75 364.813 1579.75 370.233C1579.75 376.044 1582.56 378.949 1588.19 378.949C1589.09 378.949 1590.08 378.832 1591.18 378.598V371.479H1593.89V380.18ZM1612.07 360.053V362.25H1601.08V369.281H1611.55V371.479H1601.08V378.803H1612.29V381H1598.37V360.053H1612.07ZM1623.71 381V360.053H1632.65C1636.63 360.053 1638.62 361.728 1638.62 365.077C1638.62 367.802 1636.67 369.818 1632.78 371.127L1639.97 381H1636.4L1629.73 371.581V369.809C1633.74 369.174 1635.74 367.636 1635.74 365.194C1635.74 363.261 1634.62 362.294 1632.4 362.294H1626.42V381H1623.71ZM1643.53 381H1640.72L1649.61 360.053H1652.61L1661.55 381H1658.54L1655.83 374.408H1648.91L1649.65 372.211H1654.93L1651.02 362.719L1643.53 381ZM1678.54 360.053V362.25H1671.95V381H1669.24V362.25H1662.65V360.053H1678.54ZM1684.93 360.053V381H1682.22V360.053H1684.93ZM1690.36 381V360.053H1693.07L1705.89 376.928V360.053H1708.45V381H1705.74L1692.92 363.979V381H1690.36ZM1729.27 380.18C1727.58 380.824 1725.76 381.146 1723.8 381.146C1716.22 381.146 1712.42 377.509 1712.42 370.233C1712.42 363.349 1716.08 359.906 1723.41 359.906C1725.51 359.906 1727.46 360.199 1729.27 360.785V363.129C1727.46 362.445 1725.61 362.104 1723.7 362.104C1717.99 362.104 1715.13 364.813 1715.13 370.233C1715.13 376.044 1717.94 378.949 1723.57 378.949C1724.47 378.949 1725.46 378.832 1726.56 378.598V371.479H1729.27V380.18Z" fill="white"/>
<ellipse cx="963.5" cy="804.5" rx="266.5" ry="24.5" fill="#C4C4C4"/>
<rect x="755" y="319" width="415" height="486" fill="#423ABA"/>
<path d="M783 360.053V362.25H776.408V381H773.698V362.25H767.106V360.053H783ZM788.361 370.468C788.361 376.122 790.915 378.949 796.022 378.949C801.022 378.949 803.522 376.122 803.522 370.468C803.522 364.892 801.022 362.104 796.022 362.104C790.915 362.104 788.361 364.892 788.361 370.468ZM785.505 370.556C785.505 363.456 789.011 359.906 796.022 359.906C802.927 359.906 806.379 363.456 806.379 370.556C806.379 377.616 802.927 381.146 796.022 381.146C789.011 381.146 785.505 377.616 785.505 370.556ZM810.642 381V360.053H819.138C823.415 360.053 825.554 361.923 825.554 365.663C825.554 369.735 822.629 372.221 816.779 373.119L816.223 370.834C820.52 370.199 822.668 368.515 822.668 365.78C822.668 363.456 821.408 362.294 818.889 362.294H813.352V381H810.642ZM836.481 381V360.053H839.191L852.009 376.928V360.053H854.572V381H851.862L839.045 363.979V381H836.481ZM873.264 360.053V362.25H862.277V369.281H872.751V371.479H862.277V378.803H873.483V381H859.567V360.053H873.264ZM893.405 380.18C891.716 380.824 889.895 381.146 887.941 381.146C880.354 381.146 876.56 377.509 876.56 370.233C876.56 363.349 880.222 359.906 887.546 359.906C889.646 359.906 891.599 360.199 893.405 360.785V363.129C891.599 362.445 889.743 362.104 887.839 362.104C882.126 362.104 879.27 364.813 879.27 370.233C879.27 376.044 882.082 378.949 887.707 378.949C888.605 378.949 889.602 378.832 890.695 378.598V371.479H893.405V380.18ZM898.576 381H895.764L904.655 360.053H907.658L916.594 381H913.591L910.881 374.408H903.952L904.699 372.211H909.973L906.062 362.719L898.576 381ZM933.586 360.053V362.25H926.994V381H924.284V362.25H917.692V360.053H933.586ZM939.973 360.053V381H937.263V360.053H939.973ZM964.113 360.053L955.222 381H952.219L943.283 360.053H946.14L953.815 378.188L961.301 360.053H964.113ZM980.666 360.053V362.25H969.68V369.281H980.153V371.479H969.68V378.803H980.886V381H966.97V360.053H980.666ZM995.021 360.053V381H992.312V360.053H995.021ZM1009.76 360.053L1000.32 369.94L1009.96 381H1006.2L997.658 370.922V369.281L1006.33 360.053H1009.76ZM1026.52 360.053V362.25H1015.53V369.281H1026V371.479H1015.53V378.803H1026.74V381H1012.82V360.053H1026.52ZM1028.71 360.053H1031.72L1037.75 370.995L1043.87 360.053H1047.02L1039.03 373.676V381H1036.32V373.676L1028.71 360.053ZM1048.12 360.053H1050.74L1053.69 378.275L1059.61 360.053H1062.32L1068.66 378.275L1071.98 360.053H1074.49L1070.55 381H1066.86L1060.94 363.451L1055.21 381H1051.56L1048.12 360.053ZM1079.84 370.468C1079.84 376.122 1082.39 378.949 1087.5 378.949C1092.5 378.949 1095 376.122 1095 370.468C1095 364.892 1092.5 362.104 1087.5 362.104C1082.39 362.104 1079.84 364.892 1079.84 370.468ZM1076.98 370.556C1076.98 363.456 1080.49 359.906 1087.5 359.906C1094.4 359.906 1097.85 363.456 1097.85 370.556C1097.85 377.616 1094.4 381.146 1087.5 381.146C1080.49 381.146 1076.98 377.616 1076.98 370.556ZM1102.12 381V360.053H1111.05C1115.04 360.053 1117.03 361.728 1117.03 365.077C1117.03 367.802 1115.08 369.818 1111.18 371.127L1118.38 381H1114.8L1108.14 371.581V369.809C1112.14 369.174 1114.14 367.636 1114.14 365.194C1114.14 363.261 1113.03 362.294 1110.8 362.294H1104.83V381H1102.12ZM1128.86 378.803C1133.99 378.803 1136.55 375.854 1136.55 369.955C1136.55 364.818 1133.99 362.25 1128.86 362.25H1123.96V378.803H1128.86ZM1121.25 381V360.053H1128.86C1135.8 360.053 1139.26 363.354 1139.26 369.955C1139.26 377.318 1135.8 381 1128.86 381H1121.25ZM1142.93 380.268V377.777C1145.12 378.559 1147.5 378.949 1150.05 378.949C1153.65 378.949 1155.45 377.631 1155.45 374.994C1155.45 372.748 1154.12 371.625 1151.47 371.625H1148.77C1144.39 371.625 1142.19 369.721 1142.19 365.912C1142.19 361.908 1145 359.906 1150.62 359.906C1153.06 359.906 1155.33 360.199 1157.43 360.785V363.275C1155.33 362.494 1153.06 362.104 1150.62 362.104C1146.81 362.104 1144.9 363.373 1144.9 365.912C1144.9 368.158 1146.19 369.281 1148.77 369.281H1151.47C1155.93 369.281 1158.16 371.186 1158.16 374.994C1158.16 379.096 1155.46 381.146 1150.05 381.146C1147.5 381.146 1145.12 380.854 1142.93 380.268Z" fill="white"/>
<line x1="867" y1="407.5" x2="1065" y2="407.5" stroke="white"/>
<path d="M871.726 480.803C876.853 480.803 879.416 477.854 879.416 471.955C879.416 466.818 876.853 464.25 871.726 464.25H866.818V480.803H871.726ZM864.108 483V462.053H871.726C878.659 462.053 882.126 465.354 882.126 471.955C882.126 479.318 878.659 483 871.726 483H864.108ZM889.23 462.053V483H886.521V462.053H889.23ZM894.665 483V462.053H898.107L905.798 479.528L913.342 462.053H916.638V483H914.221V465.817L906.779 483H904.641L897.082 465.817V483H894.665ZM931.652 462.053V480.803H942.609V483H928.942V462.053H931.652ZM948.996 462.053V483H946.286V462.053H948.996ZM970.251 482.18C968.562 482.824 966.74 483.146 964.787 483.146C957.199 483.146 953.405 479.509 953.405 472.233C953.405 465.349 957.067 461.906 964.392 461.906C966.491 461.906 968.444 462.199 970.251 462.785V465.129C968.444 464.445 966.589 464.104 964.685 464.104C958.972 464.104 956.115 466.813 956.115 472.233C956.115 478.044 958.928 480.949 964.553 480.949C965.451 480.949 966.447 480.832 967.541 480.598V473.479H970.251V482.18ZM974.733 483V462.053H977.443V471.281H989.821V462.053H992.531V483H989.821V473.479H977.443V483H974.733ZM1011.66 462.053V464.25H1005.07V483H1002.36V464.25H995.769V462.053H1011.66ZM1018.05 462.053V483H1015.34V462.053H1018.05ZM1023.48 483V462.053H1026.19L1039.01 478.928V462.053H1041.57V483H1038.86L1026.05 465.979V483H1023.48ZM1062.39 482.18C1060.7 482.824 1058.88 483.146 1056.93 483.146C1049.34 483.146 1045.54 479.509 1045.54 472.233C1045.54 465.349 1049.21 461.906 1056.53 461.906C1058.63 461.906 1060.58 462.199 1062.39 462.785V465.129C1060.58 464.445 1058.73 464.104 1056.82 464.104C1051.11 464.104 1048.25 466.813 1048.25 472.233C1048.25 478.044 1051.07 480.949 1056.69 480.949C1057.59 480.949 1058.59 480.832 1059.68 480.598V473.479H1062.39V482.18Z" fill="white"/>
<path d="M871.726 480.803C876.853 480.803 879.416 477.854 879.416 471.955C879.416 466.818 876.853 464.25 871.726 464.25H866.818V480.803H871.726ZM864.108 483V462.053H871.726C878.659 462.053 882.126 465.354 882.126 471.955C882.126 479.318 878.659 483 871.726 483H864.108ZM889.23 462.053V483H886.521V462.053H889.23ZM894.665 483V462.053H898.107L905.798 479.528L913.342 462.053H916.638V483H914.221V465.817L906.779 483H904.641L897.082 465.817V483H894.665ZM931.652 462.053V480.803H942.609V483H928.942V462.053H931.652ZM948.996 462.053V483H946.286V462.053H948.996ZM970.251 482.18C968.562 482.824 966.74 483.146 964.787 483.146C957.199 483.146 953.405 479.509 953.405 472.233C953.405 465.349 957.067 461.906 964.392 461.906C966.491 461.906 968.444 462.199 970.251 462.785V465.129C968.444 464.445 966.589 464.104 964.685 464.104C958.972 464.104 956.115 466.813 956.115 472.233C956.115 478.044 958.928 480.949 964.553 480.949C965.451 480.949 966.447 480.832 967.541 480.598V473.479H970.251V482.18ZM974.733 483V462.053H977.443V471.281H989.821V462.053H992.531V483H989.821V473.479H977.443V483H974.733ZM1011.66 462.053V464.25H1005.07V483H1002.36V464.25H995.769V462.053H1011.66ZM1018.05 462.053V483H1015.34V462.053H1018.05ZM1023.48 483V462.053H1026.19L1039.01 478.928V462.053H1041.57V483H1038.86L1026.05 465.979V483H1023.48ZM1062.39 482.18C1060.7 482.824 1058.88 483.146 1056.93 483.146C1049.34 483.146 1045.54 479.509 1045.54 472.233C1045.54 465.349 1049.21 461.906 1056.53 461.906C1058.63 461.906 1060.58 462.199 1062.39 462.785V465.129C1060.58 464.445 1058.73 464.104 1056.82 464.104C1051.11 464.104 1048.25 466.813 1048.25 472.233C1048.25 478.044 1051.07 480.949 1056.69 480.949C1057.59 480.949 1058.59 480.832 1059.68 480.598V473.479H1062.39V482.18Z" fill="white"/>
<path d="M871.726 480.803C876.853 480.803 879.416 477.854 879.416 471.955C879.416 466.818 876.853 464.25 871.726 464.25H866.818V480.803H871.726ZM864.108 483V462.053H871.726C878.659 462.053 882.126 465.354 882.126 471.955C882.126 479.318 878.659 483 871.726 483H864.108ZM889.23 462.053V483H886.521V462.053H889.23ZM894.665 483V462.053H898.107L905.798 479.528L913.342 462.053H916.638V483H914.221V465.817L906.779 483H904.641L897.082 465.817V483H894.665ZM931.652 462.053V480.803H942.609V483H928.942V462.053H931.652ZM948.996 462.053V483H946.286V462.053H948.996ZM970.251 482.18C968.562 482.824 966.74 483.146 964.787 483.146C957.199 483.146 953.405 479.509 953.405 472.233C953.405 465.349 957.067 461.906 964.392 461.906C966.491 461.906 968.444 462.199 970.251 462.785V465.129C968.444 464.445 966.589 464.104 964.685 464.104C958.972 464.104 956.115 466.813 956.115 472.233C956.115 478.044 958.928 480.949 964.553 480.949C965.451 480.949 966.447 480.832 967.541 480.598V473.479H970.251V482.18ZM974.733 483V462.053H977.443V471.281H989.821V462.053H992.531V483H989.821V473.479H977.443V483H974.733ZM1011.66 462.053V464.25H1005.07V483H1002.36V464.25H995.769V462.053H1011.66ZM1018.05 462.053V483H1015.34V462.053H1018.05ZM1023.48 483V462.053H1026.19L1039.01 478.928V462.053H1041.57V483H1038.86L1026.05 465.979V483H1023.48ZM1062.39 482.18C1060.7 482.824 1058.88 483.146 1056.93 483.146C1049.34 483.146 1045.54 479.509 1045.54 472.233C1045.54 465.349 1049.21 461.906 1056.53 461.906C1058.63 461.906 1060.58 462.199 1062.39 462.785V465.129C1060.58 464.445 1058.73 464.104 1056.82 464.104C1051.11 464.104 1048.25 466.813 1048.25 472.233C1048.25 478.044 1051.07 480.949 1056.69 480.949C1057.59 480.949 1058.59 480.832 1059.68 480.598V473.479H1062.39V482.18Z" fill="white"/>
<path d="M871.726 480.803C876.853 480.803 879.416 477.854 879.416 471.955C879.416 466.818 876.853 464.25 871.726 464.25H866.818V480.803H871.726ZM864.108 483V462.053H871.726C878.659 462.053 882.126 465.354 882.126 471.955C882.126 479.318 878.659 483 871.726 483H864.108ZM889.23 462.053V483H886.521V462.053H889.23ZM894.665 483V462.053H898.107L905.798 479.528L913.342 462.053H916.638V483H914.221V465.817L906.779 483H904.641L897.082 465.817V483H894.665ZM931.652 462.053V480.803H942.609V483H928.942V462.053H931.652ZM948.996 462.053V483H946.286V462.053H948.996ZM970.251 482.18C968.562 482.824 966.74 483.146 964.787 483.146C957.199 483.146 953.405 479.509 953.405 472.233C953.405 465.349 957.067 461.906 964.392 461.906C966.491 461.906 968.444 462.199 970.251 462.785V465.129C968.444 464.445 966.589 464.104 964.685 464.104C958.972 464.104 956.115 466.813 956.115 472.233C956.115 478.044 958.928 480.949 964.553 480.949C965.451 480.949 966.447 480.832 967.541 480.598V473.479H970.251V482.18ZM974.733 483V462.053H977.443V471.281H989.821V462.053H992.531V483H989.821V473.479H977.443V483H974.733ZM1011.66 462.053V464.25H1005.07V483H1002.36V464.25H995.769V462.053H1011.66ZM1018.05 462.053V483H1015.34V462.053H1018.05ZM1023.48 483V462.053H1026.19L1039.01 478.928V462.053H1041.57V483H1038.86L1026.05 465.979V483H1023.48ZM1062.39 482.18C1060.7 482.824 1058.88 483.146 1056.93 483.146C1049.34 483.146 1045.54 479.509 1045.54 472.233C1045.54 465.349 1049.21 461.906 1056.53 461.906C1058.63 461.906 1060.58 462.199 1062.39 462.785V465.129C1060.58 464.445 1058.73 464.104 1056.82 464.104C1051.11 464.104 1048.25 466.813 1048.25 472.233C1048.25 478.044 1051.07 480.949 1056.69 480.949C1057.59 480.949 1058.59 480.832 1059.68 480.598V473.479H1062.39V482.18Z" fill="white"/>
<path d="M856.345 561V540.053H864.841C869.118 540.053 871.257 541.923 871.257 545.663C871.257 549.735 868.332 552.221 862.482 553.119L861.926 550.834C866.223 550.199 868.371 548.515 868.371 545.78C868.371 543.456 867.111 542.294 864.592 542.294H859.055V561H856.345ZM876.984 550.468C876.984 556.122 879.538 558.949 884.646 558.949C889.646 558.949 892.146 556.122 892.146 550.468C892.146 544.892 889.646 542.104 884.646 542.104C879.538 542.104 876.984 544.892 876.984 550.468ZM874.128 550.556C874.128 543.456 877.634 539.906 884.646 539.906C891.55 539.906 895.002 543.456 895.002 550.556C895.002 557.616 891.55 561.146 884.646 561.146C877.634 561.146 874.128 557.616 874.128 550.556ZM901.389 550.468C901.389 556.122 903.942 558.949 909.05 558.949C914.05 558.949 916.55 556.122 916.55 550.468C916.55 544.892 914.05 542.104 909.05 542.104C903.942 542.104 901.389 544.892 901.389 550.468ZM898.532 550.556C898.532 543.456 902.038 539.906 909.05 539.906C915.954 539.906 919.406 543.456 919.406 550.556C919.406 557.616 915.954 561.146 909.05 561.146C902.038 561.146 898.532 557.616 898.532 550.556ZM923.669 561V540.053H932.604C936.589 540.053 938.581 541.728 938.581 545.077C938.581 547.802 936.633 549.818 932.736 551.127L939.929 561H936.354L929.689 551.581V549.809C933.693 549.174 935.695 547.636 935.695 545.194C935.695 543.261 934.582 542.294 932.355 542.294H926.379V561H923.669ZM949.831 560.268V557.777C952.028 558.559 954.401 558.949 956.95 558.949C960.554 558.949 962.355 557.631 962.355 554.994C962.355 552.748 961.027 551.625 958.371 551.625H955.676C951.291 551.625 949.099 549.721 949.099 545.912C949.099 541.908 951.906 539.906 957.521 539.906C959.963 539.906 962.233 540.199 964.333 540.785V543.275C962.233 542.494 959.963 542.104 957.521 542.104C953.713 542.104 951.809 543.373 951.809 545.912C951.809 548.158 953.098 549.281 955.676 549.281H958.371C962.834 549.281 965.065 551.186 965.065 554.994C965.065 559.096 962.36 561.146 956.95 561.146C954.401 561.146 952.028 560.854 949.831 560.268ZM982.717 540.053V542.25H971.73V549.281H982.204V551.479H971.73V558.803H982.937V561H969.021V540.053H982.717ZM987.038 561V540.053H995.974C999.958 540.053 1001.95 541.728 1001.95 545.077C1001.95 547.802 1000 549.818 996.105 551.127L1003.3 561H999.724L993.059 551.581V549.809C997.062 549.174 999.064 547.636 999.064 545.194C999.064 543.261 997.951 542.294 995.725 542.294H989.748V561H987.038ZM1024.88 540.053L1015.98 561H1012.98L1004.04 540.053H1006.9L1014.58 558.188L1022.06 540.053H1024.88ZM1030.88 540.053V561H1028.17V540.053H1030.88ZM1052.14 560.268C1050.33 560.854 1048.38 561.146 1046.28 561.146C1038.95 561.146 1035.29 557.509 1035.29 550.233C1035.29 543.349 1038.95 539.906 1046.28 539.906C1048.38 539.906 1050.33 540.199 1052.14 540.785V543.129C1050.33 542.445 1048.47 542.104 1046.57 542.104C1040.86 542.104 1038 544.813 1038 550.233C1038 556.044 1040.86 558.949 1046.57 558.949C1048.47 558.949 1050.33 558.607 1052.14 557.924V560.268ZM1070.31 540.053V542.25H1059.33V549.281H1069.8V551.479H1059.33V558.803H1070.53V561H1056.62V540.053H1070.31Z" fill="white"/>
<path d="M856.345 561V540.053H864.841C869.118 540.053 871.257 541.923 871.257 545.663C871.257 549.735 868.332 552.221 862.482 553.119L861.926 550.834C866.223 550.199 868.371 548.515 868.371 545.78C868.371 543.456 867.111 542.294 864.592 542.294H859.055V561H856.345ZM876.984 550.468C876.984 556.122 879.538 558.949 884.646 558.949C889.646 558.949 892.146 556.122 892.146 550.468C892.146 544.892 889.646 542.104 884.646 542.104C879.538 542.104 876.984 544.892 876.984 550.468ZM874.128 550.556C874.128 543.456 877.634 539.906 884.646 539.906C891.55 539.906 895.002 543.456 895.002 550.556C895.002 557.616 891.55 561.146 884.646 561.146C877.634 561.146 874.128 557.616 874.128 550.556ZM901.389 550.468C901.389 556.122 903.942 558.949 909.05 558.949C914.05 558.949 916.55 556.122 916.55 550.468C916.55 544.892 914.05 542.104 909.05 542.104C903.942 542.104 901.389 544.892 901.389 550.468ZM898.532 550.556C898.532 543.456 902.038 539.906 909.05 539.906C915.954 539.906 919.406 543.456 919.406 550.556C919.406 557.616 915.954 561.146 909.05 561.146C902.038 561.146 898.532 557.616 898.532 550.556ZM923.669 561V540.053H932.604C936.589 540.053 938.581 541.728 938.581 545.077C938.581 547.802 936.633 549.818 932.736 551.127L939.929 561H936.354L929.689 551.581V549.809C933.693 549.174 935.695 547.636 935.695 545.194C935.695 543.261 934.582 542.294 932.355 542.294H926.379V561H923.669ZM949.831 560.268V557.777C952.028 558.559 954.401 558.949 956.95 558.949C960.554 558.949 962.355 557.631 962.355 554.994C962.355 552.748 961.027 551.625 958.371 551.625H955.676C951.291 551.625 949.099 549.721 949.099 545.912C949.099 541.908 951.906 539.906 957.521 539.906C959.963 539.906 962.233 540.199 964.333 540.785V543.275C962.233 542.494 959.963 542.104 957.521 542.104C953.713 542.104 951.809 543.373 951.809 545.912C951.809 548.158 953.098 549.281 955.676 549.281H958.371C962.834 549.281 965.065 551.186 965.065 554.994C965.065 559.096 962.36 561.146 956.95 561.146C954.401 561.146 952.028 560.854 949.831 560.268ZM982.717 540.053V542.25H971.73V549.281H982.204V551.479H971.73V558.803H982.937V561H969.021V540.053H982.717ZM987.038 561V540.053H995.974C999.958 540.053 1001.95 541.728 1001.95 545.077C1001.95 547.802 1000 549.818 996.105 551.127L1003.3 561H999.724L993.059 551.581V549.809C997.062 549.174 999.064 547.636 999.064 545.194C999.064 543.261 997.951 542.294 995.725 542.294H989.748V561H987.038ZM1024.88 540.053L1015.98 561H1012.98L1004.04 540.053H1006.9L1014.58 558.188L1022.06 540.053H1024.88ZM1030.88 540.053V561H1028.17V540.053H1030.88ZM1052.14 560.268C1050.33 560.854 1048.38 561.146 1046.28 561.146C1038.95 561.146 1035.29 557.509 1035.29 550.233C1035.29 543.349 1038.95 539.906 1046.28 539.906C1048.38 539.906 1050.33 540.199 1052.14 540.785V543.129C1050.33 542.445 1048.47 542.104 1046.57 542.104C1040.86 542.104 1038 544.813 1038 550.233C1038 556.044 1040.86 558.949 1046.57 558.949C1048.47 558.949 1050.33 558.607 1052.14 557.924V560.268ZM1070.31 540.053V542.25H1059.33V549.281H1069.8V551.479H1059.33V558.803H1070.53V561H1056.62V540.053H1070.31Z" fill="white"/>
<path d="M856.345 561V540.053H864.841C869.118 540.053 871.257 541.923 871.257 545.663C871.257 549.735 868.332 552.221 862.482 553.119L861.926 550.834C866.223 550.199 868.371 548.515 868.371 545.78C868.371 543.456 867.111 542.294 864.592 542.294H859.055V561H856.345ZM876.984 550.468C876.984 556.122 879.538 558.949 884.646 558.949C889.646 558.949 892.146 556.122 892.146 550.468C892.146 544.892 889.646 542.104 884.646 542.104C879.538 542.104 876.984 544.892 876.984 550.468ZM874.128 550.556C874.128 543.456 877.634 539.906 884.646 539.906C891.55 539.906 895.002 543.456 895.002 550.556C895.002 557.616 891.55 561.146 884.646 561.146C877.634 561.146 874.128 557.616 874.128 550.556ZM901.389 550.468C901.389 556.122 903.942 558.949 909.05 558.949C914.05 558.949 916.55 556.122 916.55 550.468C916.55 544.892 914.05 542.104 909.05 542.104C903.942 542.104 901.389 544.892 901.389 550.468ZM898.532 550.556C898.532 543.456 902.038 539.906 909.05 539.906C915.954 539.906 919.406 543.456 919.406 550.556C919.406 557.616 915.954 561.146 909.05 561.146C902.038 561.146 898.532 557.616 898.532 550.556ZM923.669 561V540.053H932.604C936.589 540.053 938.581 541.728 938.581 545.077C938.581 547.802 936.633 549.818 932.736 551.127L939.929 561H936.354L929.689 551.581V549.809C933.693 549.174 935.695 547.636 935.695 545.194C935.695 543.261 934.582 542.294 932.355 542.294H926.379V561H923.669ZM949.831 560.268V557.777C952.028 558.559 954.401 558.949 956.95 558.949C960.554 558.949 962.355 557.631 962.355 554.994C962.355 552.748 961.027 551.625 958.371 551.625H955.676C951.291 551.625 949.099 549.721 949.099 545.912C949.099 541.908 951.906 539.906 957.521 539.906C959.963 539.906 962.233 540.199 964.333 540.785V543.275C962.233 542.494 959.963 542.104 957.521 542.104C953.713 542.104 951.809 543.373 951.809 545.912C951.809 548.158 953.098 549.281 955.676 549.281H958.371C962.834 549.281 965.065 551.186 965.065 554.994C965.065 559.096 962.36 561.146 956.95 561.146C954.401 561.146 952.028 560.854 949.831 560.268ZM982.717 540.053V542.25H971.73V549.281H982.204V551.479H971.73V558.803H982.937V561H969.021V540.053H982.717ZM987.038 561V540.053H995.974C999.958 540.053 1001.95 541.728 1001.95 545.077C1001.95 547.802 1000 549.818 996.105 551.127L1003.3 561H999.724L993.059 551.581V549.809C997.062 549.174 999.064 547.636 999.064 545.194C999.064 543.261 997.951 542.294 995.725 542.294H989.748V561H987.038ZM1024.88 540.053L1015.98 561H1012.98L1004.04 540.053H1006.9L1014.58 558.188L1022.06 540.053H1024.88ZM1030.88 540.053V561H1028.17V540.053H1030.88ZM1052.14 560.268C1050.33 560.854 1048.38 561.146 1046.28 561.146C1038.95 561.146 1035.29 557.509 1035.29 550.233C1035.29 543.349 1038.95 539.906 1046.28 539.906C1048.38 539.906 1050.33 540.199 1052.14 540.785V543.129C1050.33 542.445 1048.47 542.104 1046.57 542.104C1040.86 542.104 1038 544.813 1038 550.233C1038 556.044 1040.86 558.949 1046.57 558.949C1048.47 558.949 1050.33 558.607 1052.14 557.924V560.268ZM1070.31 540.053V542.25H1059.33V549.281H1069.8V551.479H1059.33V558.803H1070.53V561H1056.62V540.053H1070.31Z" fill="white"/>
<path d="M856.345 561V540.053H864.841C869.118 540.053 871.257 541.923 871.257 545.663C871.257 549.735 868.332 552.221 862.482 553.119L861.926 550.834C866.223 550.199 868.371 548.515 868.371 545.78C868.371 543.456 867.111 542.294 864.592 542.294H859.055V561H856.345ZM876.984 550.468C876.984 556.122 879.538 558.949 884.646 558.949C889.646 558.949 892.146 556.122 892.146 550.468C892.146 544.892 889.646 542.104 884.646 542.104C879.538 542.104 876.984 544.892 876.984 550.468ZM874.128 550.556C874.128 543.456 877.634 539.906 884.646 539.906C891.55 539.906 895.002 543.456 895.002 550.556C895.002 557.616 891.55 561.146 884.646 561.146C877.634 561.146 874.128 557.616 874.128 550.556ZM901.389 550.468C901.389 556.122 903.942 558.949 909.05 558.949C914.05 558.949 916.55 556.122 916.55 550.468C916.55 544.892 914.05 542.104 909.05 542.104C903.942 542.104 901.389 544.892 901.389 550.468ZM898.532 550.556C898.532 543.456 902.038 539.906 909.05 539.906C915.954 539.906 919.406 543.456 919.406 550.556C919.406 557.616 915.954 561.146 909.05 561.146C902.038 561.146 898.532 557.616 898.532 550.556ZM923.669 561V540.053H932.604C936.589 540.053 938.581 541.728 938.581 545.077C938.581 547.802 936.633 549.818 932.736 551.127L939.929 561H936.354L929.689 551.581V549.809C933.693 549.174 935.695 547.636 935.695 545.194C935.695 543.261 934.582 542.294 932.355 542.294H926.379V561H923.669ZM949.831 560.268V557.777C952.028 558.559 954.401 558.949 956.95 558.949C960.554 558.949 962.355 557.631 962.355 554.994C962.355 552.748 961.027 551.625 958.371 551.625H955.676C951.291 551.625 949.099 549.721 949.099 545.912C949.099 541.908 951.906 539.906 957.521 539.906C959.963 539.906 962.233 540.199 964.333 540.785V543.275C962.233 542.494 959.963 542.104 957.521 542.104C953.713 542.104 951.809 543.373 951.809 545.912C951.809 548.158 953.098 549.281 955.676 549.281H958.371C962.834 549.281 965.065 551.186 965.065 554.994C965.065 559.096 962.36 561.146 956.95 561.146C954.401 561.146 952.028 560.854 949.831 560.268ZM982.717 540.053V542.25H971.73V549.281H982.204V551.479H971.73V558.803H982.937V561H969.021V540.053H982.717ZM987.038 561V540.053H995.974C999.958 540.053 1001.95 541.728 1001.95 545.077C1001.95 547.802 1000 549.818 996.105 551.127L1003.3 561H999.724L993.059 551.581V549.809C997.062 549.174 999.064 547.636 999.064 545.194C999.064 543.261 997.951 542.294 995.725 542.294H989.748V561H987.038ZM1024.88 540.053L1015.98 561H1012.98L1004.04 540.053H1006.9L1014.58 558.188L1022.06 540.053H1024.88ZM1030.88 540.053V561H1028.17V540.053H1030.88ZM1052.14 560.268C1050.33 560.854 1048.38 561.146 1046.28 561.146C1038.95 561.146 1035.29 557.509 1035.29 550.233C1035.29 543.349 1038.95 539.906 1046.28 539.906C1048.38 539.906 1050.33 540.199 1052.14 540.785V543.129C1050.33 542.445 1048.47 542.104 1046.57 542.104C1040.86 542.104 1038 544.813 1038 550.233C1038 556.044 1040.86 558.949 1046.57 558.949C1048.47 558.949 1050.33 558.607 1052.14 557.924V560.268ZM1070.31 540.053V542.25H1059.33V549.281H1069.8V551.479H1059.33V558.803H1070.53V561H1056.62V540.053H1070.31Z" fill="white"/>
<path d="M883.514 618.053V636.803H894.471V639H880.804V618.053H883.514ZM899.832 628.468C899.832 634.122 902.386 636.949 907.493 636.949C912.493 636.949 914.993 634.122 914.993 628.468C914.993 622.892 912.493 620.104 907.493 620.104C902.386 620.104 899.832 622.892 899.832 628.468ZM896.976 628.556C896.976 621.456 900.481 617.906 907.493 617.906C914.397 617.906 917.85 621.456 917.85 628.556C917.85 635.616 914.397 639.146 907.493 639.146C900.481 639.146 896.976 635.616 896.976 628.556ZM922.112 639V618.053H924.822L937.64 634.928V618.053H940.203V639H937.493L924.676 621.979V639H922.112ZM961.019 638.18C959.329 638.824 957.508 639.146 955.555 639.146C947.967 639.146 944.173 635.509 944.173 628.233C944.173 621.349 947.835 617.906 955.159 617.906C957.259 617.906 959.212 618.199 961.019 618.785V621.129C959.212 620.445 957.356 620.104 955.452 620.104C949.739 620.104 946.883 622.813 946.883 628.233C946.883 634.044 949.695 636.949 955.32 636.949C956.219 636.949 957.215 636.832 958.309 636.598V629.479H961.019V638.18ZM971.067 618.053H973.689L976.634 636.275L982.552 618.053H985.262L991.604 636.275L994.93 618.053H997.435L993.494 639H989.803L983.885 621.451L978.157 639H974.51L971.067 618.053ZM1001.35 639H998.533L1007.42 618.053H1010.43L1019.36 639H1016.36L1013.65 632.408H1006.72L1007.47 630.211H1012.74L1008.83 620.719L1001.35 639ZM1025.37 618.053V639H1022.66V618.053H1025.37ZM1044.94 618.053V620.25H1038.35V639H1035.64V620.25H1029.05V618.053H1044.94Z" fill="white"/>
<path d="M883.514 618.053V636.803H894.471V639H880.804V618.053H883.514ZM899.832 628.468C899.832 634.122 902.386 636.949 907.493 636.949C912.493 636.949 914.993 634.122 914.993 628.468C914.993 622.892 912.493 620.104 907.493 620.104C902.386 620.104 899.832 622.892 899.832 628.468ZM896.976 628.556C896.976 621.456 900.481 617.906 907.493 617.906C914.397 617.906 917.85 621.456 917.85 628.556C917.85 635.616 914.397 639.146 907.493 639.146C900.481 639.146 896.976 635.616 896.976 628.556ZM922.112 639V618.053H924.822L937.64 634.928V618.053H940.203V639H937.493L924.676 621.979V639H922.112ZM961.019 638.18C959.329 638.824 957.508 639.146 955.555 639.146C947.967 639.146 944.173 635.509 944.173 628.233C944.173 621.349 947.835 617.906 955.159 617.906C957.259 617.906 959.212 618.199 961.019 618.785V621.129C959.212 620.445 957.356 620.104 955.452 620.104C949.739 620.104 946.883 622.813 946.883 628.233C946.883 634.044 949.695 636.949 955.32 636.949C956.219 636.949 957.215 636.832 958.309 636.598V629.479H961.019V638.18ZM971.067 618.053H973.689L976.634 636.275L982.552 618.053H985.262L991.604 636.275L994.93 618.053H997.435L993.494 639H989.803L983.885 621.451L978.157 639H974.51L971.067 618.053ZM1001.35 639H998.533L1007.42 618.053H1010.43L1019.36 639H1016.36L1013.65 632.408H1006.72L1007.47 630.211H1012.74L1008.83 620.719L1001.35 639ZM1025.37 618.053V639H1022.66V618.053H1025.37ZM1044.94 618.053V620.25H1038.35V639H1035.64V620.25H1029.05V618.053H1044.94Z" fill="white"/>
<path d="M883.514 618.053V636.803H894.471V639H880.804V618.053H883.514ZM899.832 628.468C899.832 634.122 902.386 636.949 907.493 636.949C912.493 636.949 914.993 634.122 914.993 628.468C914.993 622.892 912.493 620.104 907.493 620.104C902.386 620.104 899.832 622.892 899.832 628.468ZM896.976 628.556C896.976 621.456 900.481 617.906 907.493 617.906C914.397 617.906 917.85 621.456 917.85 628.556C917.85 635.616 914.397 639.146 907.493 639.146C900.481 639.146 896.976 635.616 896.976 628.556ZM922.112 639V618.053H924.822L937.64 634.928V618.053H940.203V639H937.493L924.676 621.979V639H922.112ZM961.019 638.18C959.329 638.824 957.508 639.146 955.555 639.146C947.967 639.146 944.173 635.509 944.173 628.233C944.173 621.349 947.835 617.906 955.159 617.906C957.259 617.906 959.212 618.199 961.019 618.785V621.129C959.212 620.445 957.356 620.104 955.452 620.104C949.739 620.104 946.883 622.813 946.883 628.233C946.883 634.044 949.695 636.949 955.32 636.949C956.219 636.949 957.215 636.832 958.309 636.598V629.479H961.019V638.18ZM971.067 618.053H973.689L976.634 636.275L982.552 618.053H985.262L991.604 636.275L994.93 618.053H997.435L993.494 639H989.803L983.885 621.451L978.157 639H974.51L971.067 618.053ZM1001.35 639H998.533L1007.42 618.053H1010.43L1019.36 639H1016.36L1013.65 632.408H1006.72L1007.47 630.211H1012.74L1008.83 620.719L1001.35 639ZM1025.37 618.053V639H1022.66V618.053H1025.37ZM1044.94 618.053V620.25H1038.35V639H1035.64V620.25H1029.05V618.053H1044.94Z" fill="white"/>
<path d="M883.514 618.053V636.803H894.471V639H880.804V618.053H883.514ZM899.832 628.468C899.832 634.122 902.386 636.949 907.493 636.949C912.493 636.949 914.993 634.122 914.993 628.468C914.993 622.892 912.493 620.104 907.493 620.104C902.386 620.104 899.832 622.892 899.832 628.468ZM896.976 628.556C896.976 621.456 900.481 617.906 907.493 617.906C914.397 617.906 917.85 621.456 917.85 628.556C917.85 635.616 914.397 639.146 907.493 639.146C900.481 639.146 896.976 635.616 896.976 628.556ZM922.112 639V618.053H924.822L937.64 634.928V618.053H940.203V639H937.493L924.676 621.979V639H922.112ZM961.019 638.18C959.329 638.824 957.508 639.146 955.555 639.146C947.967 639.146 944.173 635.509 944.173 628.233C944.173 621.349 947.835 617.906 955.159 617.906C957.259 617.906 959.212 618.199 961.019 618.785V621.129C959.212 620.445 957.356 620.104 955.452 620.104C949.739 620.104 946.883 622.813 946.883 628.233C946.883 634.044 949.695 636.949 955.32 636.949C956.219 636.949 957.215 636.832 958.309 636.598V629.479H961.019V638.18ZM971.067 618.053H973.689L976.634 636.275L982.552 618.053H985.262L991.604 636.275L994.93 618.053H997.435L993.494 639H989.803L983.885 621.451L978.157 639H974.51L971.067 618.053ZM1001.35 639H998.533L1007.42 618.053H1010.43L1019.36 639H1016.36L1013.65 632.408H1006.72L1007.47 630.211H1012.74L1008.83 620.719L1001.35 639ZM1025.37 618.053V639H1022.66V618.053H1025.37ZM1044.94 618.053V620.25H1038.35V639H1035.64V620.25H1029.05V618.053H1044.94Z" fill="white"/>
<path d="M889.999 716.268C888.192 716.854 886.239 717.146 884.14 717.146C876.815 717.146 873.153 713.509 873.153 706.233C873.153 699.349 876.815 695.906 884.14 695.906C886.239 695.906 888.192 696.199 889.999 696.785V699.129C888.192 698.445 886.337 698.104 884.433 698.104C878.72 698.104 875.863 700.813 875.863 706.233C875.863 712.044 878.72 714.949 884.433 714.949C886.337 714.949 888.192 714.607 889.999 713.924V716.268ZM896.605 706.468C896.605 712.122 899.159 714.949 904.267 714.949C909.267 714.949 911.767 712.122 911.767 706.468C911.767 700.892 909.267 698.104 904.267 698.104C899.159 698.104 896.605 700.892 896.605 706.468ZM893.749 706.556C893.749 699.456 897.255 695.906 904.267 695.906C911.171 695.906 914.623 699.456 914.623 706.556C914.623 713.616 911.171 717.146 904.267 717.146C897.255 717.146 893.749 713.616 893.749 706.556ZM921.596 696.053V714.803H932.553V717H918.886V696.053H921.596ZM943.407 714.803C948.534 714.803 951.098 711.854 951.098 705.955C951.098 700.818 948.534 698.25 943.407 698.25H938.5V714.803H943.407ZM935.79 717V696.053H943.407C950.341 696.053 953.808 699.354 953.808 705.955C953.808 713.318 950.341 717 943.407 717H935.79ZM978.783 696.053V698.25H967.797V705.281H978.271V707.479H967.797V717H965.087V696.053H978.783ZM984.145 706.468C984.145 712.122 986.698 714.949 991.806 714.949C996.806 714.949 999.306 712.122 999.306 706.468C999.306 700.892 996.806 698.104 991.806 698.104C986.698 698.104 984.145 700.892 984.145 706.468ZM981.288 706.556C981.288 699.456 984.794 695.906 991.806 695.906C998.71 695.906 1002.16 699.456 1002.16 706.556C1002.16 713.616 998.71 717.146 991.806 717.146C984.794 717.146 981.288 713.616 981.288 706.556ZM1008.55 706.468C1008.55 712.122 1011.1 714.949 1016.21 714.949C1021.21 714.949 1023.71 712.122 1023.71 706.468C1023.71 700.892 1021.21 698.104 1016.21 698.104C1011.1 698.104 1008.55 700.892 1008.55 706.468ZM1005.69 706.556C1005.69 699.456 1009.2 695.906 1016.21 695.906C1023.11 695.906 1026.57 699.456 1026.57 706.556C1026.57 713.616 1023.11 717.146 1016.21 717.146C1009.2 717.146 1005.69 713.616 1005.69 706.556ZM1038.45 714.803C1043.57 714.803 1046.14 711.854 1046.14 705.955C1046.14 700.818 1043.57 698.25 1038.45 698.25H1033.54V714.803H1038.45ZM1030.83 717V696.053H1038.45C1045.38 696.053 1048.85 699.354 1048.85 705.955C1048.85 713.318 1045.38 717 1038.45 717H1030.83Z" fill="white"/>
<path d="M889.999 716.268C888.192 716.854 886.239 717.146 884.14 717.146C876.815 717.146 873.153 713.509 873.153 706.233C873.153 699.349 876.815 695.906 884.14 695.906C886.239 695.906 888.192 696.199 889.999 696.785V699.129C888.192 698.445 886.337 698.104 884.433 698.104C878.72 698.104 875.863 700.813 875.863 706.233C875.863 712.044 878.72 714.949 884.433 714.949C886.337 714.949 888.192 714.607 889.999 713.924V716.268ZM896.605 706.468C896.605 712.122 899.159 714.949 904.267 714.949C909.267 714.949 911.767 712.122 911.767 706.468C911.767 700.892 909.267 698.104 904.267 698.104C899.159 698.104 896.605 700.892 896.605 706.468ZM893.749 706.556C893.749 699.456 897.255 695.906 904.267 695.906C911.171 695.906 914.623 699.456 914.623 706.556C914.623 713.616 911.171 717.146 904.267 717.146C897.255 717.146 893.749 713.616 893.749 706.556ZM921.596 696.053V714.803H932.553V717H918.886V696.053H921.596ZM943.407 714.803C948.534 714.803 951.098 711.854 951.098 705.955C951.098 700.818 948.534 698.25 943.407 698.25H938.5V714.803H943.407ZM935.79 717V696.053H943.407C950.341 696.053 953.808 699.354 953.808 705.955C953.808 713.318 950.341 717 943.407 717H935.79ZM978.783 696.053V698.25H967.797V705.281H978.271V707.479H967.797V717H965.087V696.053H978.783ZM984.145 706.468C984.145 712.122 986.698 714.949 991.806 714.949C996.806 714.949 999.306 712.122 999.306 706.468C999.306 700.892 996.806 698.104 991.806 698.104C986.698 698.104 984.145 700.892 984.145 706.468ZM981.288 706.556C981.288 699.456 984.794 695.906 991.806 695.906C998.71 695.906 1002.16 699.456 1002.16 706.556C1002.16 713.616 998.71 717.146 991.806 717.146C984.794 717.146 981.288 713.616 981.288 706.556ZM1008.55 706.468C1008.55 712.122 1011.1 714.949 1016.21 714.949C1021.21 714.949 1023.71 712.122 1023.71 706.468C1023.71 700.892 1021.21 698.104 1016.21 698.104C1011.1 698.104 1008.55 700.892 1008.55 706.468ZM1005.69 706.556C1005.69 699.456 1009.2 695.906 1016.21 695.906C1023.11 695.906 1026.57 699.456 1026.57 706.556C1026.57 713.616 1023.11 717.146 1016.21 717.146C1009.2 717.146 1005.69 713.616 1005.69 706.556ZM1038.45 714.803C1043.57 714.803 1046.14 711.854 1046.14 705.955C1046.14 700.818 1043.57 698.25 1038.45 698.25H1033.54V714.803H1038.45ZM1030.83 717V696.053H1038.45C1045.38 696.053 1048.85 699.354 1048.85 705.955C1048.85 713.318 1045.38 717 1038.45 717H1030.83Z" fill="white"/>
<path d="M889.999 716.268C888.192 716.854 886.239 717.146 884.14 717.146C876.815 717.146 873.153 713.509 873.153 706.233C873.153 699.349 876.815 695.906 884.14 695.906C886.239 695.906 888.192 696.199 889.999 696.785V699.129C888.192 698.445 886.337 698.104 884.433 698.104C878.72 698.104 875.863 700.813 875.863 706.233C875.863 712.044 878.72 714.949 884.433 714.949C886.337 714.949 888.192 714.607 889.999 713.924V716.268ZM896.605 706.468C896.605 712.122 899.159 714.949 904.267 714.949C909.267 714.949 911.767 712.122 911.767 706.468C911.767 700.892 909.267 698.104 904.267 698.104C899.159 698.104 896.605 700.892 896.605 706.468ZM893.749 706.556C893.749 699.456 897.255 695.906 904.267 695.906C911.171 695.906 914.623 699.456 914.623 706.556C914.623 713.616 911.171 717.146 904.267 717.146C897.255 717.146 893.749 713.616 893.749 706.556ZM921.596 696.053V714.803H932.553V717H918.886V696.053H921.596ZM943.407 714.803C948.534 714.803 951.098 711.854 951.098 705.955C951.098 700.818 948.534 698.25 943.407 698.25H938.5V714.803H943.407ZM935.79 717V696.053H943.407C950.341 696.053 953.808 699.354 953.808 705.955C953.808 713.318 950.341 717 943.407 717H935.79ZM978.783 696.053V698.25H967.797V705.281H978.271V707.479H967.797V717H965.087V696.053H978.783ZM984.145 706.468C984.145 712.122 986.698 714.949 991.806 714.949C996.806 714.949 999.306 712.122 999.306 706.468C999.306 700.892 996.806 698.104 991.806 698.104C986.698 698.104 984.145 700.892 984.145 706.468ZM981.288 706.556C981.288 699.456 984.794 695.906 991.806 695.906C998.71 695.906 1002.16 699.456 1002.16 706.556C1002.16 713.616 998.71 717.146 991.806 717.146C984.794 717.146 981.288 713.616 981.288 706.556ZM1008.55 706.468C1008.55 712.122 1011.1 714.949 1016.21 714.949C1021.21 714.949 1023.71 712.122 1023.71 706.468C1023.71 700.892 1021.21 698.104 1016.21 698.104C1011.1 698.104 1008.55 700.892 1008.55 706.468ZM1005.69 706.556C1005.69 699.456 1009.2 695.906 1016.21 695.906C1023.11 695.906 1026.57 699.456 1026.57 706.556C1026.57 713.616 1023.11 717.146 1016.21 717.146C1009.2 717.146 1005.69 713.616 1005.69 706.556ZM1038.45 714.803C1043.57 714.803 1046.14 711.854 1046.14 705.955C1046.14 700.818 1043.57 698.25 1038.45 698.25H1033.54V714.803H1038.45ZM1030.83 717V696.053H1038.45C1045.38 696.053 1048.85 699.354 1048.85 705.955C1048.85 713.318 1045.38 717 1038.45 717H1030.83Z" fill="white"/>
<path d="M889.999 716.268C888.192 716.854 886.239 717.146 884.14 717.146C876.815 717.146 873.153 713.509 873.153 706.233C873.153 699.349 876.815 695.906 884.14 695.906C886.239 695.906 888.192 696.199 889.999 696.785V699.129C888.192 698.445 886.337 698.104 884.433 698.104C878.72 698.104 875.863 700.813 875.863 706.233C875.863 712.044 878.72 714.949 884.433 714.949C886.337 714.949 888.192 714.607 889.999 713.924V716.268ZM896.605 706.468C896.605 712.122 899.159 714.949 904.267 714.949C909.267 714.949 911.767 712.122 911.767 706.468C911.767 700.892 909.267 698.104 904.267 698.104C899.159 698.104 896.605 700.892 896.605 706.468ZM893.749 706.556C893.749 699.456 897.255 695.906 904.267 695.906C911.171 695.906 914.623 699.456 914.623 706.556C914.623 713.616 911.171 717.146 904.267 717.146C897.255 717.146 893.749 713.616 893.749 706.556ZM921.596 696.053V714.803H932.553V717H918.886V696.053H921.596ZM943.407 714.803C948.534 714.803 951.098 711.854 951.098 705.955C951.098 700.818 948.534 698.25 943.407 698.25H938.5V714.803H943.407ZM935.79 717V696.053H943.407C950.341 696.053 953.808 699.354 953.808 705.955C953.808 713.318 950.341 717 943.407 717H935.79ZM978.783 696.053V698.25H967.797V705.281H978.271V707.479H967.797V717H965.087V696.053H978.783ZM984.145 706.468C984.145 712.122 986.698 714.949 991.806 714.949C996.806 714.949 999.306 712.122 999.306 706.468C999.306 700.892 996.806 698.104 991.806 698.104C986.698 698.104 984.145 700.892 984.145 706.468ZM981.288 706.556C981.288 699.456 984.794 695.906 991.806 695.906C998.71 695.906 1002.16 699.456 1002.16 706.556C1002.16 713.616 998.71 717.146 991.806 717.146C984.794 717.146 981.288 713.616 981.288 706.556ZM1008.55 706.468C1008.55 712.122 1011.1 714.949 1016.21 714.949C1021.21 714.949 1023.71 712.122 1023.71 706.468C1023.71 700.892 1021.21 698.104 1016.21 698.104C1011.1 698.104 1008.55 700.892 1008.55 706.468ZM1005.69 706.556C1005.69 699.456 1009.2 695.906 1016.21 695.906C1023.11 695.906 1026.57 699.456 1026.57 706.556C1026.57 713.616 1023.11 717.146 1016.21 717.146C1009.2 717.146 1005.69 713.616 1005.69 706.556ZM1038.45 714.803C1043.57 714.803 1046.14 711.854 1046.14 705.955C1046.14 700.818 1043.57 698.25 1038.45 698.25H1033.54V714.803H1038.45ZM1030.83 717V696.053H1038.45C1045.38 696.053 1048.85 699.354 1048.85 705.955C1048.85 713.318 1045.38 717 1038.45 717H1030.83Z" fill="white"/>
<ellipse cx="326.5" cy="804.5" rx="266.5" ry="24.5" fill="#C4C4C4"/>
<rect x="118" y="319" width="415" height="486" fill="#423ABA"/>
<line x1="229" y1="407.5" x2="427" y2="407.5" stroke="white"/>
<path d="M202.336 380.268V377.777C204.533 378.559 206.906 378.949 209.455 378.949C213.059 378.949 214.86 377.631 214.86 374.994C214.86 372.748 213.532 371.625 210.876 371.625H208.181C203.796 371.625 201.604 369.721 201.604 365.912C201.604 361.908 204.411 359.906 210.026 359.906C212.468 359.906 214.738 360.199 216.838 360.785V363.275C214.738 362.494 212.468 362.104 210.026 362.104C206.218 362.104 204.313 363.373 204.313 365.912C204.313 368.158 205.603 369.281 208.181 369.281H210.876C215.339 369.281 217.57 371.186 217.57 374.994C217.57 379.096 214.865 381.146 209.455 381.146C206.906 381.146 204.533 380.854 202.336 380.268ZM224.675 360.053V381H221.965V360.053H224.675ZM244.245 360.053V362.25H237.653V381H234.943V362.25H228.352V360.053H244.245ZM261.179 360.053V362.25H250.192V369.281H260.666V371.479H250.192V378.803H261.398V381H247.482V360.053H261.179ZM265.207 380.268V377.777C267.404 378.559 269.777 378.949 272.326 378.949C275.93 378.949 277.731 377.631 277.731 374.994C277.731 372.748 276.403 371.625 273.747 371.625H271.052C266.667 371.625 264.475 369.721 264.475 365.912C264.475 361.908 267.282 359.906 272.897 359.906C275.339 359.906 277.609 360.199 279.709 360.785V363.275C277.609 362.494 275.339 362.104 272.897 362.104C269.089 362.104 267.185 363.373 267.185 365.912C267.185 368.158 268.474 369.281 271.052 369.281H273.747C278.21 369.281 280.441 371.186 280.441 374.994C280.441 379.096 277.736 381.146 272.326 381.146C269.777 381.146 267.404 380.854 265.207 380.268ZM292.409 381H289.597L298.488 360.053H301.491L310.427 381H307.424L304.714 374.408H297.785L298.532 372.211H303.806L299.895 362.719L292.409 381ZM313.283 381V360.053H315.993L328.811 376.928V360.053H331.374V381H328.664L315.847 363.979V381H313.283ZM337.058 381H334.245L343.137 360.053H346.14L355.075 381H352.072L349.362 374.408H342.434L343.181 372.211H348.454L344.543 362.719L337.058 381ZM360.642 360.053V378.803H371.599V381H357.932V360.053H360.642ZM372.712 360.053H375.715L381.75 370.995L387.873 360.053H391.022L383.024 373.676V381H380.314V373.676L372.712 360.053ZM409.04 360.053V362.25L396.486 378.803H408.747V381H393.22V378.803L406.169 362.25H393.513V360.053H409.04ZM427.058 360.053V362.25H416.071V369.281H426.545V371.479H416.071V378.803H427.277V381H413.361V360.053H427.058ZM438.996 378.803C444.123 378.803 446.687 375.854 446.687 369.955C446.687 364.818 444.123 362.25 438.996 362.25H434.089V378.803H438.996ZM431.379 381V360.053H438.996C445.93 360.053 449.396 363.354 449.396 369.955C449.396 377.318 445.93 381 438.996 381H431.379Z" fill="white"/>
<line x1="715" y1="249.5" x2="1211" y2="249.5" stroke="#837E7E"/>
<path d="M610.344 218V173.312H628.469C637.594 173.312 642.156 177.302 642.156 185.281C642.156 193.969 635.917 199.271 623.438 201.188L622.25 196.312C631.417 194.958 636 191.365 636 185.531C636 180.573 633.312 178.094 627.938 178.094H616.125V218H610.344ZM679.062 173.312V178H655.625V193H677.969V197.688H655.625V213.312H679.531V218H649.844V173.312H679.062ZM688.281 218V173.312H707.344C715.844 173.312 720.094 176.885 720.094 184.031C720.094 189.844 715.938 194.146 707.625 196.938L722.969 218H715.344L701.125 197.906V194.125C709.667 192.771 713.938 189.49 713.938 184.281C713.938 180.156 711.562 178.094 706.812 178.094H694.062V218H688.281ZM729.094 218V173.312H748.156C756.656 173.312 760.906 176.885 760.906 184.031C760.906 189.844 756.75 194.146 748.438 196.938L763.781 218H756.156L741.938 197.906V194.125C750.479 192.771 754.75 189.49 754.75 184.281C754.75 180.156 752.375 178.094 747.625 178.094H734.875V218H729.094ZM765.375 173.312H771.781L784.656 196.656L797.719 173.312H804.438L787.375 202.375V218H781.594V202.375L765.375 173.312ZM817.25 173.312L812.562 186.906H806.781L811.469 173.312H817.25ZM823.531 216.438V211.125C828.219 212.792 833.281 213.625 838.719 213.625C846.406 213.625 850.25 210.812 850.25 205.188C850.25 200.396 847.417 198 841.75 198H836C826.646 198 821.969 193.938 821.969 185.812C821.969 177.271 827.958 173 839.938 173C845.146 173 849.99 173.625 854.469 174.875V180.188C849.99 178.521 845.146 177.688 839.938 177.688C831.812 177.688 827.75 180.396 827.75 185.812C827.75 190.604 830.5 193 836 193H841.75C851.271 193 856.031 197.062 856.031 205.188C856.031 213.938 850.26 218.312 838.719 218.312C833.281 218.312 828.219 217.688 823.531 216.438ZM879.469 216.438V211.125C884.156 212.792 889.219 213.625 894.656 213.625C902.344 213.625 906.188 210.812 906.188 205.188C906.188 200.396 903.354 198 897.688 198H891.938C882.583 198 877.906 193.938 877.906 185.812C877.906 177.271 883.896 173 895.875 173C901.083 173 905.927 173.625 910.406 174.875V180.188C905.927 178.521 901.083 177.688 895.875 177.688C887.75 177.688 883.688 180.396 883.688 185.812C883.688 190.604 886.438 193 891.938 193H897.688C907.208 193 911.969 197.062 911.969 205.188C911.969 213.938 906.198 218.312 894.656 218.312C889.219 218.312 884.156 217.688 879.469 216.438ZM950.562 173.312V178H936.5V218H930.719V178H916.656V173.312H950.562ZM986.688 173.312V178H963.25V193H985.594V197.688H963.25V213.312H987.156V218H957.469V173.312H986.688ZM997.375 218H991.375L1010.34 173.312H1016.75L1035.81 218H1029.41L1023.62 203.938H1008.84L1010.44 199.25H1021.69L1013.34 179L997.375 218ZM1047.69 173.312V218H1041.91V173.312H1047.69ZM1079.12 173.312L1059 194.406L1079.56 218H1071.53L1053.31 196.5V193L1071.81 173.312H1079.12ZM1085.66 218V173.312H1091.44V193H1117.84V173.312H1123.62V218H1117.84V197.688H1091.44V218H1085.66ZM1138.81 195.531C1138.81 207.594 1144.26 213.625 1155.16 213.625C1165.82 213.625 1171.16 207.594 1171.16 195.531C1171.16 183.635 1165.82 177.688 1155.16 177.688C1144.26 177.688 1138.81 183.635 1138.81 195.531ZM1132.72 195.719C1132.72 180.573 1140.2 173 1155.16 173C1169.89 173 1177.25 180.573 1177.25 195.719C1177.25 210.781 1169.89 218.312 1155.16 218.312C1140.2 218.312 1132.72 210.781 1132.72 195.719ZM1186.03 200.75V173.312H1191.81V200.75C1191.81 209.333 1196.08 213.625 1204.62 213.625C1213.17 213.625 1217.44 209.333 1217.44 200.75V173.312H1223.22V200.75C1223.22 212.458 1217.02 218.312 1204.62 218.312C1192.23 218.312 1186.03 212.458 1186.03 200.75ZM1232.91 216.438V211.125C1237.59 212.792 1242.66 213.625 1248.09 213.625C1255.78 213.625 1259.62 210.812 1259.62 205.188C1259.62 200.396 1256.79 198 1251.12 198H1245.38C1236.02 198 1231.34 193.938 1231.34 185.812C1231.34 177.271 1237.33 173 1249.31 173C1254.52 173 1259.36 173.625 1263.84 174.875V180.188C1259.36 178.521 1254.52 177.688 1249.31 177.688C1241.19 177.688 1237.12 180.396 1237.12 185.812C1237.12 190.604 1239.88 193 1245.38 193H1251.12C1260.65 193 1265.41 197.062 1265.41 205.188C1265.41 213.938 1259.64 218.312 1248.09 218.312C1242.66 218.312 1237.59 217.688 1232.91 216.438ZM1303.06 173.312V178H1279.62V193H1301.97V197.688H1279.62V213.312H1303.53V218H1273.84V173.312H1303.06Z" fill="black"/>
<rect width="1912" height="103" fill="#423ABA"/>
<path d="M1499.29 42.2422H1501.7L1506.52 50.9961L1511.42 42.2422H1513.94L1507.54 53.1406V59H1505.38V53.1406L1499.29 42.2422ZM1517.93 50.5742C1517.93 55.0977 1519.97 57.3594 1524.05 57.3594C1528.05 57.3594 1530.05 55.0977 1530.05 50.5742C1530.05 46.1133 1528.05 43.8828 1524.05 43.8828C1519.97 43.8828 1517.93 46.1133 1517.93 50.5742ZM1515.64 50.6445C1515.64 44.9648 1518.45 42.125 1524.05 42.125C1529.58 42.125 1532.34 44.9648 1532.34 50.6445C1532.34 56.293 1529.58 59.1172 1524.05 59.1172C1518.45 59.1172 1515.64 56.293 1515.64 50.6445ZM1535.63 52.5312V42.2422H1537.8V52.5312C1537.8 55.75 1539.4 57.3594 1542.61 57.3594C1545.81 57.3594 1547.41 55.75 1547.41 52.5312V42.2422H1549.58V52.5312C1549.58 56.9219 1547.25 59.1172 1542.61 59.1172C1537.96 59.1172 1535.63 56.9219 1535.63 52.5312ZM1553.45 59V42.2422H1560.59C1563.78 42.2422 1565.38 43.582 1565.38 46.2617C1565.38 48.4414 1563.82 50.0547 1560.7 51.1016L1566.45 59H1563.59L1558.26 51.4648V50.0469C1561.46 49.5391 1563.07 48.3086 1563.07 46.3555C1563.07 44.8086 1562.18 44.0352 1560.39 44.0352H1555.61V59H1553.45ZM1574.61 59V42.2422H1581.76C1584.95 42.2422 1586.54 43.543 1586.54 46.1445C1586.54 48.0508 1585.5 49.4141 1583.42 50.2344C1585.64 50.6484 1586.75 51.918 1586.75 54.043C1586.75 57.3477 1585 59 1581.51 59H1574.61ZM1581.38 57.2422C1583.38 57.2422 1584.38 56.2266 1584.38 54.1953C1584.38 52.2188 1583.04 51.2305 1580.36 51.2305H1579.43V49.8125C1582.63 49.3828 1584.23 48.2266 1584.23 46.3438C1584.23 44.7812 1583.34 44 1581.56 44H1576.78V57.2422H1581.38ZM1592.71 42.2422V59H1590.55V42.2422H1592.71ZM1609.19 42.2422V44L1599.15 57.2422H1608.96V59H1596.54V57.2422L1606.89 44H1596.77V42.2422H1609.19Z" fill="white"/>
<path d="M1499.29 42.2422H1501.7L1506.52 50.9961L1511.42 42.2422H1513.94L1507.54 53.1406V59H1505.38V53.1406L1499.29 42.2422ZM1517.93 50.5742C1517.93 55.0977 1519.97 57.3594 1524.05 57.3594C1528.05 57.3594 1530.05 55.0977 1530.05 50.5742C1530.05 46.1133 1528.05 43.8828 1524.05 43.8828C1519.97 43.8828 1517.93 46.1133 1517.93 50.5742ZM1515.64 50.6445C1515.64 44.9648 1518.45 42.125 1524.05 42.125C1529.58 42.125 1532.34 44.9648 1532.34 50.6445C1532.34 56.293 1529.58 59.1172 1524.05 59.1172C1518.45 59.1172 1515.64 56.293 1515.64 50.6445ZM1535.63 52.5312V42.2422H1537.8V52.5312C1537.8 55.75 1539.4 57.3594 1542.61 57.3594C1545.81 57.3594 1547.41 55.75 1547.41 52.5312V42.2422H1549.58V52.5312C1549.58 56.9219 1547.25 59.1172 1542.61 59.1172C1537.96 59.1172 1535.63 56.9219 1535.63 52.5312ZM1553.45 59V42.2422H1560.59C1563.78 42.2422 1565.38 43.582 1565.38 46.2617C1565.38 48.4414 1563.82 50.0547 1560.7 51.1016L1566.45 59H1563.59L1558.26 51.4648V50.0469C1561.46 49.5391 1563.07 48.3086 1563.07 46.3555C1563.07 44.8086 1562.18 44.0352 1560.39 44.0352H1555.61V59H1553.45ZM1574.61 59V42.2422H1581.76C1584.95 42.2422 1586.54 43.543 1586.54 46.1445C1586.54 48.0508 1585.5 49.4141 1583.42 50.2344C1585.64 50.6484 1586.75 51.918 1586.75 54.043C1586.75 57.3477 1585 59 1581.51 59H1574.61ZM1581.38 57.2422C1583.38 57.2422 1584.38 56.2266 1584.38 54.1953C1584.38 52.2188 1583.04 51.2305 1580.36 51.2305H1579.43V49.8125C1582.63 49.3828 1584.23 48.2266 1584.23 46.3438C1584.23 44.7812 1583.34 44 1581.56 44H1576.78V57.2422H1581.38ZM1592.71 42.2422V59H1590.55V42.2422H1592.71ZM1609.19 42.2422V44L1599.15 57.2422H1608.96V59H1596.54V57.2422L1606.89 44H1596.77V42.2422H1609.19Z" fill="white"/>
<path d="M1679.16 42.2422V57.2422H1687.93V59H1676.99V42.2422H1679.16ZM1692.21 50.5742C1692.21 55.0977 1694.26 57.3594 1698.34 57.3594C1702.34 57.3594 1704.34 55.0977 1704.34 50.5742C1704.34 46.1133 1702.34 43.8828 1698.34 43.8828C1694.26 43.8828 1692.21 46.1133 1692.21 50.5742ZM1689.93 50.6445C1689.93 44.9648 1692.73 42.125 1698.34 42.125C1703.87 42.125 1706.63 44.9648 1706.63 50.6445C1706.63 56.293 1703.87 59.1172 1698.34 59.1172C1692.73 59.1172 1689.93 56.293 1689.93 50.6445ZM1722.7 58.3438C1721.34 58.8594 1719.89 59.1172 1718.32 59.1172C1712.25 59.1172 1709.22 56.207 1709.22 50.3867C1709.22 44.8789 1712.15 42.125 1718.01 42.125C1719.69 42.125 1721.25 42.3594 1722.7 42.8281V44.7031C1721.25 44.1562 1719.77 43.8828 1718.24 43.8828C1713.67 43.8828 1711.39 46.0508 1711.39 50.3867C1711.39 55.0352 1713.64 57.3594 1718.14 57.3594C1718.86 57.3594 1719.65 57.2656 1720.53 57.0781V51.3828H1722.7V58.3438ZM1727.98 50.5742C1727.98 55.0977 1730.02 57.3594 1734.11 57.3594C1738.11 57.3594 1740.11 55.0977 1740.11 50.5742C1740.11 46.1133 1738.11 43.8828 1734.11 43.8828C1730.02 43.8828 1727.98 46.1133 1727.98 50.5742ZM1725.7 50.6445C1725.7 44.9648 1728.5 42.125 1734.11 42.125C1739.63 42.125 1742.39 44.9648 1742.39 50.6445C1742.39 56.293 1739.63 59.1172 1734.11 59.1172C1728.5 59.1172 1725.7 56.293 1725.7 50.6445ZM1745.69 52.5312V42.2422H1747.86V52.5312C1747.86 55.75 1749.46 57.3594 1752.66 57.3594C1755.86 57.3594 1757.46 55.75 1757.46 52.5312V42.2422H1759.63V52.5312C1759.63 56.9219 1757.31 59.1172 1752.66 59.1172C1748.01 59.1172 1745.69 56.9219 1745.69 52.5312ZM1774.81 42.2422V44H1769.54V59H1767.37V44H1762.09V42.2422H1774.81Z" fill="white"/>
<path d="M121.984 71V37.4844H136.281C142.656 37.4844 145.844 40.0859 145.844 45.2891C145.844 49.1016 143.766 51.8281 139.609 53.4688C144.047 54.2969 146.266 56.8359 146.266 61.0859C146.266 67.6953 142.773 71 135.789 71H121.984ZM135.531 67.4844C139.531 67.4844 141.531 65.4531 141.531 61.3906C141.531 57.4375 138.852 55.4609 133.492 55.4609H131.617V52.625C138.023 51.7656 141.227 49.4531 141.227 45.6875C141.227 42.5625 139.445 41 135.883 41H126.32V67.4844H135.531ZM162.836 46.3906C169.836 46.3906 173.336 49.8516 173.336 56.7734C173.336 57.7578 173.266 58.8125 173.125 59.9375H155.852C155.852 64.9688 158.789 67.4844 164.664 67.4844C167.461 67.4844 169.945 67.1719 172.117 66.5469V70.0625C169.945 70.6875 167.305 71 164.195 71C155.742 71 151.516 66.8047 151.516 58.4141C151.516 50.3984 155.289 46.3906 162.836 46.3906ZM155.852 56.3281H169.164C169.07 52.0156 166.961 49.8594 162.836 49.8594C158.461 49.8594 156.133 52.0156 155.852 56.3281ZM179.172 42.4062H181.891L182.828 46.3906H189.484V49.9062H183.508V64.0391C183.508 66.3359 184.5 67.4844 186.484 67.4844H189.484V71H185.359C181.234 71 179.172 68.7891 179.172 64.3672V42.4062ZM195.016 42.4062H197.734L198.672 46.3906H205.328V49.9062H199.352V64.0391C199.352 66.3359 200.344 67.4844 202.328 67.4844H205.328V71H201.203C197.078 71 195.016 68.7891 195.016 64.3672V42.4062ZM221.008 46.3906C228.008 46.3906 231.508 49.8516 231.508 56.7734C231.508 57.7578 231.438 58.8125 231.297 59.9375H214.023C214.023 64.9688 216.961 67.4844 222.836 67.4844C225.633 67.4844 228.117 67.1719 230.289 66.5469V70.0625C228.117 70.6875 225.477 71 222.367 71C213.914 71 209.688 66.8047 209.688 58.4141C209.688 50.3984 213.461 46.3906 221.008 46.3906ZM214.023 56.3281H227.336C227.242 52.0156 225.133 49.8594 221.008 49.8594C216.633 49.8594 214.305 52.0156 214.023 56.3281ZM237.344 71V46.3906H240.273L241.047 49.5312C243.203 47.4375 245.797 46.3906 248.828 46.3906V50C245.891 50 243.508 51.0391 241.68 53.1172V71H237.344ZM265.375 71V37.4844H279.672C286.047 37.4844 289.234 40.0859 289.234 45.2891C289.234 49.1016 287.156 51.8281 283 53.4688C287.438 54.2969 289.656 56.8359 289.656 61.0859C289.656 67.6953 286.164 71 279.18 71H265.375ZM278.922 67.4844C282.922 67.4844 284.922 65.4531 284.922 61.3906C284.922 57.4375 282.242 55.4609 276.883 55.4609H275.008V52.625C281.414 51.7656 284.617 49.4531 284.617 45.6875C284.617 42.5625 282.836 41 279.273 41H269.711V67.4844H278.922ZM317.289 46.3906V71H314.312L313.562 67.8594C310.578 69.9531 307.578 71 304.562 71C298.906 71 296.078 67.9453 296.078 61.8359V46.3906H300.414V61.9062C300.414 65.5625 302.227 67.3906 305.852 67.3906C308.336 67.3906 310.703 66.3516 312.953 64.2734V46.3906H317.289ZM324.109 69.8281V66.0781C327 67.0156 329.922 67.4844 332.875 67.4844C336.797 67.4844 338.758 66.3125 338.758 63.9688C338.758 61.7812 337.391 60.6875 334.656 60.6875H331.141C325.828 60.6875 323.172 58.2656 323.172 53.4219C323.172 48.7344 326.586 46.3906 333.414 46.3906C336.352 46.3906 339.266 46.7812 342.156 47.5625V51.3125C339.266 50.375 336.352 49.9062 333.414 49.9062C329.32 49.9062 327.273 51.0781 327.273 53.4219C327.273 55.6094 328.562 56.7031 331.141 56.7031H334.656C340.281 56.7031 343.094 59.125 343.094 63.9688C343.094 68.6562 339.688 71 332.875 71C329.922 71 327 70.6094 324.109 69.8281ZM353.758 46.3906V71H349.422V46.3906H353.758ZM353.758 37.4844V41.5859H349.422V37.4844H353.758ZM361.281 71V46.3906H364.211L364.984 49.5312C367.5 47.4375 370.266 46.3906 373.281 46.3906C379.422 46.3906 382.492 49.4453 382.492 55.5547V71H378.156V55.4844C378.156 51.8281 376.336 50 372.695 50C370.211 50 367.852 51.0391 365.617 53.1172V71H361.281ZM399.695 46.3906C406.695 46.3906 410.195 49.8516 410.195 56.7734C410.195 57.7578 410.125 58.8125 409.984 59.9375H392.711C392.711 64.9688 395.648 67.4844 401.523 67.4844C404.32 67.4844 406.805 67.1719 408.977 66.5469V70.0625C406.805 70.6875 404.164 71 401.055 71C392.602 71 388.375 66.8047 388.375 58.4141C388.375 50.3984 392.148 46.3906 399.695 46.3906ZM392.711 56.3281H406.023C405.93 52.0156 403.82 49.8594 399.695 49.8594C395.32 49.8594 392.992 52.0156 392.711 56.3281ZM415.797 69.8281V66.0781C418.688 67.0156 421.609 67.4844 424.562 67.4844C428.484 67.4844 430.445 66.3125 430.445 63.9688C430.445 61.7812 429.078 60.6875 426.344 60.6875H422.828C417.516 60.6875 414.859 58.2656 414.859 53.4219C414.859 48.7344 418.273 46.3906 425.102 46.3906C428.039 46.3906 430.953 46.7812 433.844 47.5625V51.3125C430.953 50.375 428.039 49.9062 425.102 49.9062C421.008 49.9062 418.961 51.0781 418.961 53.4219C418.961 55.6094 420.25 56.7031 422.828 56.7031H426.344C431.969 56.7031 434.781 59.125 434.781 63.9688C434.781 68.6562 431.375 71 424.562 71C421.609 71 418.688 70.6094 415.797 69.8281ZM440.406 69.8281V66.0781C443.297 67.0156 446.219 67.4844 449.172 67.4844C453.094 67.4844 455.055 66.3125 455.055 63.9688C455.055 61.7812 453.688 60.6875 450.953 60.6875H447.438C442.125 60.6875 439.469 58.2656 439.469 53.4219C439.469 48.7344 442.883 46.3906 449.711 46.3906C452.648 46.3906 455.562 46.7812 458.453 47.5625V51.3125C455.562 50.375 452.648 49.9062 449.711 49.9062C445.617 49.9062 443.57 51.0781 443.57 53.4219C443.57 55.6094 444.859 56.7031 447.438 56.7031H450.953C456.578 56.7031 459.391 59.125 459.391 63.9688C459.391 68.6562 455.984 71 449.172 71C446.219 71 443.297 70.6094 440.406 69.8281Z" fill="white"/>
<path d="M51.1706 81V41.8984H67.8503C75.2878 41.8984 79.0065 44.9336 79.0065 51.0039C79.0065 55.4518 76.5821 58.6328 71.7331 60.5469C76.9102 61.513 79.4987 64.4753 79.4987 69.4336C79.4987 77.1445 75.4245 81 67.2761 81H51.1706ZM66.9753 76.8984C71.6419 76.8984 73.9753 74.5286 73.9753 69.7891C73.9753 65.1771 70.849 62.8711 64.5964 62.8711H62.4089V59.5625C69.8828 58.5599 73.6198 55.862 73.6198 51.4688C73.6198 47.8229 71.5417 46 67.3854 46H56.2292V76.8984H66.9753Z" fill="white"/>
<path d="M55.7494 64V24.8984H39.0697C31.6322 24.8984 27.9135 27.9336 27.9135 34.0039C27.9135 38.4518 30.3379 41.6328 35.1869 43.5469C30.0098 44.513 27.4213 47.4753 27.4213 52.4336C27.4213 60.1445 31.4955 64 39.6439 64H55.7494ZM39.9447 59.8984C35.278 59.8984 32.9447 57.5286 32.9447 52.7891C32.9447 48.1771 36.071 45.8711 42.3236 45.8711H44.5111V42.5625C37.0372 41.5599 33.3002 38.862 33.3002 34.4688C33.3002 30.8229 35.3783 29 39.5345 29H50.6908V59.8984H39.9447Z" fill="white"/>
<line x1="100.5" y1="81" x2="100.5" y2="26" stroke="white" stroke-width="3"/>
<path d="M1704.05 520.063L1707.61 523.429L1707 525.581L1707.1 524.977L1707.33 523.515L1706.31 522.442L1704.05 520.063ZM1704.88 538.947L1705.04 537.907L1709.38 535.665L1714.67 532.93V533.387L1704.88 538.947Z" fill="#433BBC" stroke="white" stroke-width="6"/>
<g clip-path="url(#clip0)">
<path d="M394.428 508.738C393.553 508.085 393.409 507.985 388.149 506.275C392.704 505.169 392.9 505.051 393.708 504.527C395.537 503.303 396.513 501.273 396.371 499.074L396.353 498.834C395.982 495.304 391.377 488.645 388.277 487.15C386.232 486.186 383.958 486.322 382.167 487.51C381.324 488.061 381.211 488.137 377.749 492.803C377.412 487.35 376.762 477.735 376.602 476.835L376.568 476.629L376.517 476.429C375.925 474.316 374.247 472.73 372.024 472.18C368.315 471.267 358.504 473.997 355.872 476.675C354.327 478.268 353.733 480.411 354.266 482.421L354.374 482.821L354.556 483.192C354.808 483.705 355.472 484.791 361.165 493.612L363.264 496.877C358.167 494.818 357.964 494.811 356.909 494.802C354.9 494.716 352.887 495.777 351.675 497.652L351.652 497.688C351.027 498.683 350.64 500.035 350.399 501.453C348.757 499.267 346.285 497.514 342.537 496.788C339.88 496.262 337.387 496.579 335.039 497.517C332.888 496.162 329.932 496.004 327.46 497.397C326.698 497.825 326.126 498.336 325.678 498.88V495.886L325.442 494.107L325.37 493.787C324.873 491.857 323.397 490.229 321.422 489.429L321.404 489.42C319.236 488.556 316.804 488.763 314.741 489.982C312.543 491.264 311.416 493.392 311.416 496.302V502.408C310.633 501.204 309.666 500.16 308.521 499.302C305.435 496.992 301.295 496.213 296.558 497.052C293.811 497.523 291.514 498.707 289.694 500.444C289.665 500.389 289.636 500.32 289.607 500.264C288.682 498.629 287.182 497.505 285.26 497.008C282.053 496.139 277.981 497.217 276.3 502.881C276.3 502.881 276.028 503.796 275.655 505.046C274.919 503.714 273.012 500.073 272.933 499.964C271.214 497.392 267.772 496.277 264.695 497.485C261.721 498.592 260 501.175 260 504.211C260 505.169 260.169 506.166 260.522 507.179L260.61 507.425C260.61 507.425 266.719 519.713 268.488 523.269C265.646 524.009 263.622 526.101 263.293 528.971C263.26 529.244 263.242 529.519 263.242 529.79C263.242 531.616 264.009 533.36 265.417 534.639C267.554 536.587 270.874 537.231 274.773 536.443C279.009 535.621 281.445 533.1 283.153 527.753L285.751 519.693C286.597 523.087 288.135 525.304 289.595 526.725C291.694 528.775 295.539 531.043 301.903 530.195C306.631 529.542 309.904 527.451 311.673 524.995L311.787 525.588C312.291 527.34 313.661 528.897 315.501 529.726C317.425 530.605 319.652 530.59 321.604 529.686C322.624 529.248 323.487 528.558 324.16 527.693V530.235C324.16 534.435 326.621 536.221 328.088 536.914C330.002 537.864 332.294 537.94 334.29 537.085C336.175 536.278 337.574 534.743 338.123 532.88L338.209 532.593L338.465 530.861C338.465 530.861 338.465 530.192 338.465 530.117C341.023 530.374 343.693 529.964 346.044 528.76C347.083 528.227 347.992 527.585 348.804 526.847H350.532C351.472 527.336 352.541 527.64 353.69 527.64C354.844 527.64 355.91 527.336 356.849 526.847H361.858C365.176 528.691 370.026 530.088 372.623 529.648C374.859 529.257 376.62 527.836 377.365 525.843L377.403 525.743C377.718 524.837 377.77 524.668 377.792 519.548C380.635 524.084 380.784 524.204 381.583 524.826C383.299 526.148 385.555 526.439 387.638 525.61C390.983 524.284 396.095 517.869 396.607 514.349C396.65 514.042 396.675 513.731 396.675 513.427C396.675 511.583 395.87 509.875 394.428 508.738ZM342.519 496.784C342.525 496.788 342.53 496.788 342.537 496.788C342.541 496.792 342.546 496.792 342.552 496.792L342.519 496.784ZM387.643 525.61H387.638C387.632 525.61 387.629 525.617 387.623 525.619L387.643 525.61Z" fill="white"/>
<path d="M394.428 508.738C393.553 508.085 393.409 507.985 388.149 506.275C392.704 505.169 392.9 505.051 393.708 504.527C395.537 503.303 396.513 501.273 396.371 499.074L396.353 498.834C395.982 495.304 391.377 488.645 388.277 487.15C386.232 486.186 383.958 486.322 382.167 487.51C381.324 488.061 381.211 488.137 377.749 492.803C377.412 487.35 376.762 477.735 376.602 476.835L376.568 476.629L376.517 476.429C375.925 474.316 374.247 472.73 372.024 472.18C368.315 471.267 358.504 473.997 355.872 476.675C354.327 478.268 353.733 480.411 354.266 482.421L354.374 482.821L354.556 483.192C354.808 483.705 355.472 484.791 361.165 493.612L363.264 496.877C358.167 494.818 357.964 494.811 356.909 494.802C354.9 494.716 352.887 495.777 351.674 497.652L351.652 497.688C351.027 498.683 350.64 500.035 350.399 501.453C348.757 499.267 346.285 497.514 342.537 496.788C339.88 496.262 337.387 496.579 335.039 497.517C332.888 496.162 329.932 496.004 327.46 497.397C326.698 497.825 326.126 498.336 325.678 498.88V495.886L325.442 494.107L325.37 493.787C324.873 491.857 323.397 490.229 321.422 489.429L321.404 489.42C319.236 488.556 316.804 488.763 314.741 489.982C312.543 491.264 311.416 493.392 311.416 496.302V502.408C310.633 501.204 309.666 500.16 308.521 499.302C305.435 496.992 301.295 496.213 296.558 497.052C293.811 497.523 291.514 498.707 289.694 500.444C289.665 500.389 289.636 500.32 289.607 500.264C288.682 498.629 287.182 497.505 285.26 497.008C282.053 496.139 277.981 497.217 276.3 502.881C276.3 502.881 276.028 503.796 275.655 505.046C274.919 503.714 273.012 500.073 272.933 499.964C271.214 497.392 267.772 496.277 264.695 497.485C261.721 498.592 260 501.175 260 504.211C260 505.169 260.169 506.166 260.522 507.179L260.61 507.425C260.61 507.425 266.719 519.713 268.488 523.269C265.646 524.009 263.622 526.101 263.293 528.971C263.26 529.244 263.242 529.519 263.242 529.79C263.242 531.616 264.009 533.36 265.417 534.639C267.554 536.587 270.874 537.231 274.773 536.443C279.009 535.621 281.445 533.1 283.153 527.753L285.751 519.693C286.597 523.087 288.135 525.304 289.595 526.725C291.694 528.775 295.539 531.043 301.903 530.195C306.631 529.542 309.904 527.451 311.673 524.995L311.787 525.588C312.291 527.34 313.661 528.897 315.501 529.726C317.425 530.605 319.652 530.59 321.604 529.686C322.624 529.248 323.487 528.558 324.16 527.693V530.235C324.16 534.435 326.621 536.221 328.088 536.914C330.002 537.864 332.294 537.94 334.29 537.085C336.175 536.278 337.574 534.743 338.123 532.88L338.209 532.593L338.465 530.861C338.465 530.861 338.465 530.192 338.465 530.117C341.023 530.374 343.693 529.964 346.044 528.76C347.083 528.227 347.992 527.585 348.804 526.847H350.532C351.472 527.336 352.541 527.64 353.69 527.64C354.844 527.64 355.91 527.336 356.849 526.847H361.858C365.176 528.691 370.026 530.088 372.623 529.648C374.859 529.257 376.62 527.836 377.365 525.843L377.403 525.743C377.718 524.837 377.77 524.668 377.792 519.548C380.635 524.084 380.784 524.204 381.583 524.826C383.299 526.148 385.555 526.439 387.638 525.61C390.983 524.284 396.095 517.869 396.607 514.349C396.65 514.042 396.675 513.731 396.675 513.427C396.675 511.583 395.87 509.875 394.428 508.738Z" stroke="#BDBCBC" stroke-width="0.145" stroke-linecap="round" stroke-linejoin="round"/>
<path d="M342.52 496.786C342.533 496.79 342.536 496.79 342.546 496.79C342.556 496.793 342.559 496.793 342.572 496.793L342.52 496.786Z" stroke="#BDBCBC" stroke-width="0.145" stroke-linecap="round" stroke-linejoin="round"/>
<path d="M387.662 525.614H387.65C387.642 525.614 387.638 525.618 387.626 525.62L387.662 525.614Z" stroke="#BDBCBC" stroke-width="0.145" stroke-linecap="round" stroke-linejoin="round"/>
<path d="M354.638 501.627C353.826 502.911 353.487 506.944 353.768 509.625C353.865 510.509 354.024 511.247 354.265 511.684C354.589 512.295 355.133 512.659 355.754 512.679C356.148 512.699 356.398 512.635 363.884 510.252C363.884 510.252 367.211 509.208 367.229 509.201C368.053 508.99 368.615 508.239 368.669 507.278C368.723 506.289 368.203 505.421 367.357 505.105L365.009 504.159C356.96 500.881 356.602 500.756 356.193 500.752C355.574 500.723 355.023 501.036 354.638 501.627Z" fill="#E9E9E9"/>
<path d="M372.633 526.042C372.765 525.669 372.779 525.413 372.799 517.648C372.799 517.648 372.819 514.217 372.826 514.179C372.876 513.344 372.327 512.575 371.422 512.231C370.493 511.875 369.492 512.093 368.928 512.786C368.928 512.786 367.29 514.705 367.283 514.707C361.648 521.249 361.412 521.546 361.277 521.937C361.191 522.164 361.158 522.404 361.185 522.648C361.221 522.992 361.376 523.341 361.643 523.652C362.948 525.191 369.218 527.468 371.215 527.13C371.911 527.006 372.419 526.615 372.633 526.042Z" fill="#E9E9E9"/>
<path d="M385.343 523.339C387.237 522.595 391.363 517.415 391.651 515.425C391.75 514.73 391.531 514.134 391.045 513.75C390.733 513.515 390.483 513.424 383.008 510.998C383.008 510.998 379.721 509.927 379.685 509.91C378.887 509.603 377.982 509.885 377.373 510.629C376.738 511.391 376.639 512.393 377.15 513.155L378.47 515.276C382.913 522.402 383.248 522.904 383.568 523.152C384.063 523.532 384.695 523.601 385.343 523.339Z" fill="#E9E9E9"/>
<path d="M381.485 505.001C389.988 502.971 390.314 502.864 390.652 502.646C391.167 502.3 391.421 501.731 391.378 501.027C391.378 501.003 391.381 500.983 391.378 500.958C391.158 498.899 387.502 493.535 385.701 492.664C385.059 492.365 384.421 492.385 383.894 492.731C383.566 492.949 383.32 493.26 378.772 499.412C378.772 499.412 376.714 502.18 376.689 502.204C376.147 502.853 376.14 503.788 376.666 504.59C377.213 505.418 378.144 505.823 378.995 505.589C378.995 505.589 378.956 505.647 378.95 505.661C379.366 505.503 380.122 505.321 381.485 505.001Z" fill="#E9E9E9"/>
<path d="M372.945 498.069C372.797 494.741 371.787 479.928 371.668 479.244C371.494 478.618 371.002 478.176 370.293 478C368.127 477.467 359.828 479.766 358.292 481.332C357.801 481.838 357.617 482.467 357.763 483.022C358.004 483.511 368.282 499.479 368.282 499.479C369.803 501.913 371.042 501.534 371.447 501.409C371.852 501.285 373.085 500.905 372.945 498.069Z" fill="#E9E9E9"/>
<path d="M355.318 499.948C354.508 501.229 354.166 505.265 354.447 507.944C354.546 508.828 354.708 509.565 354.944 510.005C355.268 510.614 355.813 510.976 356.434 510.998C356.832 511.018 357.079 510.951 364.566 508.575C364.566 508.575 367.893 507.526 367.906 507.52C368.736 507.311 369.294 506.558 369.348 505.596C369.402 504.61 368.887 503.739 368.037 503.424C368.037 503.424 365.691 502.48 365.686 502.48C357.642 499.204 357.279 499.075 356.874 499.07C356.254 499.046 355.702 499.355 355.318 499.948Z" fill="#BF2519"/>
<path d="M373.314 524.358C373.445 523.985 373.461 523.73 373.483 515.965C373.483 515.965 373.501 512.533 373.503 512.5C373.557 511.658 373.006 510.891 372.104 510.549C371.175 510.196 370.174 510.414 369.611 511.105C369.611 511.105 367.969 513.028 367.965 513.028C362.33 519.565 362.093 519.867 361.956 520.254C361.873 520.48 361.839 520.725 361.866 520.967C361.9 521.313 362.06 521.655 362.323 521.975C363.63 523.508 369.897 525.784 371.899 525.447C372.594 525.322 373.101 524.936 373.314 524.358Z" fill="#BF2519"/>
<path d="M386.029 521.655C387.919 520.911 392.04 515.734 392.33 513.741C392.431 513.048 392.211 512.451 391.727 512.069C391.41 511.833 391.169 511.742 383.687 509.317C383.687 509.317 380.405 508.246 380.362 508.226C379.568 507.922 378.662 508.204 378.052 508.946C377.418 509.707 377.323 510.714 377.829 511.473L379.15 513.597C383.591 520.718 383.93 521.222 384.25 521.469C384.745 521.853 385.374 521.915 386.029 521.655Z" fill="#BF2519"/>
<path d="M382.162 503.322C390.665 501.287 390.994 501.18 391.329 500.963C391.844 500.621 392.103 500.048 392.058 499.35C392.058 499.328 392.062 499.303 392.058 499.279C391.84 497.218 388.182 491.856 386.38 490.985C385.741 490.683 385.102 490.703 384.571 491.054C384.243 491.265 384.002 491.585 379.449 497.733C379.449 497.733 377.393 500.498 377.368 500.525C376.826 501.176 376.817 502.109 377.348 502.908C377.897 503.737 378.824 504.141 379.674 503.908C379.674 503.908 379.64 503.968 379.631 503.979C380.05 503.824 380.799 503.641 382.162 503.322Z" fill="#BF2519"/>
<path d="M373.627 496.389C373.481 493.062 372.466 478.247 372.347 477.56C372.176 476.938 371.683 476.494 370.977 476.319C368.806 475.788 360.51 478.082 358.973 479.648C358.478 480.157 358.296 480.783 358.445 481.339C358.688 481.829 368.966 497.798 368.966 497.798C370.484 500.23 371.724 499.852 372.131 499.725C372.534 499.603 373.766 499.226 373.627 496.389Z" fill="#BF2519"/>
<path d="M268.343 531.506C269.413 532.486 271.443 532.763 273.908 532.268C276.218 531.817 277.651 530.798 279.03 526.469L285.898 505.163C286.254 504.032 286.227 503.051 285.82 502.322C285.489 501.736 284.938 501.338 284.159 501.134C282.936 500.803 281.408 500.836 280.445 504.084L276.842 516.169C276.842 516.169 269.501 502.478 269.497 502.475C269.033 501.56 267.675 500.905 266.291 501.447C264.487 502.124 263.886 503.726 264.606 505.789C264.606 505.789 273.535 523.73 273.555 523.779C273.555 523.779 273.798 524.418 273.798 524.523C273.798 524.523 273.879 525.009 273.879 525.027C273.861 525.718 273.627 526.3 273.208 526.688C272.797 527.071 272.225 527.27 271.557 527.244C271.557 527.244 270.165 527.213 270.059 527.213C268.628 527.386 267.729 528.197 267.585 529.449C267.483 530.256 267.747 530.964 268.343 531.506Z" fill="#231F20"/>
<path d="M303.524 511.304H293.963C293.704 511.118 293.578 510.805 293.772 509.863C293.893 509.368 294.024 508.923 294.406 508.301C294.53 508.115 294.658 507.924 294.782 507.733C295.481 506.86 296.429 506.3 297.506 506.051C300.867 505.241 303.211 506.927 303.591 509.803C303.773 511.058 303.654 511.304 303.524 511.304ZM309.4 509.661C309.091 506.582 307.888 504.179 305.915 502.706C303.814 501.131 300.84 500.63 297.319 501.251C292.906 502.007 290.256 505.121 289.648 510.269C288.901 516.424 289.927 521.062 292.625 523.685C294.658 525.669 297.666 526.457 301.324 525.969C306.54 525.245 308.887 522.417 308.887 520.629C308.887 519.314 308.081 518.279 306.898 518.121C306.221 517.988 305.65 518.121 304.385 519.239C302.563 520.807 300.451 521.437 298.579 520.969C297.153 520.611 296.039 519.641 295.535 518.31C295.535 518.31 295.311 517.43 295.324 517.528C295.171 516.735 295.101 515.949 295.596 515.629L295.729 515.54H307.188C308.246 515.54 308.781 515.405 309.089 515.076C309.719 514.385 309.67 512.413 309.4 509.661Z" fill="#231F20"/>
<path d="M319.788 493.38C318.882 493.015 317.858 493.113 316.96 493.642C316.097 494.146 315.737 494.914 315.737 496.303V523.281C315.737 523.281 315.887 524.245 315.903 524.287C316.097 524.96 316.6 525.533 317.3 525.846C318.076 526.202 318.972 526.195 319.772 525.824C320.769 525.398 321.356 524.414 321.356 523.194V496.165C321.356 496.165 321.183 494.859 321.183 494.834C321.023 494.208 320.499 493.666 319.788 493.38Z" fill="#231F20"/>
<path d="M341.411 520.782C337.627 520.782 337.024 517.466 336.905 514.963C336.898 514.956 336.855 513.497 336.855 513.497C336.855 513.497 336.898 512.413 336.898 512.371C337.143 508.039 338.05 506.331 340.365 505.856C341.919 505.501 343.107 505.674 343.998 506.382C345.336 507.446 345.926 509.699 345.872 513.457C345.834 517.857 345.057 520.782 341.411 520.782ZM341.692 500.974C339.157 500.463 336.988 500.892 334.903 502.286C334.903 502.286 334.669 502.473 334.579 502.526L334.392 502.62L333.821 502.873L333.659 502.24L333.522 502.011L333.474 501.869L333.459 501.827C333.459 501.827 333.319 501.642 333.299 501.613C332.701 500.694 331.074 500.272 329.607 501.098C328.89 501.5 328.478 502.067 328.478 503.757V530.236C328.478 531.686 328.939 532.588 329.947 533.063C330.797 533.485 331.753 533.518 332.575 533.17C333.272 532.868 333.785 532.335 333.976 531.686L334.145 530.551V525.969L334.095 525.231L334.116 525.014L334.145 524.909L334.421 524.036L335.261 524.587C335.261 524.587 335.472 524.725 335.562 524.818L335.814 524.982C335.816 524.985 336.106 525.151 336.106 525.151C336.111 525.151 336.376 525.28 336.376 525.28C338.626 526.328 341.636 526.206 344.059 524.974C347.109 523.401 348.616 520.611 348.965 515.927C349.694 506.564 347.512 502.091 341.692 500.974Z" fill="#231F20"/>
<path d="M353.448 522.855H353.761C354.015 522.855 354.254 522.841 354.254 522.559C354.254 522.306 354.036 522.279 353.84 522.279H353.448V522.855ZM353.192 522.053H353.862C354.301 522.053 354.506 522.211 354.506 522.57C354.506 522.895 354.297 523.03 354.022 523.059L354.551 523.856H354.274L353.775 523.081H353.448V523.856H353.192V522.053ZM353.784 524.274C354.524 524.274 355.12 523.699 355.12 522.937C355.12 522.188 354.524 521.611 353.784 521.611C353.041 521.611 352.445 522.188 352.445 522.952C352.445 523.699 353.041 524.274 353.784 524.274ZM353.784 521.386C354.647 521.386 355.374 522.057 355.374 522.937C355.374 523.832 354.647 524.501 353.784 524.501C352.918 524.501 352.193 523.832 352.193 522.952C352.193 522.057 352.918 521.386 353.784 521.386Z" fill="#231F20"/>
</g>
<path d="M309.334 647.334C309.334 656.059 302.344 662.504 293.719 662.504C285.094 662.504 278.104 656.059 278.104 647.334C278.104 638.546 285.093 632.163 293.719 632.163C302.345 632.163 309.334 638.546 309.334 647.334ZM303.279 647.334C303.279 641.423 298.865 637.338 293.719 637.338C288.572 637.338 284.158 641.423 284.158 647.334C284.158 653.186 288.57 657.329 293.719 657.329C298.868 657.329 303.279 653.179 303.279 647.334Z" fill="#EA4335" stroke="white"/>
<path d="M344.098 647.334C344.098 656.059 337.108 662.504 328.483 662.504C319.859 662.504 312.869 656.059 312.869 647.334C312.869 638.553 319.857 632.163 328.483 632.163C337.11 632.163 344.098 638.546 344.098 647.334ZM338.044 647.334C338.044 641.423 333.63 637.338 328.483 637.338C323.337 637.338 318.923 641.423 318.923 647.334C318.923 653.186 323.335 657.329 328.483 657.329C333.632 657.329 338.044 653.179 338.044 647.334Z" fill="#FBBC05" stroke="white"/>
<path d="M371.715 635.167V633.117H377.415V660.743C377.415 666.426 375.7 670.357 373.039 672.87C370.372 675.388 366.691 676.543 362.647 676.543C355.398 676.543 350.928 672 349.076 668.077L354.295 665.958C355.55 668.52 358.31 671.375 362.64 671.375C365.388 671.375 367.676 670.546 369.274 668.878C370.87 667.213 371.715 664.778 371.715 661.69V659.436V658.936H371.215H370.969H370.734L370.584 659.117C369.106 660.896 366.209 662.497 362.509 662.497C354.747 662.497 347.619 655.89 347.619 647.39C347.619 638.824 354.751 632.163 362.509 632.163C366.201 632.163 369.102 633.764 370.59 635.493L370.739 635.667H370.969H371.215H371.715V635.167ZM372.215 647.39C372.215 641.642 368.261 637.338 363.14 637.338C357.977 637.338 353.695 641.616 353.695 647.39C353.695 653.114 357.982 657.329 363.14 657.329C368.256 657.329 372.215 653.088 372.215 647.39Z" fill="#4285F4" stroke="white"/>
<path d="M388.46 616.62V661.543H382.579V616.62H388.46Z" fill="#34A853" stroke="white"/>
<path d="M420.357 641.815L420.898 643.13L399.89 651.618L399.378 651.825L399.634 652.313C400.49 653.95 401.597 655.211 402.98 656.061C404.364 656.91 405.994 657.329 407.863 657.329C411.467 657.329 414.024 655.67 415.898 653.17L420.535 656.186C418.664 658.692 414.609 662.497 407.863 662.497C399.009 662.497 392.422 655.835 392.422 647.327C392.422 638.284 399.071 632.156 407.073 632.156C415.1 632.156 419.049 638.382 420.353 641.803L420.353 641.803L420.357 641.815ZM398.418 646.868L398.44 647.586L399.106 647.317L413.461 641.502L413.924 641.315L413.737 640.852C412.848 638.648 410.242 637.218 407.312 637.218C403.505 637.218 398.227 640.483 398.418 646.868Z" fill="#EA4335" stroke="white"/>
<path d="M267.848 642.75L252.059 642.757V637.109H274.107C274.277 638.141 274.366 639.334 274.366 640.622C274.366 645.534 272.988 651.548 268.614 655.814L268.614 655.814L268.607 655.822C264.327 660.169 258.861 662.497 251.567 662.497C238.075 662.497 226.761 651.778 226.761 638.665C226.761 625.552 238.075 614.832 251.567 614.832C258.787 614.832 263.984 617.501 267.931 621.049L263.835 625.044C260.875 622.456 256.906 620.48 251.559 620.48C241.248 620.48 233.17 628.593 233.17 638.665C233.17 648.736 241.248 656.849 251.559 656.849C258.229 656.849 262.056 654.226 264.503 651.839C266.529 649.863 267.833 647.065 268.343 643.318L268.421 642.75L267.848 642.75Z" fill="#4285F4" stroke="white"/>
<defs>
<clipPath id="clip0">
<rect width="137" height="66" fill="white" transform="translate(260 473)"/>
</clipPath>
</defs>
</svg>
