<svg width="1912" height="898" viewBox="0 0 1912 898" fill="none" xmlns="http://www.w3.org/2000/svg">
<rect width="1912" height="898" fill="#E5E5E5"/>
<rect x="0.5" y="0.5" width="1911" height="897" fill="white" stroke="black"/>
<rect y="838" width="1912" height="60" fill="#423ABA"/>
<path d="M44.543 877H42.293L49.4062 860.242H51.8086L58.957 877H56.5547L54.3867 871.727H48.8438L49.4414 869.969H53.6602L50.5312 862.375L44.543 877ZM63.4102 860.242V875.242H72.1758V877H61.2422V860.242H63.4102ZM76.9336 860.242V875.242H85.6992V877H74.7656V860.242H76.9336ZM94.1484 877V860.242H101.297C104.484 860.242 106.078 861.582 106.078 864.262C106.078 866.441 104.52 868.055 101.402 869.102L107.156 877H104.297L98.9648 869.465V868.047C102.168 867.539 103.77 866.309 103.77 864.355C103.77 862.809 102.879 862.035 101.098 862.035H96.3164V877H94.1484ZM111.973 860.242V877H109.805V860.242H111.973ZM128.977 876.344C127.625 876.859 126.168 877.117 124.605 877.117C118.535 877.117 115.5 874.207 115.5 868.387C115.5 862.879 118.43 860.125 124.289 860.125C125.969 860.125 127.531 860.359 128.977 860.828V862.703C127.531 862.156 126.047 861.883 124.523 861.883C119.953 861.883 117.668 864.051 117.668 868.387C117.668 873.035 119.918 875.359 124.418 875.359C125.137 875.359 125.934 875.266 126.809 875.078V869.383H128.977V876.344ZM132.562 877V860.242H134.73V867.625H144.633V860.242H146.801V877H144.633V869.383H134.73V877H132.562ZM162.105 860.242V862H156.832V877H154.664V862H149.391V860.242H162.105ZM164.461 876.414V874.422C166.219 875.047 168.117 875.359 170.156 875.359C173.039 875.359 174.48 874.305 174.48 872.195C174.48 870.398 173.418 869.5 171.293 869.5H169.137C165.629 869.5 163.875 867.977 163.875 864.93C163.875 861.727 166.121 860.125 170.613 860.125C172.566 860.125 174.383 860.359 176.062 860.828V862.82C174.383 862.195 172.566 861.883 170.613 861.883C167.566 861.883 166.043 862.898 166.043 864.93C166.043 866.727 167.074 867.625 169.137 867.625H171.293C174.863 867.625 176.648 869.148 176.648 872.195C176.648 875.477 174.484 877.117 170.156 877.117C168.117 877.117 166.219 876.883 164.461 876.414ZM185.672 877V860.242H192.82C196.008 860.242 197.602 861.582 197.602 864.262C197.602 866.441 196.043 868.055 192.926 869.102L198.68 877H195.82L190.488 869.465V868.047C193.691 867.539 195.293 866.309 195.293 864.355C195.293 862.809 194.402 862.035 192.621 862.035H187.84V877H185.672ZM211.934 860.242V862H203.145V867.625H211.523V869.383H203.145V875.242H212.109V877H200.977V860.242H211.934ZM215.156 876.414V874.422C216.914 875.047 218.812 875.359 220.852 875.359C223.734 875.359 225.176 874.305 225.176 872.195C225.176 870.398 224.113 869.5 221.988 869.5H219.832C216.324 869.5 214.57 867.977 214.57 864.93C214.57 861.727 216.816 860.125 221.309 860.125C223.262 860.125 225.078 860.359 226.758 860.828V862.82C225.078 862.195 223.262 861.883 221.309 861.883C218.262 861.883 216.738 862.898 216.738 864.93C216.738 866.727 217.77 867.625 219.832 867.625H221.988C225.559 867.625 227.344 869.148 227.344 872.195C227.344 875.477 225.18 877.117 220.852 877.117C218.812 877.117 216.914 876.883 215.156 876.414ZM241.465 860.242V862H232.676V867.625H241.055V869.383H232.676V875.242H241.641V877H230.508V860.242H241.465ZM244.922 877V860.242H252.07C255.258 860.242 256.852 861.582 256.852 864.262C256.852 866.441 255.293 868.055 252.176 869.102L257.93 877H255.07L249.738 869.465V868.047C252.941 867.539 254.543 866.309 254.543 864.355C254.543 862.809 253.652 862.035 251.871 862.035H247.09V877H244.922ZM275.191 860.242L268.078 877H265.676L258.527 860.242H260.812L266.953 874.75L272.941 860.242H275.191ZM288.434 860.242V862H279.645V867.625H288.023V869.383H279.645V875.242H288.609V877H277.477V860.242H288.434ZM297.984 875.242C302.086 875.242 304.137 872.883 304.137 868.164C304.137 864.055 302.086 862 297.984 862H294.059V875.242H297.984ZM291.891 877V860.242H297.984C303.531 860.242 306.305 862.883 306.305 868.164C306.305 874.055 303.531 877 297.984 877H291.891ZM316.324 868.574C316.324 873.566 318.758 876.062 323.625 876.062C328.719 876.062 331.266 873.566 331.266 868.574C331.266 863.645 328.797 861.18 323.859 861.18C318.836 861.18 316.324 863.645 316.324 868.574ZM315.094 868.527C315.094 862.926 318.016 860.125 323.859 860.125C329.617 860.125 332.496 862.926 332.496 868.527C332.496 874.254 329.617 877.117 323.859 877.117C318.016 877.117 315.094 874.254 315.094 868.527ZM327.199 873.062C326.223 873.461 325.09 873.66 323.801 873.66C320.551 873.66 318.926 871.93 318.926 868.469C318.926 865.219 320.551 863.594 323.801 863.594C325.09 863.594 326.223 863.793 327.199 864.191V865.34C326.223 864.887 325.145 864.66 323.965 864.66C321.426 864.66 320.156 865.93 320.156 868.469C320.156 871.219 321.426 872.594 323.965 872.594C325.145 872.594 326.223 872.367 327.199 871.914V873.062Z" fill="white"/>
<path d="M1342.09 875.242C1346.19 875.242 1348.24 872.883 1348.24 868.164C1348.24 864.055 1346.19 862 1342.09 862H1338.16V875.242H1342.09ZM1335.99 877V860.242H1342.09C1347.63 860.242 1350.41 862.883 1350.41 868.164C1350.41 874.055 1347.63 877 1342.09 877H1335.99ZM1356.09 860.242V877H1353.92V860.242H1356.09ZM1360.2 876.414V874.422C1361.96 875.047 1363.86 875.359 1365.9 875.359C1368.78 875.359 1370.22 874.305 1370.22 872.195C1370.22 870.398 1369.16 869.5 1367.04 869.5H1364.88C1361.37 869.5 1359.62 867.977 1359.62 864.93C1359.62 861.727 1361.86 860.125 1366.36 860.125C1368.31 860.125 1370.12 860.359 1371.8 860.828V862.82C1370.12 862.195 1368.31 861.883 1366.36 861.883C1363.31 861.883 1361.79 862.898 1361.79 864.93C1361.79 866.727 1362.82 867.625 1364.88 867.625H1367.04C1370.61 867.625 1372.39 869.148 1372.39 872.195C1372.39 875.477 1370.23 877.117 1365.9 877.117C1363.86 877.117 1361.96 876.883 1360.2 876.414ZM1388.21 876.414C1386.77 876.883 1385.2 877.117 1383.52 877.117C1377.66 877.117 1374.73 874.207 1374.73 868.387C1374.73 862.879 1377.66 860.125 1383.52 860.125C1385.2 860.125 1386.77 860.359 1388.21 860.828V862.703C1386.77 862.156 1385.28 861.883 1383.76 861.883C1379.19 861.883 1376.9 864.051 1376.9 868.387C1376.9 873.035 1379.19 875.359 1383.76 875.359C1385.28 875.359 1386.77 875.086 1388.21 874.539V876.414ZM1393.96 860.242V875.242H1402.73V877H1391.8V860.242H1393.96ZM1405.87 877H1403.62L1410.73 860.242H1413.14L1420.29 877H1417.88L1415.71 871.727H1410.17L1410.77 869.969H1414.99L1411.86 862.375L1405.87 877ZM1425.09 860.242V877H1422.92V860.242H1425.09ZM1429.44 877V860.242H1432.19L1438.34 874.223L1444.38 860.242H1447.02V877H1445.08V863.254L1439.13 877H1437.42L1431.37 863.254V877H1429.44ZM1461.96 860.242V862H1453.17V867.625H1461.55V869.383H1453.17V875.242H1462.13V877H1451V860.242H1461.96ZM1465.41 877V860.242H1472.56C1475.75 860.242 1477.34 861.582 1477.34 864.262C1477.34 866.441 1475.79 868.055 1472.67 869.102L1478.42 877H1475.56L1470.23 869.465V868.047C1473.43 867.539 1475.04 866.309 1475.04 864.355C1475.04 862.809 1474.14 862.035 1472.36 862.035H1467.58V877H1465.41Z" fill="white"/>
<path d="M1556.3 861.242V863H1551.03V878H1548.86V863H1543.59V861.242H1556.3ZM1569.85 861.242V863H1561.06V868.625H1569.44V870.383H1561.06V876.242H1570.02V878H1558.89V861.242H1569.85ZM1573.3 878V861.242H1580.45C1583.64 861.242 1585.23 862.582 1585.23 865.262C1585.23 867.441 1583.68 869.055 1580.56 870.102L1586.31 878H1583.45L1578.12 870.465V869.047C1581.32 868.539 1582.93 867.309 1582.93 865.355C1582.93 863.809 1582.04 863.035 1580.25 863.035H1575.47V878H1573.3ZM1588.61 878V861.242H1591.36L1597.52 875.223L1603.55 861.242H1606.19V878H1604.25V864.254L1598.3 878H1596.59L1590.54 864.254V878H1588.61ZM1609.94 877.414V875.422C1611.7 876.047 1613.59 876.359 1615.63 876.359C1618.52 876.359 1619.96 875.305 1619.96 873.195C1619.96 871.398 1618.89 870.5 1616.77 870.5H1614.61C1611.11 870.5 1609.35 868.977 1609.35 865.93C1609.35 862.727 1611.6 861.125 1616.09 861.125C1618.04 861.125 1619.86 861.359 1621.54 861.828V863.82C1619.86 863.195 1618.04 862.883 1616.09 862.883C1613.04 862.883 1611.52 863.898 1611.52 865.93C1611.52 867.727 1612.55 868.625 1614.61 868.625H1616.77C1620.34 868.625 1622.12 870.148 1622.12 873.195C1622.12 876.477 1619.96 878.117 1615.63 878.117C1613.59 878.117 1611.7 877.883 1609.94 877.414ZM1630.33 865.754C1630.33 862.746 1632.32 861.242 1636.3 861.242C1637.75 861.242 1639.16 861.438 1640.52 861.828V863.586C1639.16 863.195 1637.8 863 1636.46 863C1633.82 863 1632.5 863.898 1632.5 865.695C1632.5 867.648 1633.49 868.625 1635.48 868.625H1640.03V866.961H1640.77L1641.96 868.625H1644.1V870.383H1642.2V872.258C1642.2 876.109 1640.18 878.035 1636.13 878.035C1632.26 878.035 1630.33 876.484 1630.33 873.383C1630.33 871.453 1631.08 870.152 1632.59 869.48C1631.08 868.816 1630.33 867.574 1630.33 865.754ZM1635.51 870.383C1633.5 870.383 1632.5 871.363 1632.5 873.324C1632.5 875.27 1633.67 876.242 1636.02 876.242C1638.7 876.242 1640.03 874.906 1640.03 872.234V870.383H1635.51ZM1664.62 877.414C1663.17 877.883 1661.61 878.117 1659.93 878.117C1654.07 878.117 1651.14 875.207 1651.14 869.387C1651.14 863.879 1654.07 861.125 1659.93 861.125C1661.61 861.125 1663.17 861.359 1664.62 861.828V863.703C1663.17 863.156 1661.69 862.883 1660.16 862.883C1655.59 862.883 1653.31 865.051 1653.31 869.387C1653.31 874.035 1655.59 876.359 1660.16 876.359C1661.69 876.359 1663.17 876.086 1664.62 875.539V877.414ZM1669.9 869.574C1669.9 874.098 1671.95 876.359 1676.03 876.359C1680.03 876.359 1682.03 874.098 1682.03 869.574C1682.03 865.113 1680.03 862.883 1676.03 862.883C1671.95 862.883 1669.9 865.113 1669.9 869.574ZM1667.62 869.645C1667.62 863.965 1670.42 861.125 1676.03 861.125C1681.55 861.125 1684.32 863.965 1684.32 869.645C1684.32 875.293 1681.55 878.117 1676.03 878.117C1670.42 878.117 1667.62 875.293 1667.62 869.645ZM1687.73 878V861.242H1689.89L1700.15 874.742V861.242H1702.2V878H1700.03L1689.78 864.383V878H1687.73ZM1712.29 876.242C1716.39 876.242 1718.44 873.883 1718.44 869.164C1718.44 865.055 1716.39 863 1712.29 863H1708.36V876.242H1712.29ZM1706.2 878V861.242H1712.29C1717.84 861.242 1720.61 863.883 1720.61 869.164C1720.61 875.055 1717.84 878 1712.29 878H1706.2ZM1726.29 861.242V878H1724.12V861.242H1726.29ZM1741.95 861.242V863H1736.68V878H1734.51V863H1729.23V861.242H1741.95ZM1747.06 861.242V878H1744.89V861.242H1747.06ZM1753.11 869.574C1753.11 874.098 1755.15 876.359 1759.23 876.359C1763.23 876.359 1765.23 874.098 1765.23 869.574C1765.23 865.113 1763.23 862.883 1759.23 862.883C1755.15 862.883 1753.11 865.113 1753.11 869.574ZM1750.82 869.645C1750.82 863.965 1753.62 861.125 1759.23 861.125C1764.76 861.125 1767.52 863.965 1767.52 869.645C1767.52 875.293 1764.76 878.117 1759.23 878.117C1753.62 878.117 1750.82 875.293 1750.82 869.645ZM1770.93 878V861.242H1773.1L1783.35 874.742V861.242H1785.4V878H1783.23L1772.98 864.383V878H1770.93ZM1789.16 877.414V875.422C1790.92 876.047 1792.82 876.359 1794.86 876.359C1797.74 876.359 1799.18 875.305 1799.18 873.195C1799.18 871.398 1798.12 870.5 1796 870.5H1793.84C1790.33 870.5 1788.58 868.977 1788.58 865.93C1788.58 862.727 1790.82 861.125 1795.32 861.125C1797.27 861.125 1799.09 861.359 1800.77 861.828V863.82C1799.09 863.195 1797.27 862.883 1795.32 862.883C1792.27 862.883 1790.75 863.898 1790.75 865.93C1790.75 867.727 1791.78 868.625 1793.84 868.625H1796C1799.57 868.625 1801.35 870.148 1801.35 873.195C1801.35 876.477 1799.19 878.117 1794.86 878.117C1792.82 878.117 1790.92 877.883 1789.16 877.414Z" fill="white"/>
<rect x="545" y="285" width="775" height="470" fill="#423ABA"/>
<rect x="612" y="345" width="642" height="45" fill="white"/>
<rect x="614" y="454" width="642" height="45" fill="white"/>
<rect x="614" y="565" width="333" height="45" fill="white"/>
<rect x="976" y="565" width="95" height="45" fill="white"/>
<rect x="1100" y="565" width="156" height="45" fill="white"/>
<g filter="url(#filter0_d)">
<rect x="614" y="658" width="642" height="65" fill="white"/>
</g>
<path d="M833.152 693.297V677.863H836.404V693.297C836.404 698.125 838.807 700.539 843.611 700.539C848.416 700.539 850.818 698.125 850.818 693.297V677.863H854.07V693.297C854.07 699.883 850.584 703.176 843.611 703.176C836.639 703.176 833.152 699.883 833.152 693.297ZM859.871 703V677.863H870.066C875.199 677.863 877.766 680.107 877.766 684.596C877.766 689.482 874.256 692.465 867.236 693.543L866.568 690.801C871.725 690.039 874.303 688.018 874.303 684.736C874.303 681.947 872.791 680.553 869.768 680.553H863.123V703H859.871ZM891.23 700.363C897.383 700.363 900.459 696.824 900.459 689.746C900.459 683.582 897.383 680.5 891.23 680.5H885.342V700.363H891.23ZM882.09 703V677.863H891.23C899.551 677.863 903.711 681.824 903.711 689.746C903.711 698.582 899.551 703 891.23 703H882.09ZM909.283 703H905.908L916.578 677.863H920.182L930.904 703H927.301L924.049 695.09H915.734L916.631 692.453H922.959L918.266 681.062L909.283 703ZM951.295 677.863V680.5H943.385V703H940.133V680.5H932.223V677.863H951.295ZM971.615 677.863V680.5H958.432V688.938H971V691.574H958.432V700.363H971.879V703H955.18V677.863H971.615ZM985.59 703V677.863H996.312C1001.09 677.863 1003.48 679.814 1003.48 683.717C1003.48 686.576 1001.93 688.621 998.809 689.852C1002.14 690.473 1003.8 692.377 1003.8 695.564C1003.8 700.521 1001.18 703 995.943 703H985.59ZM995.75 700.363C998.75 700.363 1000.25 698.84 1000.25 695.793C1000.25 692.828 998.24 691.346 994.221 691.346H992.814V689.219C997.619 688.574 1000.02 686.84 1000.02 684.016C1000.02 681.672 998.686 680.5 996.014 680.5H988.842V700.363H995.75ZM1012.75 677.863V703H1009.5V677.863H1012.75ZM1037.46 677.863V680.5L1022.4 700.363H1037.11V703H1018.48V700.363L1034.02 680.5H1018.83V677.863H1037.46Z" fill="#423ABA"/>
<path d="M613.992 340V323.242H621.141C624.328 323.242 625.922 324.543 625.922 327.145C625.922 329.051 624.883 330.414 622.805 331.234C625.023 331.648 626.133 332.918 626.133 335.043C626.133 338.348 624.387 340 620.895 340H613.992ZM620.766 338.242C622.766 338.242 623.766 337.227 623.766 335.195C623.766 333.219 622.426 332.23 619.746 332.23H618.809V330.812C622.012 330.383 623.613 329.227 623.613 327.344C623.613 325.781 622.723 325 620.941 325H616.16V338.242H620.766ZM629.461 333.531V323.242H631.629V333.531C631.629 336.75 633.23 338.359 636.434 338.359C639.637 338.359 641.238 336.75 641.238 333.531V323.242H643.406V333.531C643.406 337.922 641.082 340.117 636.434 340.117C631.785 340.117 629.461 337.922 629.461 333.531ZM647.039 339.414V337.422C648.797 338.047 650.695 338.359 652.734 338.359C655.617 338.359 657.059 337.305 657.059 335.195C657.059 333.398 655.996 332.5 653.871 332.5H651.715C648.207 332.5 646.453 330.977 646.453 327.93C646.453 324.727 648.699 323.125 653.191 323.125C655.145 323.125 656.961 323.359 658.641 323.828V325.82C656.961 325.195 655.145 324.883 653.191 324.883C650.145 324.883 648.621 325.898 648.621 327.93C648.621 329.727 649.652 330.625 651.715 330.625H653.871C657.441 330.625 659.227 332.148 659.227 335.195C659.227 338.477 657.062 340.117 652.734 340.117C650.695 340.117 648.797 339.883 647.039 339.414ZM664.91 323.242V340H662.742V323.242H664.91ZM669.258 340V323.242H671.426L681.68 336.742V323.242H683.73V340H681.562L671.309 326.383V340H669.258ZM698.684 323.242V325H689.895V330.625H698.273V332.383H689.895V338.242H698.859V340H687.727V323.242H698.684ZM701.906 339.414V337.422C703.664 338.047 705.562 338.359 707.602 338.359C710.484 338.359 711.926 337.305 711.926 335.195C711.926 333.398 710.863 332.5 708.738 332.5H706.582C703.074 332.5 701.32 330.977 701.32 327.93C701.32 324.727 703.566 323.125 708.059 323.125C710.012 323.125 711.828 323.359 713.508 323.828V325.82C711.828 325.195 710.012 324.883 708.059 324.883C705.012 324.883 703.488 325.898 703.488 327.93C703.488 329.727 704.52 330.625 706.582 330.625H708.738C712.309 330.625 714.094 332.148 714.094 335.195C714.094 338.477 711.93 340.117 707.602 340.117C705.562 340.117 703.664 339.883 701.906 339.414ZM717.023 339.414V337.422C718.781 338.047 720.68 338.359 722.719 338.359C725.602 338.359 727.043 337.305 727.043 335.195C727.043 333.398 725.98 332.5 723.855 332.5H721.699C718.191 332.5 716.438 330.977 716.438 327.93C716.438 324.727 718.684 323.125 723.176 323.125C725.129 323.125 726.945 323.359 728.625 323.828V325.82C726.945 325.195 725.129 324.883 723.176 324.883C720.129 324.883 718.605 325.898 718.605 327.93C718.605 329.727 719.637 330.625 721.699 330.625H723.855C727.426 330.625 729.211 332.148 729.211 335.195C729.211 338.477 727.047 340.117 722.719 340.117C720.68 340.117 718.781 339.883 717.023 339.414ZM738.234 340V323.242H740.402L750.656 336.742V323.242H752.707V340H750.539L740.285 326.383V340H738.234ZM757.254 340H755.004L762.117 323.242H764.52L771.668 340H769.266L767.098 334.727H761.555L762.152 332.969H766.371L763.242 325.375L757.254 340ZM773.953 340V323.242H776.707L782.859 337.223L788.895 323.242H791.531V340H789.598V326.254L783.645 340H781.934L775.887 326.254V340H773.953ZM806.473 323.242V325H797.684V330.625H806.062V332.383H797.684V338.242H806.648V340H795.516V323.242H806.473ZM811.863 327.695V329.863H809.695V327.695H811.863ZM811.863 337.832V340H809.695V337.832H811.863Z" fill="white"/>
<path d="M615.758 448.414V446.422C617.516 447.047 619.414 447.359 621.453 447.359C624.336 447.359 625.777 446.305 625.777 444.195C625.777 442.398 624.715 441.5 622.59 441.5H620.434C616.926 441.5 615.172 439.977 615.172 436.93C615.172 433.727 617.418 432.125 621.91 432.125C623.863 432.125 625.68 432.359 627.359 432.828V434.82C625.68 434.195 623.863 433.883 621.91 433.883C618.863 433.883 617.34 434.898 617.34 436.93C617.34 438.727 618.371 439.625 620.434 439.625H622.59C626.16 439.625 627.945 441.148 627.945 444.195C627.945 447.477 625.781 449.117 621.453 449.117C619.414 449.117 617.516 448.883 615.758 448.414ZM642.418 432.242V434H637.145V449H634.977V434H629.703V432.242H642.418ZM645.008 449V432.242H652.156C655.344 432.242 656.938 433.582 656.938 436.262C656.938 438.441 655.379 440.055 652.262 441.102L658.016 449H655.156L649.824 441.465V440.047C653.027 439.539 654.629 438.309 654.629 436.355C654.629 434.809 653.738 434.035 651.957 434.035H647.176V449H645.008ZM671.27 432.242V434H662.48V439.625H670.859V441.383H662.48V447.242H671.445V449H660.312V432.242H671.27ZM685.684 432.242V434H676.895V439.625H685.273V441.383H676.895V447.242H685.859V449H674.727V432.242H685.684ZM700.449 432.242V434H695.176V449H693.008V434H687.734V432.242H700.449ZM709.449 449H707.199L714.312 432.242H716.715L723.863 449H721.461L719.293 443.727H713.75L714.348 441.969H718.566L715.438 434.375L709.449 449ZM732.242 447.242C736.344 447.242 738.395 444.883 738.395 440.164C738.395 436.055 736.344 434 732.242 434H728.316V447.242H732.242ZM726.148 449V432.242H732.242C737.789 432.242 740.562 434.883 740.562 440.164C740.562 446.055 737.789 449 732.242 449H726.148ZM749.82 447.242C753.922 447.242 755.973 444.883 755.973 440.164C755.973 436.055 753.922 434 749.82 434H745.895V447.242H749.82ZM743.727 449V432.242H749.82C755.367 432.242 758.141 434.883 758.141 440.164C758.141 446.055 755.367 449 749.82 449H743.727ZM761.305 449V432.242H768.453C771.641 432.242 773.234 433.582 773.234 436.262C773.234 438.441 771.676 440.055 768.559 441.102L774.312 449H771.453L766.121 441.465V440.047C769.324 439.539 770.926 438.309 770.926 436.355C770.926 434.809 770.035 434.035 768.254 434.035H763.473V449H761.305ZM787.566 432.242V434H778.777V439.625H787.156V441.383H778.777V447.242H787.742V449H776.609V432.242H787.566ZM790.789 448.414V446.422C792.547 447.047 794.445 447.359 796.484 447.359C799.367 447.359 800.809 446.305 800.809 444.195C800.809 442.398 799.746 441.5 797.621 441.5H795.465C791.957 441.5 790.203 439.977 790.203 436.93C790.203 433.727 792.449 432.125 796.941 432.125C798.895 432.125 800.711 432.359 802.391 432.828V434.82C800.711 434.195 798.895 433.883 796.941 433.883C793.895 433.883 792.371 434.898 792.371 436.93C792.371 438.727 793.402 439.625 795.465 439.625H797.621C801.191 439.625 802.977 441.148 802.977 444.195C802.977 447.477 800.812 449.117 796.484 449.117C794.445 449.117 792.547 448.883 790.789 448.414ZM805.906 448.414V446.422C807.664 447.047 809.562 447.359 811.602 447.359C814.484 447.359 815.926 446.305 815.926 444.195C815.926 442.398 814.863 441.5 812.738 441.5H810.582C807.074 441.5 805.32 439.977 805.32 436.93C805.32 433.727 807.566 432.125 812.059 432.125C814.012 432.125 815.828 432.359 817.508 432.828V434.82C815.828 434.195 814.012 433.883 812.059 433.883C809.012 433.883 807.488 434.898 807.488 436.93C807.488 438.727 808.52 439.625 810.582 439.625H812.738C816.309 439.625 818.094 441.148 818.094 444.195C818.094 447.477 815.93 449.117 811.602 449.117C809.562 449.117 807.664 448.883 805.906 448.414ZM823.191 436.695V438.863H821.023V436.695H823.191ZM823.191 446.832V449H821.023V446.832H823.191Z" fill="white"/>
<path d="M628.648 559.414C627.203 559.883 625.641 560.117 623.961 560.117C618.102 560.117 615.172 557.207 615.172 551.387C615.172 545.879 618.102 543.125 623.961 543.125C625.641 543.125 627.203 543.359 628.648 543.828V545.703C627.203 545.156 625.719 544.883 624.195 544.883C619.625 544.883 617.34 547.051 617.34 551.387C617.34 556.035 619.625 558.359 624.195 558.359C625.719 558.359 627.203 558.086 628.648 557.539V559.414ZM634.754 543.242V560H632.586V543.242H634.754ZM650.41 543.242V545H645.137V560H642.969V545H637.695V543.242H650.41ZM651.301 543.242H653.703L658.531 551.996L663.43 543.242H665.949L659.551 554.141V560H657.383V554.141L651.301 543.242ZM670.168 547.695V549.863H668V547.695H670.168ZM670.168 557.832V560H668V557.832H670.168Z" fill="white"/>
<path d="M977.758 559.414V557.422C979.516 558.047 981.414 558.359 983.453 558.359C986.336 558.359 987.777 557.305 987.777 555.195C987.777 553.398 986.715 552.5 984.59 552.5H982.434C978.926 552.5 977.172 550.977 977.172 547.93C977.172 544.727 979.418 543.125 983.91 543.125C985.863 543.125 987.68 543.359 989.359 543.828V545.82C987.68 545.195 985.863 544.883 983.91 544.883C980.863 544.883 979.34 545.898 979.34 547.93C979.34 549.727 980.371 550.625 982.434 550.625H984.59C988.16 550.625 989.945 552.148 989.945 555.195C989.945 558.477 987.781 560.117 983.453 560.117C981.414 560.117 979.516 559.883 977.758 559.414ZM1004.42 543.242V545H999.145V560H996.977V545H991.703V543.242H1004.42ZM1007.56 560H1005.31L1012.42 543.242H1014.82L1021.97 560H1019.57L1017.4 554.727H1011.86L1012.46 552.969H1016.68L1013.55 545.375L1007.56 560ZM1035.57 543.242V545H1030.29V560H1028.12V545H1022.85V543.242H1035.57ZM1049.11 543.242V545H1040.32V550.625H1048.7V552.383H1040.32V558.242H1049.29V560H1038.16V543.242H1049.11ZM1054.5 547.695V549.863H1052.34V547.695H1054.5ZM1054.5 557.832V560H1052.34V557.832H1054.5Z" fill="white"/>
<path d="M1112.12 543.242V545L1102.08 558.242H1111.89V560H1099.46V558.242L1109.82 545H1099.7V543.242H1112.12ZM1118.1 543.242V560H1115.93V543.242H1118.1ZM1122.45 560V543.242H1129.24C1132.66 543.242 1134.38 544.738 1134.38 547.73C1134.38 550.988 1132.04 552.977 1127.36 553.695L1126.91 551.867C1130.35 551.359 1132.07 550.012 1132.07 547.824C1132.07 545.965 1131.06 545.035 1129.04 545.035H1124.61V560H1122.45ZM1155.77 559.414C1154.33 559.883 1152.77 560.117 1151.09 560.117C1145.23 560.117 1142.3 557.207 1142.3 551.387C1142.3 545.879 1145.23 543.125 1151.09 543.125C1152.77 543.125 1154.33 543.359 1155.77 543.828V545.703C1154.33 545.156 1152.84 544.883 1151.32 544.883C1146.75 544.883 1144.46 547.051 1144.46 551.387C1144.46 556.035 1146.75 558.359 1151.32 558.359C1152.84 558.359 1154.33 558.086 1155.77 557.539V559.414ZM1161.06 551.574C1161.06 556.098 1163.1 558.359 1167.19 558.359C1171.19 558.359 1173.19 556.098 1173.19 551.574C1173.19 547.113 1171.19 544.883 1167.19 544.883C1163.1 544.883 1161.06 547.113 1161.06 551.574ZM1158.77 551.645C1158.77 545.965 1161.58 543.125 1167.19 543.125C1172.71 543.125 1175.47 545.965 1175.47 551.645C1175.47 557.293 1172.71 560.117 1167.19 560.117C1161.58 560.117 1158.77 557.293 1158.77 551.645ZM1184.98 558.242C1189.08 558.242 1191.13 555.883 1191.13 551.164C1191.13 547.055 1189.08 545 1184.98 545H1181.05V558.242H1184.98ZM1178.88 560V543.242H1184.98C1190.52 543.242 1193.3 545.883 1193.3 551.164C1193.3 557.055 1190.52 560 1184.98 560H1178.88ZM1207.42 543.242V545H1198.63V550.625H1207.01V552.383H1198.63V558.242H1207.59V560H1196.46V543.242H1207.42ZM1212.81 547.695V549.863H1210.64V547.695H1212.81ZM1212.81 557.832V560H1210.64V557.832H1212.81Z" fill="white"/>
<path d="M998.141 598V581.242H1000.31L1010.56 594.742V581.242H1012.61V598H1010.45L1000.19 584.383V598H998.141ZM1014.91 581.242H1017.31L1022.14 589.996L1027.04 581.242H1029.56L1023.16 592.141V598H1020.99V592.141L1014.91 581.242Z" fill="black"/>
<path d="M1063.4 580.568L1059.2 588.443L1055.01 596.319L1051.44 588.502L1047.87 580.684L1055.64 580.626L1063.4 580.568Z" fill="#C2C2C2"/>
<line x1="715" y1="249.5" x2="1211" y2="249.5" stroke="#837E7E"/>
<path d="M610.344 218V173.312H628.469C637.594 173.312 642.156 177.302 642.156 185.281C642.156 193.969 635.917 199.271 623.438 201.188L622.25 196.312C631.417 194.958 636 191.365 636 185.531C636 180.573 633.312 178.094 627.938 178.094H616.125V218H610.344ZM679.062 173.312V178H655.625V193H677.969V197.688H655.625V213.312H679.531V218H649.844V173.312H679.062ZM688.281 218V173.312H707.344C715.844 173.312 720.094 176.885 720.094 184.031C720.094 189.844 715.938 194.146 707.625 196.938L722.969 218H715.344L701.125 197.906V194.125C709.667 192.771 713.938 189.49 713.938 184.281C713.938 180.156 711.562 178.094 706.812 178.094H694.062V218H688.281ZM729.094 218V173.312H748.156C756.656 173.312 760.906 176.885 760.906 184.031C760.906 189.844 756.75 194.146 748.438 196.938L763.781 218H756.156L741.938 197.906V194.125C750.479 192.771 754.75 189.49 754.75 184.281C754.75 180.156 752.375 178.094 747.625 178.094H734.875V218H729.094ZM765.375 173.312H771.781L784.656 196.656L797.719 173.312H804.438L787.375 202.375V218H781.594V202.375L765.375 173.312ZM817.25 173.312L812.562 186.906H806.781L811.469 173.312H817.25ZM823.531 216.438V211.125C828.219 212.792 833.281 213.625 838.719 213.625C846.406 213.625 850.25 210.812 850.25 205.188C850.25 200.396 847.417 198 841.75 198H836C826.646 198 821.969 193.938 821.969 185.812C821.969 177.271 827.958 173 839.938 173C845.146 173 849.99 173.625 854.469 174.875V180.188C849.99 178.521 845.146 177.688 839.938 177.688C831.812 177.688 827.75 180.396 827.75 185.812C827.75 190.604 830.5 193 836 193H841.75C851.271 193 856.031 197.062 856.031 205.188C856.031 213.938 850.26 218.312 838.719 218.312C833.281 218.312 828.219 217.688 823.531 216.438ZM879.469 216.438V211.125C884.156 212.792 889.219 213.625 894.656 213.625C902.344 213.625 906.188 210.812 906.188 205.188C906.188 200.396 903.354 198 897.688 198H891.938C882.583 198 877.906 193.938 877.906 185.812C877.906 177.271 883.896 173 895.875 173C901.083 173 905.927 173.625 910.406 174.875V180.188C905.927 178.521 901.083 177.688 895.875 177.688C887.75 177.688 883.688 180.396 883.688 185.812C883.688 190.604 886.438 193 891.938 193H897.688C907.208 193 911.969 197.062 911.969 205.188C911.969 213.938 906.198 218.312 894.656 218.312C889.219 218.312 884.156 217.688 879.469 216.438ZM950.562 173.312V178H936.5V218H930.719V178H916.656V173.312H950.562ZM986.688 173.312V178H963.25V193H985.594V197.688H963.25V213.312H987.156V218H957.469V173.312H986.688ZM997.375 218H991.375L1010.34 173.312H1016.75L1035.81 218H1029.41L1023.62 203.938H1008.84L1010.44 199.25H1021.69L1013.34 179L997.375 218ZM1047.69 173.312V218H1041.91V173.312H1047.69ZM1079.12 173.312L1059 194.406L1079.56 218H1071.53L1053.31 196.5V193L1071.81 173.312H1079.12ZM1085.66 218V173.312H1091.44V193H1117.84V173.312H1123.62V218H1117.84V197.688H1091.44V218H1085.66ZM1138.81 195.531C1138.81 207.594 1144.26 213.625 1155.16 213.625C1165.82 213.625 1171.16 207.594 1171.16 195.531C1171.16 183.635 1165.82 177.688 1155.16 177.688C1144.26 177.688 1138.81 183.635 1138.81 195.531ZM1132.72 195.719C1132.72 180.573 1140.2 173 1155.16 173C1169.89 173 1177.25 180.573 1177.25 195.719C1177.25 210.781 1169.89 218.312 1155.16 218.312C1140.2 218.312 1132.72 210.781 1132.72 195.719ZM1186.03 200.75V173.312H1191.81V200.75C1191.81 209.333 1196.08 213.625 1204.62 213.625C1213.17 213.625 1217.44 209.333 1217.44 200.75V173.312H1223.22V200.75C1223.22 212.458 1217.02 218.312 1204.62 218.312C1192.23 218.312 1186.03 212.458 1186.03 200.75ZM1232.91 216.438V211.125C1237.59 212.792 1242.66 213.625 1248.09 213.625C1255.78 213.625 1259.62 210.812 1259.62 205.188C1259.62 200.396 1256.79 198 1251.12 198H1245.38C1236.02 198 1231.34 193.938 1231.34 185.812C1231.34 177.271 1237.33 173 1249.31 173C1254.52 173 1259.36 173.625 1263.84 174.875V180.188C1259.36 178.521 1254.52 177.688 1249.31 177.688C1241.19 177.688 1237.12 180.396 1237.12 185.812C1237.12 190.604 1239.88 193 1245.38 193H1251.12C1260.65 193 1265.41 197.062 1265.41 205.188C1265.41 213.938 1259.64 218.312 1248.09 218.312C1242.66 218.312 1237.59 217.688 1232.91 216.438ZM1303.06 173.312V178H1279.62V193H1301.97V197.688H1279.62V213.312H1303.53V218H1273.84V173.312H1303.06Z" fill="black"/>
<rect width="1912" height="103" fill="#423ABA"/>
<path d="M1499.29 42.2422H1501.7L1506.52 50.9961L1511.42 42.2422H1513.94L1507.54 53.1406V59H1505.38V53.1406L1499.29 42.2422ZM1517.93 50.5742C1517.93 55.0977 1519.97 57.3594 1524.05 57.3594C1528.05 57.3594 1530.05 55.0977 1530.05 50.5742C1530.05 46.1133 1528.05 43.8828 1524.05 43.8828C1519.97 43.8828 1517.93 46.1133 1517.93 50.5742ZM1515.64 50.6445C1515.64 44.9648 1518.45 42.125 1524.05 42.125C1529.58 42.125 1532.34 44.9648 1532.34 50.6445C1532.34 56.293 1529.58 59.1172 1524.05 59.1172C1518.45 59.1172 1515.64 56.293 1515.64 50.6445ZM1535.63 52.5312V42.2422H1537.8V52.5312C1537.8 55.75 1539.4 57.3594 1542.61 57.3594C1545.81 57.3594 1547.41 55.75 1547.41 52.5312V42.2422H1549.58V52.5312C1549.58 56.9219 1547.25 59.1172 1542.61 59.1172C1537.96 59.1172 1535.63 56.9219 1535.63 52.5312ZM1553.45 59V42.2422H1560.59C1563.78 42.2422 1565.38 43.582 1565.38 46.2617C1565.38 48.4414 1563.82 50.0547 1560.7 51.1016L1566.45 59H1563.59L1558.26 51.4648V50.0469C1561.46 49.5391 1563.07 48.3086 1563.07 46.3555C1563.07 44.8086 1562.18 44.0352 1560.39 44.0352H1555.61V59H1553.45ZM1574.61 59V42.2422H1581.76C1584.95 42.2422 1586.54 43.543 1586.54 46.1445C1586.54 48.0508 1585.5 49.4141 1583.42 50.2344C1585.64 50.6484 1586.75 51.918 1586.75 54.043C1586.75 57.3477 1585 59 1581.51 59H1574.61ZM1581.38 57.2422C1583.38 57.2422 1584.38 56.2266 1584.38 54.1953C1584.38 52.2188 1583.04 51.2305 1580.36 51.2305H1579.43V49.8125C1582.63 49.3828 1584.23 48.2266 1584.23 46.3438C1584.23 44.7812 1583.34 44 1581.56 44H1576.78V57.2422H1581.38ZM1592.71 42.2422V59H1590.55V42.2422H1592.71ZM1609.19 42.2422V44L1599.15 57.2422H1608.96V59H1596.54V57.2422L1606.89 44H1596.77V42.2422H1609.19Z" fill="white"/>
<path d="M1499.29 42.2422H1501.7L1506.52 50.9961L1511.42 42.2422H1513.94L1507.54 53.1406V59H1505.38V53.1406L1499.29 42.2422ZM1517.93 50.5742C1517.93 55.0977 1519.97 57.3594 1524.05 57.3594C1528.05 57.3594 1530.05 55.0977 1530.05 50.5742C1530.05 46.1133 1528.05 43.8828 1524.05 43.8828C1519.97 43.8828 1517.93 46.1133 1517.93 50.5742ZM1515.64 50.6445C1515.64 44.9648 1518.45 42.125 1524.05 42.125C1529.58 42.125 1532.34 44.9648 1532.34 50.6445C1532.34 56.293 1529.58 59.1172 1524.05 59.1172C1518.45 59.1172 1515.64 56.293 1515.64 50.6445ZM1535.63 52.5312V42.2422H1537.8V52.5312C1537.8 55.75 1539.4 57.3594 1542.61 57.3594C1545.81 57.3594 1547.41 55.75 1547.41 52.5312V42.2422H1549.58V52.5312C1549.58 56.9219 1547.25 59.1172 1542.61 59.1172C1537.96 59.1172 1535.63 56.9219 1535.63 52.5312ZM1553.45 59V42.2422H1560.59C1563.78 42.2422 1565.38 43.582 1565.38 46.2617C1565.38 48.4414 1563.82 50.0547 1560.7 51.1016L1566.45 59H1563.59L1558.26 51.4648V50.0469C1561.46 49.5391 1563.07 48.3086 1563.07 46.3555C1563.07 44.8086 1562.18 44.0352 1560.39 44.0352H1555.61V59H1553.45ZM1574.61 59V42.2422H1581.76C1584.95 42.2422 1586.54 43.543 1586.54 46.1445C1586.54 48.0508 1585.5 49.4141 1583.42 50.2344C1585.64 50.6484 1586.75 51.918 1586.75 54.043C1586.75 57.3477 1585 59 1581.51 59H1574.61ZM1581.38 57.2422C1583.38 57.2422 1584.38 56.2266 1584.38 54.1953C1584.38 52.2188 1583.04 51.2305 1580.36 51.2305H1579.43V49.8125C1582.63 49.3828 1584.23 48.2266 1584.23 46.3438C1584.23 44.7812 1583.34 44 1581.56 44H1576.78V57.2422H1581.38ZM1592.71 42.2422V59H1590.55V42.2422H1592.71ZM1609.19 42.2422V44L1599.15 57.2422H1608.96V59H1596.54V57.2422L1606.89 44H1596.77V42.2422H1609.19Z" fill="white"/>
<path d="M1679.16 42.2422V57.2422H1687.93V59H1676.99V42.2422H1679.16ZM1692.21 50.5742C1692.21 55.0977 1694.26 57.3594 1698.34 57.3594C1702.34 57.3594 1704.34 55.0977 1704.34 50.5742C1704.34 46.1133 1702.34 43.8828 1698.34 43.8828C1694.26 43.8828 1692.21 46.1133 1692.21 50.5742ZM1689.93 50.6445C1689.93 44.9648 1692.73 42.125 1698.34 42.125C1703.87 42.125 1706.63 44.9648 1706.63 50.6445C1706.63 56.293 1703.87 59.1172 1698.34 59.1172C1692.73 59.1172 1689.93 56.293 1689.93 50.6445ZM1722.7 58.3438C1721.34 58.8594 1719.89 59.1172 1718.32 59.1172C1712.25 59.1172 1709.22 56.207 1709.22 50.3867C1709.22 44.8789 1712.15 42.125 1718.01 42.125C1719.69 42.125 1721.25 42.3594 1722.7 42.8281V44.7031C1721.25 44.1562 1719.77 43.8828 1718.24 43.8828C1713.67 43.8828 1711.39 46.0508 1711.39 50.3867C1711.39 55.0352 1713.64 57.3594 1718.14 57.3594C1718.86 57.3594 1719.65 57.2656 1720.53 57.0781V51.3828H1722.7V58.3438ZM1727.98 50.5742C1727.98 55.0977 1730.02 57.3594 1734.11 57.3594C1738.11 57.3594 1740.11 55.0977 1740.11 50.5742C1740.11 46.1133 1738.11 43.8828 1734.11 43.8828C1730.02 43.8828 1727.98 46.1133 1727.98 50.5742ZM1725.7 50.6445C1725.7 44.9648 1728.5 42.125 1734.11 42.125C1739.63 42.125 1742.39 44.9648 1742.39 50.6445C1742.39 56.293 1739.63 59.1172 1734.11 59.1172C1728.5 59.1172 1725.7 56.293 1725.7 50.6445ZM1745.69 52.5312V42.2422H1747.86V52.5312C1747.86 55.75 1749.46 57.3594 1752.66 57.3594C1755.86 57.3594 1757.46 55.75 1757.46 52.5312V42.2422H1759.63V52.5312C1759.63 56.9219 1757.31 59.1172 1752.66 59.1172C1748.01 59.1172 1745.69 56.9219 1745.69 52.5312ZM1774.81 42.2422V44H1769.54V59H1767.37V44H1762.09V42.2422H1774.81Z" fill="white"/>
<path d="M121.984 71V37.4844H136.281C142.656 37.4844 145.844 40.0859 145.844 45.2891C145.844 49.1016 143.766 51.8281 139.609 53.4688C144.047 54.2969 146.266 56.8359 146.266 61.0859C146.266 67.6953 142.773 71 135.789 71H121.984ZM135.531 67.4844C139.531 67.4844 141.531 65.4531 141.531 61.3906C141.531 57.4375 138.852 55.4609 133.492 55.4609H131.617V52.625C138.023 51.7656 141.227 49.4531 141.227 45.6875C141.227 42.5625 139.445 41 135.883 41H126.32V67.4844H135.531ZM162.836 46.3906C169.836 46.3906 173.336 49.8516 173.336 56.7734C173.336 57.7578 173.266 58.8125 173.125 59.9375H155.852C155.852 64.9688 158.789 67.4844 164.664 67.4844C167.461 67.4844 169.945 67.1719 172.117 66.5469V70.0625C169.945 70.6875 167.305 71 164.195 71C155.742 71 151.516 66.8047 151.516 58.4141C151.516 50.3984 155.289 46.3906 162.836 46.3906ZM155.852 56.3281H169.164C169.07 52.0156 166.961 49.8594 162.836 49.8594C158.461 49.8594 156.133 52.0156 155.852 56.3281ZM179.172 42.4062H181.891L182.828 46.3906H189.484V49.9062H183.508V64.0391C183.508 66.3359 184.5 67.4844 186.484 67.4844H189.484V71H185.359C181.234 71 179.172 68.7891 179.172 64.3672V42.4062ZM195.016 42.4062H197.734L198.672 46.3906H205.328V49.9062H199.352V64.0391C199.352 66.3359 200.344 67.4844 202.328 67.4844H205.328V71H201.203C197.078 71 195.016 68.7891 195.016 64.3672V42.4062ZM221.008 46.3906C228.008 46.3906 231.508 49.8516 231.508 56.7734C231.508 57.7578 231.438 58.8125 231.297 59.9375H214.023C214.023 64.9688 216.961 67.4844 222.836 67.4844C225.633 67.4844 228.117 67.1719 230.289 66.5469V70.0625C228.117 70.6875 225.477 71 222.367 71C213.914 71 209.688 66.8047 209.688 58.4141C209.688 50.3984 213.461 46.3906 221.008 46.3906ZM214.023 56.3281H227.336C227.242 52.0156 225.133 49.8594 221.008 49.8594C216.633 49.8594 214.305 52.0156 214.023 56.3281ZM237.344 71V46.3906H240.273L241.047 49.5312C243.203 47.4375 245.797 46.3906 248.828 46.3906V50C245.891 50 243.508 51.0391 241.68 53.1172V71H237.344ZM265.375 71V37.4844H279.672C286.047 37.4844 289.234 40.0859 289.234 45.2891C289.234 49.1016 287.156 51.8281 283 53.4688C287.438 54.2969 289.656 56.8359 289.656 61.0859C289.656 67.6953 286.164 71 279.18 71H265.375ZM278.922 67.4844C282.922 67.4844 284.922 65.4531 284.922 61.3906C284.922 57.4375 282.242 55.4609 276.883 55.4609H275.008V52.625C281.414 51.7656 284.617 49.4531 284.617 45.6875C284.617 42.5625 282.836 41 279.273 41H269.711V67.4844H278.922ZM317.289 46.3906V71H314.312L313.562 67.8594C310.578 69.9531 307.578 71 304.562 71C298.906 71 296.078 67.9453 296.078 61.8359V46.3906H300.414V61.9062C300.414 65.5625 302.227 67.3906 305.852 67.3906C308.336 67.3906 310.703 66.3516 312.953 64.2734V46.3906H317.289ZM324.109 69.8281V66.0781C327 67.0156 329.922 67.4844 332.875 67.4844C336.797 67.4844 338.758 66.3125 338.758 63.9688C338.758 61.7812 337.391 60.6875 334.656 60.6875H331.141C325.828 60.6875 323.172 58.2656 323.172 53.4219C323.172 48.7344 326.586 46.3906 333.414 46.3906C336.352 46.3906 339.266 46.7812 342.156 47.5625V51.3125C339.266 50.375 336.352 49.9062 333.414 49.9062C329.32 49.9062 327.273 51.0781 327.273 53.4219C327.273 55.6094 328.562 56.7031 331.141 56.7031H334.656C340.281 56.7031 343.094 59.125 343.094 63.9688C343.094 68.6562 339.688 71 332.875 71C329.922 71 327 70.6094 324.109 69.8281ZM353.758 46.3906V71H349.422V46.3906H353.758ZM353.758 37.4844V41.5859H349.422V37.4844H353.758ZM361.281 71V46.3906H364.211L364.984 49.5312C367.5 47.4375 370.266 46.3906 373.281 46.3906C379.422 46.3906 382.492 49.4453 382.492 55.5547V71H378.156V55.4844C378.156 51.8281 376.336 50 372.695 50C370.211 50 367.852 51.0391 365.617 53.1172V71H361.281ZM399.695 46.3906C406.695 46.3906 410.195 49.8516 410.195 56.7734C410.195 57.7578 410.125 58.8125 409.984 59.9375H392.711C392.711 64.9688 395.648 67.4844 401.523 67.4844C404.32 67.4844 406.805 67.1719 408.977 66.5469V70.0625C406.805 70.6875 404.164 71 401.055 71C392.602 71 388.375 66.8047 388.375 58.4141C388.375 50.3984 392.148 46.3906 399.695 46.3906ZM392.711 56.3281H406.023C405.93 52.0156 403.82 49.8594 399.695 49.8594C395.32 49.8594 392.992 52.0156 392.711 56.3281ZM415.797 69.8281V66.0781C418.688 67.0156 421.609 67.4844 424.562 67.4844C428.484 67.4844 430.445 66.3125 430.445 63.9688C430.445 61.7812 429.078 60.6875 426.344 60.6875H422.828C417.516 60.6875 414.859 58.2656 414.859 53.4219C414.859 48.7344 418.273 46.3906 425.102 46.3906C428.039 46.3906 430.953 46.7812 433.844 47.5625V51.3125C430.953 50.375 428.039 49.9062 425.102 49.9062C421.008 49.9062 418.961 51.0781 418.961 53.4219C418.961 55.6094 420.25 56.7031 422.828 56.7031H426.344C431.969 56.7031 434.781 59.125 434.781 63.9688C434.781 68.6562 431.375 71 424.562 71C421.609 71 418.688 70.6094 415.797 69.8281ZM440.406 69.8281V66.0781C443.297 67.0156 446.219 67.4844 449.172 67.4844C453.094 67.4844 455.055 66.3125 455.055 63.9688C455.055 61.7812 453.688 60.6875 450.953 60.6875H447.438C442.125 60.6875 439.469 58.2656 439.469 53.4219C439.469 48.7344 442.883 46.3906 449.711 46.3906C452.648 46.3906 455.562 46.7812 458.453 47.5625V51.3125C455.562 50.375 452.648 49.9062 449.711 49.9062C445.617 49.9062 443.57 51.0781 443.57 53.4219C443.57 55.6094 444.859 56.7031 447.438 56.7031H450.953C456.578 56.7031 459.391 59.125 459.391 63.9688C459.391 68.6562 455.984 71 449.172 71C446.219 71 443.297 70.6094 440.406 69.8281Z" fill="white"/>
<path d="M51.1706 81V41.8984H67.8503C75.2878 41.8984 79.0065 44.9336 79.0065 51.0039C79.0065 55.4518 76.5821 58.6328 71.7331 60.5469C76.9102 61.513 79.4987 64.4753 79.4987 69.4336C79.4987 77.1445 75.4245 81 67.2761 81H51.1706ZM66.9753 76.8984C71.6419 76.8984 73.9753 74.5286 73.9753 69.7891C73.9753 65.1771 70.849 62.8711 64.5964 62.8711H62.4089V59.5625C69.8828 58.5599 73.6198 55.862 73.6198 51.4688C73.6198 47.8229 71.5417 46 67.3854 46H56.2292V76.8984H66.9753Z" fill="white"/>
<path d="M55.7494 64V24.8984H39.0697C31.6322 24.8984 27.9135 27.9336 27.9135 34.0039C27.9135 38.4518 30.3379 41.6328 35.1869 43.5469C30.0098 44.513 27.4213 47.4753 27.4213 52.4336C27.4213 60.1445 31.4955 64 39.6439 64H55.7494ZM39.9447 59.8984C35.278 59.8984 32.9447 57.5286 32.9447 52.7891C32.9447 48.1771 36.071 45.8711 42.3236 45.8711H44.5111V42.5625C37.0372 41.5599 33.3002 38.862 33.3002 34.4688C33.3002 30.8229 35.3783 29 39.5345 29H50.6908V59.8984H39.9447Z" fill="white"/>
<line x1="100.5" y1="81" x2="100.5" y2="26" stroke="white" stroke-width="3"/>
<defs>
<filter id="filter0_d" x="614" y="658" width="659" height="82" filterUnits="userSpaceOnUse" color-interpolation-filters="sRGB">
<feFlood flood-opacity="0" result="BackgroundImageFix"/>
<feColorMatrix in="SourceAlpha" type="matrix" values="0 0 0 0 0 0 0 0 0 0 0 0 0 0 0 0 0 0 127 0"/>
<feOffset dx="10" dy="10"/>
<feGaussianBlur stdDeviation="3.5"/>
<feColorMatrix type="matrix" values="0 0 0 0 0 0 0 0 0 0 0 0 0 0 0 0 0 0 0.25 0"/>
<feBlend mode="normal" in2="BackgroundImageFix" result="effect1_dropShadow"/>
<feBlend mode="normal" in="SourceGraphic" in2="effect1_dropShadow" result="shape"/>
</filter>
</defs>
</svg>
